<svg width="92" height="91" viewBox="0 0 92 91" fill="none" xmlns="http://www.w3.org/2000/svg">
<circle cx="46.0029" cy="45.4182" r="44.344" fill="black" stroke="white" stroke-width="1.84767"/>
<path d="M66.6145 42.9401L66.6145 42.9401L66.621 42.9325C67.1001 42.3671 67.9734 41.0921 67.6065 39.46C67.453 38.7774 67.0934 38.0796 66.4583 37.3809C67.5004 38.0052 68.3354 38.7858 68.7064 39.74C69.0672 40.6682 69.0354 41.8839 68.08 43.4993L51.561 68.2845L48.6455 68.1179L65.4846 44.398C65.4851 44.3973 65.4855 44.3966 65.486 44.3959C65.8467 43.8965 66.2337 43.3751 66.6145 42.9401Z" fill="white" stroke="white" stroke-width="1.23413"/>
<path d="M25.8562 37.5912C25.7297 37.6518 25.6125 37.7091 25.5067 37.7615C25.3219 37.8529 25.1726 37.9292 25.07 37.9823C25.0187 38.0089 24.9791 38.0296 24.9526 38.0436L24.9472 38.0465C24.0742 38.6723 23.6223 39.3934 23.4121 40.1167C23.1959 40.8607 23.2249 41.6458 23.3774 42.3849C23.5297 43.1231 23.7996 43.788 24.0353 44.2725C24.1524 44.5134 24.2594 44.7062 24.336 44.8372C24.3743 44.9026 24.4048 44.9524 24.4251 44.9847C24.4353 45.0009 24.4428 45.0127 24.4475 45.0199L24.4483 45.0211L41.3579 68.6839L43.5201 68.4568L26.2126 44.4366L25.8562 37.5912ZM25.8562 37.5912C25.6044 37.8481 25.3692 38.124 25.1626 38.4183L25.1583 38.4244L25.1541 38.4306C24.2898 39.7272 24.2968 41.4539 25.1483 42.7803L25.1574 42.7946L25.1673 42.8083C25.2658 42.9447 25.37 43.1237 25.4951 43.3402L25.5108 43.3674L25.5291 43.3928C25.6353 43.5398 25.7348 43.6991 25.8474 43.8797L25.8523 43.8876C25.9595 44.0597 26.0793 44.252 26.2122 44.4361L25.8562 37.5912Z" fill="white" stroke="white" stroke-width="1.23413"/>
<path d="M45.783 65.2105L45.383 60.2414L46.5572 60.1394L46.9571 65.1086L45.783 65.2105Z" fill="white" stroke="white" stroke-width="1.23413"/>
<path d="M45.202 55.1636L45.0795 50.1782L45.8955 50.1566L46.0179 55.1419L45.202 55.1636Z" fill="white" stroke="white" stroke-width="1.23413"/>
<path d="M44.6392 46.605L44.5168 41.6196L45.3327 41.598L45.4552 46.5833L44.6392 46.605Z" fill="white" stroke="white" stroke-width="1.23413"/>
<path d="M28.8037 33.3903L32.8641 31.9707" stroke="white" stroke-width="0.123413" stroke-miterlimit="10"/>
<path d="M25.8689 31.9725L34.271 28.7158" stroke="white" stroke-width="0.123413" stroke-miterlimit="10"/>
<path d="M61.4875 34.8936L59.6382 33.8081" stroke="white" stroke-width="0.123413" stroke-miterlimit="10"/>
<path d="M62.6937 32.9331L58.6333 30.5532" stroke="white" stroke-width="0.123413" stroke-miterlimit="10"/>
<path d="M60.1069 39.0874L60.1074 39.1058L60.1089 39.1222L60.1089 39.1225L60.109 39.1231L60.109 39.1236L60.109 39.1241L60.1091 39.1254L60.1104 39.1464C60.1116 39.1666 60.1131 39.1988 60.114 39.2415C60.1158 39.3269 60.1152 39.4528 60.1049 39.6057C60.0842 39.915 60.0252 40.3171 59.8785 40.7146C59.7324 41.1104 59.5068 41.4822 59.1631 41.7629C58.8296 42.0354 58.3469 42.2537 57.6251 42.2937C57.6151 42.2931 57.601 42.2922 57.5834 42.2906C57.537 42.2866 57.4672 42.2787 57.3828 42.2636C57.2104 42.2327 56.996 42.1749 56.797 42.0715C56.6004 41.9694 56.4368 41.8328 56.3291 41.6487C56.2747 41.5556 56.2265 41.4368 56.1996 41.2834L57.1182 41.2345C57.5962 41.2976 58.0173 41.2296 58.3612 41.018C58.7184 40.7982 58.9116 40.4729 59.0138 40.1847C59.1146 39.9005 59.1391 39.6213 59.1422 39.4272C59.1438 39.3273 59.1398 39.2425 59.1352 39.181C59.1341 39.1654 59.1329 39.1512 59.1317 39.1386C59.1306 39.1266 59.1295 39.1159 59.1285 39.1067L58.8897 32.123C58.9955 31.1625 58.7055 30.4518 58.3655 29.9788C58.196 29.7431 58.0181 29.5712 57.8796 29.4563C57.8197 29.4066 57.7665 29.367 57.7236 29.337C57.6772 29.2763 57.604 29.1727 57.5026 29.0193C57.3694 28.8179 57.2063 28.5593 57.0232 28.2616C56.6575 27.6666 56.2205 26.9289 55.7992 26.2075C55.3783 25.4867 54.9748 24.7851 54.6763 24.2636C54.5271 24.0028 54.4043 23.7872 54.3188 23.6368L54.2199 23.4628L54.194 23.4172L54.1874 23.4055L54.1858 23.4026L54.1854 23.4019L54.1853 23.4017L53.6483 23.7056L54.1853 23.4017L54.1645 23.365L54.139 23.3315C53.6801 22.7295 53.1518 22.4064 52.7281 22.2356C52.5177 22.1508 52.3341 22.1039 52.1981 22.0779C52.13 22.0649 52.0734 22.057 52.0307 22.0523C52.0094 22.0499 51.9915 22.0483 51.9773 22.0472L51.9589 22.046L51.9518 22.0456L51.9489 22.0455L51.9475 22.0454L51.9469 22.0454C51.9466 22.0454 51.9463 22.0453 51.9196 22.6618L51.9463 22.0453L51.9379 22.045C49.1097 21.9611 46.0233 21.9822 43.6473 22.024C42.4585 22.0449 41.446 22.0711 40.7305 22.092C40.3727 22.1025 40.0891 22.1116 39.8948 22.1182L39.6722 22.1259L39.6146 22.128L39.6055 22.1283C38.6988 22.1334 38.0344 22.7035 37.6434 23.156C37.4384 23.3933 37.2825 23.6276 37.1781 23.8015C37.1255 23.889 37.0849 23.963 37.0567 24.0166C37.0426 24.0435 37.0315 24.0654 37.0235 24.0814L37.0139 24.1011L37.0108 24.1076L37.0097 24.1099L37.0093 24.1108L37.0091 24.1112C37.009 24.1114 37.0089 24.1116 37.5676 24.3737L37.0089 24.1116L36.9775 24.1786L36.9628 24.2511C36.7452 25.3244 36.0446 26.6532 35.3556 27.7577C35.0173 28.3 34.6933 28.7704 34.4538 29.1051C34.3343 29.2723 34.2361 29.4051 34.1684 29.4956C34.1556 29.5126 34.1439 29.5282 34.1333 29.5422C33.5475 29.9084 33.2365 30.3417 33.0865 30.7348C33.009 30.9377 32.9792 31.1177 32.9701 31.2546C32.9655 31.323 32.966 31.3809 32.9683 31.4261C32.9692 31.444 32.9704 31.46 32.9717 31.4738L33.2523 39.4261L33.2526 39.4332L33.253 39.4402C33.2807 39.914 33.4451 40.299 33.7016 40.5932C33.9509 40.8792 34.2586 41.0474 34.5307 41.1474C34.8028 41.2473 35.0631 41.2879 35.2496 41.3047C35.3444 41.3132 35.4243 41.316 35.4825 41.3165C35.5117 41.3168 35.5358 41.3165 35.5538 41.3161L35.5681 41.3157H36.6027C36.5669 41.3652 36.5276 41.4141 36.4843 41.4614C36.314 41.6474 36.0783 41.8136 35.7382 41.8952C35.3935 41.9779 34.9005 41.9834 34.2054 41.7771L34.0053 41.7177L33.8324 41.7836C33.8252 41.7849 33.8125 41.7867 33.7949 41.7876C33.7481 41.79 33.6611 41.7859 33.5453 41.7372C33.3279 41.6458 32.8939 41.3454 32.4594 40.3261C32.4577 40.3134 32.4559 40.2991 32.4538 40.2831C32.4434 40.2014 32.4283 40.0772 32.4102 39.9114C32.3739 39.5796 32.3256 39.0811 32.2784 38.4209C32.1841 37.1005 32.0942 35.1336 32.1142 32.5618L32.1146 32.5076L32.1058 32.4555L32.1058 32.4553L32.1057 32.4549L32.1056 32.4545L32.1055 32.4541L32.1053 32.4527L32.1026 32.4345C32.1001 32.4171 32.0964 32.3892 32.0921 32.3521C32.0836 32.2778 32.0733 32.1674 32.0671 32.0307C32.0546 31.7551 32.0596 31.3832 32.1258 30.9891C32.2597 30.1916 32.6195 29.4106 33.4767 29.0291L33.5182 29.0106L33.5565 28.9863L33.2258 28.4653C33.5565 28.9863 33.5566 28.9862 33.5568 28.9861L33.5572 28.9858L33.5581 28.9853L33.56 28.984L33.5647 28.981L33.5773 28.9727C33.587 28.9662 33.5994 28.9577 33.614 28.9473C33.6429 28.9267 33.6815 28.8978 33.725 28.8617C33.8077 28.793 33.9279 28.6817 34.0297 28.5347C34.1286 28.3917 34.2482 28.1593 34.232 27.8675C34.2144 27.5509 34.0456 27.2931 33.812 27.1064L33.7092 27.0243L33.5819 26.9913L32.2775 26.6526C32.2352 26.6071 32.196 26.5525 32.1726 26.4961C32.1509 26.4439 32.1427 26.3919 32.1573 26.3278C32.1728 26.2596 32.2259 26.1266 32.4152 25.9379L32.5028 25.8506L32.5296 25.7857C32.5319 25.7841 32.5347 25.7823 32.538 25.7804C32.5535 25.7715 32.6971 25.6904 33.0998 25.803L33.1542 25.8182L33.2035 25.8226L33.2112 25.8237C33.2228 25.8255 33.2444 25.8294 33.2735 25.8363C33.3326 25.8504 33.4174 25.8762 33.5106 25.9211C33.693 26.0091 33.8989 26.1647 34.0274 26.4581L34.6841 27.9588L35.1806 26.3981L35.1806 26.398L35.1806 26.3979L35.1807 26.3978L35.1811 26.3964L35.1837 26.3885L35.1952 26.3536C35.2057 26.3222 35.2218 26.2749 35.2432 26.2139C35.2862 26.0918 35.3508 25.9151 35.4357 25.7011C35.6061 25.2717 35.8557 24.6986 36.1742 24.1167C36.4945 23.5313 36.8731 22.9582 37.2954 22.5144C37.722 22.066 38.1478 21.7971 38.559 21.7247L38.5701 21.7228L38.5805 21.7205L38.5806 21.7205L38.5808 21.7205L38.581 21.7204L38.5815 21.7203L38.588 21.719L38.619 21.7128C38.6477 21.7072 38.6926 21.6986 38.7538 21.6877C38.8761 21.6658 39.0635 21.6345 39.317 21.5979C39.8241 21.5249 40.5956 21.4311 41.6398 21.3513C43.7282 21.1916 46.9077 21.0874 51.2439 21.3157L51.2687 21.317L51.2926 21.3163L51.2928 21.3163L51.2929 21.3163L51.2931 21.3163L51.2934 21.3163L51.2964 21.3163L51.3158 21.316C51.334 21.3159 51.3624 21.3158 51.4 21.3163C51.4751 21.3172 51.5859 21.3203 51.7227 21.329C51.9979 21.3465 52.3705 21.3863 52.7657 21.4741C53.5948 21.6583 54.3447 22.013 54.6732 22.6211L54.6732 22.6211L54.6767 22.6275L56.4858 25.8841L56.7589 26.3758L56.2599 26.2383L57.7831 27.8458L57.7832 27.8458L57.7832 27.8458L57.7833 27.846L57.7839 27.8465L57.7879 27.8508L57.806 27.8703C57.8223 27.888 57.8471 27.915 57.8789 27.9504C57.9426 28.0214 58.0346 28.1259 58.1449 28.2573C58.3662 28.5209 58.6577 28.8886 58.9416 29.3074C59.2271 29.7284 59.4952 30.187 59.6789 30.6332C59.8659 31.0875 59.9433 31.4766 59.9095 31.7786L59.9047 31.8213L59.9059 31.8644L60.1069 39.0874ZM58.8884 25.7491C58.9992 25.7848 59.1095 25.8532 59.2025 26.0209C59.2072 26.0622 59.2122 26.1176 59.2145 26.1815C59.2201 26.3379 59.2085 26.5087 59.1651 26.6471C59.1235 26.7796 59.0713 26.8301 59.0247 26.8541C58.9718 26.8813 58.8012 26.9385 58.3952 26.8266L56.859 26.4034L57.341 26.1146L57.3413 26.1144L57.3417 26.1141L57.342 26.114L57.3423 26.1138L57.3426 26.1136L57.354 26.1071C57.3652 26.1007 57.3833 26.0906 57.4076 26.0776C57.4562 26.0515 57.5285 26.0146 57.6179 25.974C57.8 25.8912 58.0369 25.8006 58.2804 25.7504C58.5298 25.699 58.7368 25.7004 58.8884 25.7491Z" fill="white" stroke="white" stroke-width="1.23413"/>
<path d="M39.8596 38.6032V38.6032L39.8691 38.6031L39.8596 37.9861C39.8691 38.6031 39.8692 38.6031 39.8693 38.6031L39.8696 38.6031L39.8711 38.6031L39.877 38.603L39.9002 38.6026L39.9906 38.6012L40.3342 38.5959L41.562 38.577L45.3013 38.5196C46.6656 38.4987 48.0362 38.4778 49.0782 38.4622C49.5992 38.4544 50.038 38.4478 50.3528 38.4433L50.7264 38.438L50.833 38.4366L50.8638 38.4362C50.8722 38.4362 50.8751 38.4362 50.8749 38.4362C50.8817 38.4362 50.8895 38.4361 50.8983 38.4361C51.0349 38.4356 51.4058 38.4343 51.7548 38.522C52.1752 38.6275 52.2244 38.7625 52.2297 38.8287L52.2315 38.8515L52.2335 38.8642C52.2336 38.8657 52.2337 38.8679 52.2339 38.8705C52.2347 38.8835 52.2353 38.907 52.2331 38.937C52.2285 38.9999 52.2132 39.0726 52.1785 39.1384C52.1388 39.2137 51.9897 39.4566 51.2769 39.4566L51.2719 39.4566L40.9401 39.5401L40.8995 39.5405L40.8623 39.5457L40.8589 39.5461C40.8538 39.5467 40.8438 39.5477 40.8296 39.5489C40.8011 39.5513 40.7564 39.554 40.7002 39.5545C40.5857 39.5555 40.4345 39.5471 40.2786 39.5128C40.0046 39.4525 39.7759 39.3313 39.6428 39.0882C39.6432 39.0749 39.6438 39.0597 39.6449 39.0384C39.6496 38.9439 39.6602 38.8455 39.6846 38.7591C39.7096 38.6706 39.7376 38.6356 39.7481 38.6257C39.7515 38.6225 39.7555 38.6193 39.7652 38.6157C39.7759 38.6117 39.8042 38.6032 39.8596 38.6032Z" fill="white" stroke="white" stroke-width="1.23413"/>
<path d="M41.0253 34.9692V34.9693L41.0341 34.9692L41.0253 34.3522C41.0341 34.9692 41.0341 34.9692 41.0342 34.9692L41.0345 34.9692L41.0357 34.9691L41.0405 34.9691L41.0593 34.9688L41.133 34.9678L41.4128 34.9638L42.4128 34.9496L45.4612 34.9065C46.5743 34.8909 47.6936 34.8752 48.5471 34.8635L49.594 34.8493L49.9037 34.8453L49.9935 34.8443L50.0199 34.844L50.0278 34.844C50.0295 34.844 50.0303 34.844 50.0305 34.844L50.0305 34.844C50.0392 34.844 50.0489 34.8439 50.0595 34.8439C50.1942 34.8434 50.4808 34.8423 50.7437 34.9087C50.8847 34.9443 50.9668 34.9875 51.0048 35.019C51.0218 35.0331 51.0218 35.0341 51.022 35.0445C51.0221 35.046 51.0221 35.0478 51.0222 35.0499L51.0238 35.0822L51.0267 35.1014C51.0271 35.1081 51.0274 35.1218 51.0262 35.1398C51.0233 35.1801 51.0138 35.2224 50.9956 35.2574C50.9954 35.2578 50.9952 35.2583 50.9948 35.259C50.9846 35.2803 50.9044 35.4469 50.3923 35.4469V35.4469L50.3862 35.447L41.9439 35.5305L41.9044 35.5308L41.8689 35.5358C41.8688 35.5358 41.8686 35.5358 41.8683 35.5358C41.8653 35.5362 41.8585 35.5369 41.8483 35.5377C41.8278 35.5393 41.7946 35.5413 41.7525 35.5415C41.666 35.542 41.5529 35.5351 41.4376 35.509C41.2161 35.459 41.053 35.3602 40.9686 35.1594C40.9673 35.1138 40.9716 35.0573 40.9842 35.0089C40.9888 34.9913 40.9934 34.9788 40.997 34.9705C41.0039 34.9698 41.0132 34.9692 41.0253 34.9692ZM40.9803 34.9736C40.9803 34.9736 40.9809 34.9733 40.9824 34.9729C40.9811 34.9734 40.9804 34.9736 40.9803 34.9736Z" fill="white" stroke="white" stroke-width="1.23413"/>
<path d="M38.1565 34.0163C38.1565 34.989 37.4031 35.7374 36.5223 35.7374C35.6415 35.7374 34.8881 34.989 34.8881 34.0163C34.8881 33.0436 35.6415 32.2953 36.5223 32.2953C37.4031 32.2953 38.1565 33.0436 38.1565 34.0163Z" fill="white" stroke="white" stroke-width="1.23413"/>
<path d="M56.6892 34.1443C56.6892 35.117 55.9358 35.8653 55.055 35.8653C54.1742 35.8653 53.4208 35.117 53.4208 34.1443C53.4208 33.1715 54.1742 32.4232 55.055 32.4232C55.9358 32.4232 56.6892 33.1715 56.6892 34.1443Z" fill="white" stroke="white" stroke-width="1.23413"/>
<path d="M54.035 26.3714C54.1661 26.516 54.2228 26.6481 54.2452 26.757L37.9156 26.6807L38.9595 24.5709C39.0637 24.382 39.2689 24.2386 39.5161 24.1393C39.6342 24.0918 39.7445 24.0615 39.8248 24.0435C39.8609 24.0353 39.8898 24.0299 39.9092 24.0266L51.9384 23.8606C52.3382 23.896 52.4872 24.0194 52.5317 24.0642C52.5508 24.0834 52.5616 24.0992 52.5671 24.1086L52.5829 24.1907L52.651 24.2936L53.9777 26.2976L54.0035 26.3367L54.035 26.3714Z" fill="white" stroke="white" stroke-width="1.23413"/>
</svg>
