<svg width="74" height="74" viewBox="0 0 74 74" fill="none" xmlns="http://www.w3.org/2000/svg">
<circle cx="36.6801" cy="36.6801" r="35.9315" fill="#B22234" stroke="white" stroke-width="1.49715"/>
<path d="M53.2691 34.6717L53.2692 34.6718L53.2744 34.6656C53.6626 34.2075 54.3702 33.1744 54.0729 31.8519C53.9486 31.2987 53.6572 30.7333 53.1426 30.1672C53.987 30.673 54.6636 31.3056 54.9642 32.0787C55.2566 32.8309 55.2308 33.8159 54.4566 35.1248L41.0715 55.2081L38.709 55.073L52.3536 35.853C52.354 35.8525 52.3544 35.8519 52.3548 35.8514C52.647 35.4467 52.9605 35.0242 53.2691 34.6717Z" fill="white" stroke="white"/>
<path d="M19.9598 30.4759C20.0455 30.4334 20.1405 30.387 20.243 30.3379C20.039 30.5461 19.8484 30.7696 19.681 31.0081L19.6808 31.008L19.6741 31.0181C18.9738 32.0687 18.9795 33.4678 19.6694 34.5426L19.6768 34.5541L19.6848 34.5652C19.7647 34.6758 19.8491 34.8209 19.9504 34.9963L19.9631 35.0183L19.978 35.0389C20.064 35.158 20.1447 35.2871 20.2359 35.4334L20.2398 35.4398C20.3268 35.5794 20.4239 35.7353 20.5316 35.8845C20.5317 35.8845 20.5317 35.8846 20.5318 35.8847L34.5559 55.348L32.8039 55.532L19.1022 36.3583L19.1016 36.3573L19.0834 36.3288C19.067 36.3026 19.0422 36.2623 19.0112 36.2093C18.9491 36.1032 18.8625 35.9469 18.7675 35.7517C18.5766 35.3591 18.3579 34.8203 18.2345 34.2222C18.1109 33.6234 18.0874 32.9871 18.2626 32.3843C18.4329 31.7982 18.7991 31.2139 19.5064 30.7068L19.5108 30.7045C19.5323 30.6932 19.5644 30.6764 19.6059 30.6548C19.6891 30.6118 19.8101 30.55 19.9598 30.4759Z" fill="white" stroke="white"/>
<path d="M36.3894 52.7169L36.0653 48.6905L37.0168 48.6079L37.3408 52.6343L36.3894 52.7169Z" fill="white" stroke="white"/>
<path d="M35.9187 44.576L35.8195 40.5364L36.4806 40.5189L36.5799 44.5585L35.9187 44.576Z" fill="white" stroke="white"/>
<path d="M35.4626 37.641L35.3634 33.6014L36.0246 33.5839L36.1238 37.6234L35.4626 37.641Z" fill="white" stroke="white"/>
<path d="M22.6313 26.9335L25.9214 25.7832" stroke="white" stroke-width="0.1" stroke-miterlimit="10"/>
<path d="M20.2534 25.7848L27.0616 23.146" stroke="white" stroke-width="0.1" stroke-miterlimit="10"/>
<path d="M49.1149 28.1516L47.6165 27.272" stroke="white" stroke-width="0.1" stroke-miterlimit="10"/>
<path d="M50.0921 26.5631L46.802 24.6348" stroke="white" stroke-width="0.1" stroke-miterlimit="10"/>
<path d="M47.9961 31.5499L47.9965 31.5648L47.9976 31.5781L47.9977 31.5783L47.9977 31.5788L47.9977 31.5792L47.9978 31.5796L47.9978 31.5807L47.9989 31.5976C47.9998 31.614 48.001 31.6401 48.0018 31.6747C48.0032 31.744 48.0027 31.846 47.9944 31.9699C47.9777 32.2204 47.9299 32.5463 47.811 32.8683C47.6926 33.1891 47.5098 33.4903 47.2313 33.7178C46.9611 33.9386 46.5699 34.1155 45.9851 34.1479C45.977 34.1474 45.9656 34.1467 45.9513 34.1454C45.9136 34.1422 45.8571 34.1358 45.7888 34.1235C45.649 34.0985 45.4753 34.0516 45.3141 33.9679C45.1547 33.8852 45.0222 33.7744 44.935 33.6252C44.8908 33.5498 44.8518 33.4536 44.83 33.3293L45.5743 33.2896C45.9617 33.3408 46.3029 33.2857 46.5815 33.1142C46.8709 32.9361 47.0275 32.6726 47.1103 32.439C47.192 32.2087 47.2118 31.9825 47.2144 31.8252C47.2157 31.7443 47.2124 31.6756 47.2087 31.6257C47.2069 31.6012 47.2049 31.5809 47.2032 31.5655L47.0098 25.9067C47.0955 25.1284 46.8605 24.5526 46.585 24.1692C46.4477 23.9783 46.3035 23.839 46.1913 23.7459C46.1428 23.7056 46.0997 23.6735 46.0649 23.6492C46.0273 23.6 45.9679 23.5161 45.8858 23.3918C45.7779 23.2286 45.6457 23.0191 45.4974 22.7778C45.201 22.2957 44.8469 21.6979 44.5056 21.1134C44.1645 20.5294 43.8375 19.9609 43.5957 19.5382C43.4748 19.327 43.3753 19.1523 43.306 19.0304L43.2258 18.8894L43.2049 18.8524L43.1996 18.843L43.1982 18.8406L43.1979 18.8401L43.1978 18.8399L42.7627 19.0862L43.1978 18.8399L43.181 18.8102L43.1603 18.783C42.7885 18.2952 42.3604 18.0334 42.0171 17.895C41.8466 17.8263 41.6978 17.7883 41.5876 17.7672C41.5324 17.7567 41.4865 17.7503 41.452 17.7465C41.4347 17.7446 41.4202 17.7433 41.4087 17.7424L41.3938 17.7414L41.3881 17.7411L41.3857 17.7409L41.3846 17.7409L41.3841 17.7409C41.3838 17.7409 41.3836 17.7408 41.3619 18.2404L41.3836 17.7408L41.3768 17.7406C39.0851 17.6726 36.5842 17.6897 34.659 17.7235C33.6957 17.7405 32.8753 17.7617 32.2955 17.7787C32.0056 17.7871 31.7758 17.7946 31.6184 17.7999L31.438 17.8061L31.3913 17.8078L31.384 17.8081C30.6493 17.8122 30.1109 18.2742 29.7941 18.6408C29.628 18.8331 29.5017 19.0229 29.417 19.1638C29.3744 19.2348 29.3415 19.2947 29.3187 19.3382C29.3072 19.3599 29.2983 19.3776 29.2918 19.3907L29.284 19.4066L29.2815 19.4118L29.2806 19.4137L29.2803 19.4145L29.2801 19.4148C29.28 19.415 29.28 19.4151 29.7326 19.6275L29.28 19.4151L29.2545 19.4694L29.2426 19.5281C29.0663 20.3978 28.4986 21.4745 27.9403 22.3695C27.6662 22.8089 27.4036 23.1901 27.2096 23.4613C27.1127 23.5968 27.0332 23.7044 26.9783 23.7777C26.968 23.7915 26.9585 23.8041 26.9499 23.8155C26.4752 24.1122 26.2232 24.4633 26.1016 24.7818C26.0389 24.9463 26.0148 25.0921 26.0073 25.203C26.0036 25.2585 26.004 25.3054 26.0059 25.342C26.0066 25.3565 26.0076 25.3694 26.0087 25.3807L26.2361 31.8243L26.2359 31.8243L26.2366 31.8358C26.259 32.2196 26.3922 32.5316 26.6001 32.77C26.8021 33.0018 27.0514 33.1381 27.2719 33.219C27.4924 33.3 27.7033 33.3329 27.8544 33.3465C27.9313 33.3534 27.996 33.3557 28.0432 33.3561C28.0668 33.3563 28.0863 33.3561 28.1009 33.3558L28.1125 33.3554H28.9508C28.9218 33.3956 28.8899 33.4352 28.8549 33.4735C28.7168 33.6242 28.5259 33.7589 28.2504 33.825C27.971 33.892 27.5715 33.8964 27.0083 33.7293L26.8461 33.6812L26.7061 33.7345C26.7003 33.7356 26.6899 33.7371 26.6757 33.7378C26.6378 33.7398 26.5673 33.7364 26.4735 33.697C26.2973 33.6229 25.9456 33.3795 25.5935 32.5536C25.5922 32.5433 25.5907 32.5317 25.589 32.5188C25.5806 32.4525 25.5683 32.3519 25.5536 32.2175C25.5243 31.9487 25.4851 31.5447 25.4469 31.0098C25.3705 29.9399 25.2976 28.3461 25.3138 26.2622L25.3141 26.2183L25.307 26.1761L25.307 26.176L25.3069 26.1756L25.3069 26.1753L25.3068 26.175L25.3066 26.1738L25.3044 26.1591C25.3024 26.145 25.2994 26.1224 25.2959 26.0923C25.289 26.0321 25.2807 25.9427 25.2756 25.8319C25.2655 25.6086 25.2696 25.3073 25.3232 24.9879C25.4317 24.3417 25.7233 23.7088 26.4179 23.3997L26.4514 23.3847L26.4825 23.3651L26.2145 22.9429C26.4825 23.3651 26.4826 23.365 26.4828 23.3649L26.4831 23.3646L26.4838 23.3642L26.4854 23.3632L26.4892 23.3607L26.4993 23.354C26.5072 23.3487 26.5173 23.3418 26.5291 23.3334C26.5525 23.3167 26.5838 23.2933 26.6191 23.264C26.686 23.2084 26.7834 23.1183 26.8659 22.9991C26.9461 22.8832 27.043 22.6949 27.0299 22.4584C27.0156 22.202 26.8788 21.9931 26.6895 21.8418L26.6062 21.7753L26.5031 21.7485L25.4461 21.4741C25.4119 21.4372 25.3801 21.393 25.3611 21.3472C25.3436 21.3049 25.3369 21.2629 25.3487 21.2109C25.3613 21.1556 25.4044 21.0479 25.5577 20.895L25.6287 20.8242L25.6504 20.7716C25.6523 20.7703 25.6545 20.7689 25.6572 20.7673C25.6698 20.7601 25.7862 20.6944 26.1125 20.7856L26.1566 20.7979L26.1965 20.8015L26.2027 20.8024C26.2121 20.8039 26.2296 20.807 26.2532 20.8126C26.3011 20.824 26.3698 20.8449 26.4453 20.8813C26.5931 20.9526 26.76 21.0787 26.864 21.3165L27.3962 22.5324L27.7985 21.2678L27.7985 21.2677L27.7985 21.2677L27.7986 21.2676L27.7989 21.2665L27.801 21.26L27.8103 21.2318C27.8188 21.2064 27.8319 21.168 27.8493 21.1186C27.8841 21.0197 27.9364 20.8765 28.0052 20.7031C28.1433 20.3551 28.3455 19.8908 28.6036 19.4192C28.8632 18.9449 29.1699 18.4805 29.5121 18.1209C29.8578 17.7576 30.2028 17.5397 30.536 17.4811L30.5449 17.4795L30.5534 17.4777L30.5535 17.4777L30.5536 17.4776L30.5538 17.4776L30.5542 17.4775L30.5594 17.4764L30.5846 17.4714C30.6079 17.4668 30.6443 17.4599 30.6938 17.451C30.7929 17.4333 30.9448 17.4079 31.1502 17.3783C31.5611 17.3191 32.1862 17.2432 33.0323 17.1785C34.7246 17.0491 37.3009 16.9647 40.8144 17.1496L40.8345 17.1507L40.8539 17.1501L40.8541 17.1501L40.8541 17.1501L40.8543 17.1501L40.8546 17.1501L40.857 17.1501L40.8727 17.1499C40.8874 17.1498 40.9105 17.1497 40.9409 17.1501C41.0017 17.1508 41.0915 17.1534 41.2024 17.1604C41.4254 17.1746 41.7273 17.2069 42.0475 17.278C42.7193 17.4272 43.327 17.7146 43.5932 18.2074L43.5931 18.2074L43.596 18.2125L45.0619 20.8514L45.2832 21.2498L44.8789 21.1384L46.1131 22.4409L46.1131 22.4409L46.1132 22.4409L46.1133 22.441L46.1137 22.4415L46.117 22.445L46.1316 22.4607C46.1449 22.4751 46.1649 22.497 46.1907 22.5257C46.2424 22.5832 46.3169 22.6679 46.4063 22.7743C46.5856 22.9879 46.8218 23.2859 47.0518 23.6252C47.2831 23.9664 47.5004 24.3379 47.6492 24.6995C47.8007 25.0676 47.8635 25.3829 47.8361 25.6276L47.8322 25.6623L47.8332 25.6971L47.9961 31.5499ZM47.0087 20.742C47.0984 20.7709 47.1878 20.8263 47.2632 20.9622C47.2671 20.9957 47.2711 21.0405 47.2729 21.0923C47.2775 21.2191 47.2681 21.3575 47.2329 21.4696C47.1992 21.577 47.1569 21.6179 47.1191 21.6373C47.0763 21.6594 46.9381 21.7057 46.609 21.6151L45.3643 21.2721L45.7549 21.0381L45.7551 21.038L45.7555 21.0378L45.7557 21.0376L45.756 21.0375L45.7562 21.0374L45.7654 21.032C45.7745 21.0269 45.7892 21.0187 45.8088 21.0081C45.8482 20.987 45.9068 20.9571 45.9792 20.9242C46.1268 20.8571 46.3187 20.7837 46.516 20.743C46.7181 20.7014 46.8859 20.7025 47.0087 20.742Z" fill="white" stroke="white"/>
<path d="M31.5898 31.1575V31.1576L31.5976 31.1574L31.5898 30.6575C31.5976 31.1574 31.5976 31.1574 31.5977 31.1574L31.598 31.1574L31.5992 31.1574L31.6039 31.1573L31.6227 31.157L31.696 31.1559L31.9744 31.1516L32.9692 31.1363L35.9992 31.0898C37.1047 31.0729 38.2152 31.0559 39.0596 31.0433L40.0924 31.0279L40.3951 31.0236L40.4815 31.0225L40.5064 31.0222C40.5133 31.0222 40.5156 31.0222 40.5154 31.0222C40.5209 31.0222 40.5272 31.0222 40.5343 31.0221C40.6451 31.0217 40.9456 31.0207 41.2284 31.0917C41.569 31.1772 41.6089 31.2866 41.6132 31.3403L41.6147 31.3587L41.6163 31.369C41.6164 31.3702 41.6165 31.372 41.6166 31.3741C41.6172 31.3846 41.6177 31.4037 41.6159 31.428C41.6122 31.479 41.5999 31.5379 41.5717 31.5912C41.5395 31.6522 41.4187 31.8491 40.8411 31.849L40.8371 31.8491L32.4653 31.9167L32.4324 31.917L32.4023 31.9212L32.3996 31.9215C32.3954 31.922 32.3873 31.9229 32.3758 31.9238C32.3527 31.9257 32.3165 31.928 32.271 31.9284C32.1782 31.9292 32.0557 31.9223 31.9293 31.8946C31.7073 31.8457 31.522 31.7475 31.4141 31.5506C31.4145 31.5397 31.415 31.5274 31.4158 31.5102C31.4196 31.4336 31.4283 31.3539 31.448 31.2839C31.4683 31.2121 31.4909 31.1837 31.4994 31.1758C31.5022 31.1732 31.5055 31.1706 31.5133 31.1676C31.522 31.1644 31.545 31.1575 31.5898 31.1575Z" fill="white" stroke="white"/>
<path d="M32.5344 28.2131V28.2132L32.5415 28.2131L32.5344 27.7131L32.5416 28.2131L32.5419 28.213L32.5428 28.213L32.5467 28.213L32.562 28.2128L32.6217 28.2119L32.8484 28.2087L33.6587 28.1972L36.1288 28.1623C37.0307 28.1496 37.9376 28.1369 38.6293 28.1274L39.4775 28.1159L39.7285 28.1127L39.8012 28.1119L39.8227 28.1117L39.829 28.1116C39.8307 28.1116 39.8313 28.1116 39.8312 28.1116C39.8382 28.1116 39.8461 28.1116 39.8547 28.1115C39.9639 28.1111 40.1961 28.1102 40.4091 28.164C40.5234 28.1929 40.5899 28.2279 40.6207 28.2535C40.6345 28.2649 40.6345 28.2656 40.6347 28.2741C40.6347 28.2753 40.6347 28.2768 40.6348 28.2784L40.6361 28.3046L40.6385 28.3202C40.6388 28.3256 40.639 28.3367 40.638 28.3513C40.6357 28.384 40.628 28.4182 40.6132 28.4466C40.6131 28.4469 40.6129 28.4473 40.6126 28.4479C40.6043 28.4651 40.5394 28.6002 40.1244 28.6002V28.6002L40.1194 28.6002L33.2787 28.6679L33.2467 28.6682L33.218 28.6722C33.2179 28.6722 33.2177 28.6722 33.2175 28.6722C33.2151 28.6725 33.2095 28.6731 33.2013 28.6737C33.1846 28.675 33.1578 28.6766 33.1236 28.6768C33.0536 28.6772 32.9619 28.6716 32.8685 28.6505C32.689 28.61 32.5568 28.5299 32.4885 28.3672C32.4874 28.3302 32.4909 28.2845 32.5011 28.2452C32.5048 28.231 32.5085 28.2209 32.5115 28.2141C32.517 28.2136 32.5246 28.2131 32.5344 28.2131ZM32.498 28.2167C32.4979 28.2166 32.4985 28.2164 32.4997 28.2161L32.498 28.2167Z" fill="white" stroke="white"/>
<path d="M30.2099 27.4409C30.2099 28.2291 29.5994 28.8355 28.8857 28.8355C28.1721 28.8355 27.5615 28.2291 27.5615 27.4409C27.5615 26.6527 28.1721 26.0464 28.8857 26.0464C29.5994 26.0464 30.2099 26.6527 30.2099 27.4409Z" fill="white" stroke="white"/>
<path d="M45.227 27.5444C45.227 28.3326 44.6165 28.939 43.9028 28.939C43.1891 28.939 42.5786 28.3326 42.5786 27.5444C42.5786 26.7563 43.1891 26.1499 43.9028 26.1499C44.6165 26.1499 45.227 26.7563 45.227 27.5444Z" fill="white" stroke="white"/>
<path d="M43.076 21.2462C43.1822 21.3634 43.2282 21.4704 43.2463 21.5587L30.0146 21.4968L30.8605 19.7873C30.9449 19.6342 31.1112 19.518 31.3115 19.4375C31.4072 19.3991 31.4966 19.3746 31.5616 19.3599C31.5909 19.3533 31.6143 19.3489 31.63 19.3462L41.3771 19.2117C41.7011 19.2404 41.8218 19.3404 41.8579 19.3767C41.8734 19.3922 41.8821 19.4051 41.8866 19.4126L41.8994 19.4792L41.9546 19.5625L43.0295 21.1864L43.0505 21.2181L43.076 21.2462Z" fill="white" stroke="white"/>
</svg>
