<svg width="319" height="92" viewBox="0 0 319 92" fill="none" xmlns="http://www.w3.org/2000/svg">
<rect width="318.743" height="91.3412" rx="19.0294" fill="#B22234"/>
<mask id="path-2-inside-1_2_277" fill="white">
<path d="M92.6733 62.4531C92.4022 62.4531 92.226 62.3176 92.1447 62.0465L83.6055 34.5585L83.5649 34.3958C83.5649 34.1247 83.714 33.9892 84.0121 33.9892H88.0378C88.336 33.9892 88.5257 34.1247 88.607 34.3958L94.7065 55.6218C94.7336 55.7031 94.7742 55.7438 94.8284 55.7438C94.8827 55.7438 94.9233 55.7031 94.9504 55.6218L101.009 34.3958C101.091 34.1247 101.28 33.9892 101.578 33.9892H105.523C105.685 33.9892 105.807 34.0434 105.889 34.1518C105.97 34.2603 105.984 34.3958 105.929 34.5585L97.2682 62.0465C97.1869 62.3176 97.0107 62.4531 96.7396 62.4531H92.6733ZM112.368 38.8281C111.528 38.8281 110.837 38.557 110.295 38.0148C109.752 37.4726 109.481 36.7814 109.481 35.941C109.481 35.1006 109.752 34.4094 110.295 33.8672C110.837 33.325 111.528 33.0539 112.368 33.0539C113.209 33.0539 113.9 33.325 114.442 33.8672C114.984 34.4094 115.255 35.1006 115.255 35.941C115.255 36.7814 114.984 37.4726 114.442 38.0148C113.9 38.557 113.209 38.8281 112.368 38.8281ZM110.417 62.4531C110.281 62.4531 110.159 62.4125 110.051 62.3312C109.969 62.2227 109.929 62.1007 109.929 61.9652V42.1217C109.929 41.9862 109.969 41.8778 110.051 41.7964C110.159 41.688 110.281 41.6338 110.417 41.6338H114.158C114.293 41.6338 114.402 41.688 114.483 41.7964C114.591 41.8778 114.646 41.9862 114.646 42.1217V61.9652C114.646 62.1007 114.591 62.2227 114.483 62.3312C114.402 62.4125 114.293 62.4531 114.158 62.4531H110.417ZM127.775 62.6971C126.067 62.6971 124.562 62.4531 123.261 61.9652C121.987 61.4501 120.998 60.7589 120.293 59.8914C119.588 58.9968 119.236 58.0073 119.236 56.923V56.557C119.236 56.4215 119.276 56.3131 119.358 56.2317C119.466 56.1233 119.588 56.0691 119.724 56.0691H123.302C123.437 56.0691 123.546 56.1233 123.627 56.2317C123.736 56.3131 123.79 56.4215 123.79 56.557V56.6384C123.79 57.3161 124.156 57.9125 124.888 58.4275C125.647 58.9155 126.596 59.1595 127.734 59.1595C128.819 59.1595 129.7 58.9426 130.377 58.5088C131.055 58.048 131.394 57.4787 131.394 56.801C131.394 56.1775 131.109 55.7167 130.54 55.4185C129.998 55.0932 129.103 54.7543 127.856 54.4019L126.311 53.914C124.928 53.5073 123.763 53.0736 122.814 52.6127C121.865 52.1519 121.065 51.5284 120.415 50.7423C119.764 49.929 119.439 48.8989 119.439 47.6519C119.439 45.7543 120.184 44.2498 121.675 43.1383C123.166 41.9998 125.132 41.4305 127.572 41.4305C129.225 41.4305 130.675 41.7016 131.922 42.2437C133.169 42.7588 134.132 43.4907 134.81 44.4395C135.487 45.3612 135.826 46.4184 135.826 47.6112C135.826 47.7468 135.772 47.8688 135.663 47.9772C135.582 48.0585 135.474 48.0992 135.338 48.0992H131.882C131.746 48.0992 131.624 48.0585 131.516 47.9772C131.434 47.8688 131.394 47.7468 131.394 47.6112C131.394 46.9064 131.041 46.3236 130.337 45.8627C129.659 45.3748 128.724 45.1308 127.531 45.1308C126.474 45.1308 125.606 45.3341 124.928 45.7407C124.278 46.1202 123.953 46.6624 123.953 47.3672C123.953 48.0178 124.264 48.5194 124.888 48.8718C125.538 49.1971 126.609 49.563 128.1 49.9697L128.995 50.2136C130.431 50.6474 131.638 51.0947 132.614 51.5555C133.59 51.9892 134.416 52.6127 135.094 53.426C135.772 54.2121 136.111 55.2423 136.111 56.5164C136.111 58.4411 135.352 59.9592 133.834 61.0706C132.316 62.1549 130.296 62.6971 127.775 62.6971ZM142.786 38.8281C141.946 38.8281 141.254 38.557 140.712 38.0148C140.17 37.4726 139.899 36.7814 139.899 35.941C139.899 35.1006 140.17 34.4094 140.712 33.8672C141.254 33.325 141.946 33.0539 142.786 33.0539C143.626 33.0539 144.318 33.325 144.86 33.8672C145.402 34.4094 145.673 35.1006 145.673 35.941C145.673 36.7814 145.402 37.4726 144.86 38.0148C144.318 38.557 143.626 38.8281 142.786 38.8281ZM140.834 62.4531C140.699 62.4531 140.577 62.4125 140.468 62.3312C140.387 62.2227 140.346 62.1007 140.346 61.9652V42.1217C140.346 41.9862 140.387 41.8778 140.468 41.7964C140.577 41.688 140.699 41.6338 140.834 41.6338H144.575C144.711 41.6338 144.819 41.688 144.901 41.7964C145.009 41.8778 145.063 41.9862 145.063 42.1217V61.9652C145.063 62.1007 145.009 62.2227 144.901 62.3312C144.819 62.4125 144.711 62.4531 144.575 62.4531H140.834ZM167.992 47.0419C168.453 48.56 168.684 50.2136 168.684 52.0028C168.684 53.9275 168.426 55.6218 167.911 57.0857C167.315 58.8748 166.352 60.2709 165.024 61.2739C163.696 62.2769 162.069 62.7784 160.144 62.7784C158.247 62.7784 156.688 62.0601 155.468 60.6233C155.414 60.542 155.36 60.5149 155.305 60.542C155.251 60.5691 155.224 60.6233 155.224 60.7046V61.9652C155.224 62.1007 155.17 62.2227 155.061 62.3312C154.98 62.4125 154.872 62.4531 154.736 62.4531H150.995C150.86 62.4531 150.738 62.4125 150.629 62.3312C150.548 62.2227 150.507 62.1007 150.507 61.9652V34.4771C150.507 34.3416 150.548 34.2332 150.629 34.1518C150.738 34.0434 150.86 33.9892 150.995 33.9892H154.736C154.872 33.9892 154.98 34.0434 155.061 34.1518C155.17 34.2332 155.224 34.3416 155.224 34.4771V43.301C155.224 43.3823 155.251 43.4365 155.305 43.4636C155.36 43.4907 155.414 43.4772 155.468 43.423C156.634 42.0404 158.179 41.3491 160.104 41.3491C162.11 41.3491 163.763 41.8507 165.065 42.8537C166.393 43.8567 167.369 45.2528 167.992 47.0419ZM162.869 56.7603C163.519 55.6218 163.845 54.063 163.845 52.0841C163.845 49.9697 163.438 48.316 162.625 47.1233C161.893 45.9847 160.808 45.4154 159.372 45.4154C158.043 45.4154 157.027 46.0118 156.322 47.2046C155.644 48.316 155.305 49.929 155.305 52.0435C155.305 54.1308 155.617 55.7031 156.241 56.7603C156.946 58.0616 158.003 58.7122 159.412 58.7122C160.171 58.7122 160.849 58.5495 161.446 58.2242C162.042 57.8718 162.516 57.3838 162.869 56.7603ZM173.669 62.4531C173.533 62.4531 173.411 62.4125 173.303 62.3312C173.221 62.2227 173.181 62.1007 173.181 61.9652V34.4771C173.181 34.3416 173.221 34.2332 173.303 34.1518C173.411 34.0434 173.533 33.9892 173.669 33.9892H177.41C177.545 33.9892 177.653 34.0434 177.735 34.1518C177.843 34.2332 177.897 34.3416 177.897 34.4771V61.9652C177.897 62.1007 177.843 62.2227 177.735 62.3312C177.653 62.4125 177.545 62.4531 177.41 62.4531H173.669ZM200.435 49.7257C200.544 50.4034 200.598 51.1624 200.598 52.0028L200.557 53.2633C200.557 53.5887 200.394 53.7513 200.069 53.7513H187.342C187.206 53.7513 187.138 53.8191 187.138 53.9546C187.22 54.8492 187.342 55.4591 187.504 55.7844C188.155 57.7363 189.741 58.7257 192.262 58.7528C194.105 58.7528 195.569 57.9938 196.653 56.4757C196.762 56.3131 196.897 56.2317 197.06 56.2317C197.169 56.2317 197.263 56.2724 197.345 56.3537L199.866 58.4275C200.11 58.6173 200.15 58.8342 199.988 59.0781C199.147 60.2709 198.022 61.1926 196.613 61.8432C195.23 62.4938 193.685 62.8191 191.977 62.8191C189.863 62.8191 188.06 62.3447 186.569 61.3959C185.105 60.4471 184.034 59.1188 183.357 57.411C182.733 55.9471 182.422 53.914 182.422 51.3115C182.422 49.7392 182.584 48.4651 182.909 47.4892C183.452 45.5916 184.468 44.1007 185.959 43.0163C187.477 41.9049 189.294 41.3491 191.408 41.3491C196.748 41.3491 199.757 44.1413 200.435 49.7257ZM191.408 45.4154C190.405 45.4154 189.565 45.673 188.887 46.188C188.236 46.676 187.775 47.3672 187.504 48.2618C187.342 48.7227 187.233 49.3191 187.179 50.051C187.125 50.1865 187.179 50.2543 187.342 50.2543H195.596C195.732 50.2543 195.8 50.1865 195.8 50.051C195.745 49.3733 195.664 48.8582 195.556 48.5058C195.312 47.5299 194.824 46.7709 194.092 46.2287C193.387 45.6865 192.492 45.4154 191.408 45.4154ZM216.782 33.9485C218.49 33.9485 219.995 34.3009 221.296 35.0058C222.597 35.7106 223.6 36.7136 224.305 38.0148C225.037 39.2889 225.403 40.7663 225.403 42.447C225.403 44.1007 225.037 45.5645 224.305 46.8386C223.573 48.1127 222.529 49.1022 221.174 49.807C219.845 50.4847 218.3 50.8236 216.538 50.8236H210.032C209.897 50.8236 209.829 50.8914 209.829 51.0269V61.9652C209.829 62.1007 209.775 62.2227 209.666 62.3312C209.585 62.4125 209.476 62.4531 209.341 62.4531H205.6C205.464 62.4531 205.342 62.4125 205.234 62.3312C205.153 62.2227 205.112 62.1007 205.112 61.9652V34.4365C205.112 34.3009 205.153 34.1925 205.234 34.1112C205.342 34.0027 205.464 33.9485 205.6 33.9485H216.782ZM216.091 47.0013C217.473 47.0013 218.585 46.5946 219.425 45.7814C220.266 44.9681 220.686 43.8973 220.686 42.569C220.686 41.2136 220.266 40.1157 219.425 39.2753C218.585 38.435 217.473 38.0148 216.091 38.0148H210.032C209.897 38.0148 209.829 38.0826 209.829 38.2181V46.798C209.829 46.9335 209.897 47.0013 210.032 47.0013H216.091ZM236.783 41.3491C238.491 41.3491 239.995 41.6473 241.296 42.2437C242.598 42.8401 243.601 43.6669 244.306 44.7242C245.01 45.7543 245.363 46.9335 245.363 48.2618V61.9652C245.363 62.1007 245.309 62.2227 245.2 62.3312C245.119 62.4125 245.01 62.4531 244.875 62.4531H241.134C240.998 62.4531 240.876 62.4125 240.768 62.3312C240.687 62.2227 240.646 62.1007 240.646 61.9652V60.664C240.646 60.5827 240.619 60.542 240.565 60.542C240.51 60.5149 240.456 60.5284 240.402 60.5827C239.074 62.0465 237.149 62.7784 234.628 62.7784C232.595 62.7784 230.914 62.2634 229.586 61.2333C228.284 60.2031 227.634 58.6715 227.634 56.6384C227.634 54.5239 228.366 52.8838 229.83 51.7182C231.321 50.5254 233.408 49.929 236.092 49.929H240.443C240.578 49.929 240.646 49.8612 240.646 49.7257V48.7498C240.646 47.6925 240.334 46.8793 239.711 46.31C239.087 45.7136 238.152 45.4154 236.905 45.4154C235.875 45.4154 235.034 45.6052 234.384 45.9847C233.76 46.3371 233.367 46.8386 233.205 47.4892C233.123 47.8145 232.933 47.9501 232.635 47.8959L228.691 47.4079C228.555 47.3808 228.433 47.3401 228.325 47.2859C228.244 47.2046 228.217 47.1097 228.244 47.0013C228.461 45.3477 229.342 43.9922 230.887 42.935C232.459 41.8778 234.424 41.3491 236.783 41.3491ZM235.807 59.0375C237.135 59.0375 238.274 58.6851 239.223 57.9802C240.171 57.2754 240.646 56.3808 240.646 55.2965V53.3853C240.646 53.2498 240.578 53.182 240.443 53.182H237.027C235.59 53.182 234.452 53.4531 233.611 53.9953C232.798 54.5374 232.391 55.31 232.391 56.3131C232.391 57.1805 232.703 57.8582 233.327 58.3462C233.977 58.807 234.804 59.0375 235.807 59.0375ZM260.8 45.0088C260.8 45.1443 260.746 45.2663 260.638 45.3748C260.556 45.4561 260.448 45.4968 260.312 45.4968H256.165C256.029 45.4968 255.961 45.5645 255.961 45.7001V55.4998C255.961 56.5299 256.178 57.2754 256.612 57.7363C257.073 58.1971 257.791 58.4275 258.767 58.4275H259.987C260.123 58.4275 260.231 58.4817 260.312 58.5902C260.421 58.6715 260.475 58.7799 260.475 58.9155V61.9652C260.475 62.2634 260.312 62.4396 259.987 62.4938L257.873 62.5345C255.731 62.5345 254.132 62.1685 253.074 61.4366C252.017 60.7046 251.475 59.3221 251.448 57.289V45.7001C251.448 45.5645 251.38 45.4968 251.245 45.4968H248.927C248.791 45.4968 248.669 45.4561 248.561 45.3748C248.479 45.2663 248.439 45.1443 248.439 45.0088V42.1624C248.439 42.0269 248.479 41.9184 248.561 41.8371C248.669 41.7287 248.791 41.6744 248.927 41.6744H251.245C251.38 41.6744 251.448 41.6067 251.448 41.4711V36.7136C251.448 36.578 251.489 36.4696 251.57 36.3883C251.678 36.2799 251.8 36.2256 251.936 36.2256H255.473C255.609 36.2256 255.717 36.2799 255.799 36.3883C255.907 36.4696 255.961 36.578 255.961 36.7136V41.4711C255.961 41.6067 256.029 41.6744 256.165 41.6744H260.312C260.448 41.6744 260.556 41.7287 260.638 41.8371C260.746 41.9184 260.8 42.0269 260.8 42.1624V45.0088ZM274.952 41.3491C277.148 41.3491 278.896 41.9998 280.197 43.301C281.526 44.6022 282.19 46.3778 282.19 48.6278V61.9652C282.19 62.1007 282.136 62.2227 282.027 62.3312C281.946 62.4125 281.837 62.4531 281.702 62.4531H277.961C277.825 62.4531 277.703 62.4125 277.595 62.3312C277.514 62.2227 277.473 62.1007 277.473 61.9652V49.6037C277.473 48.3567 277.121 47.3537 276.416 46.5946C275.711 45.8085 274.776 45.4154 273.61 45.4154C272.444 45.4154 271.496 45.7949 270.764 46.554C270.059 47.313 269.706 48.316 269.706 49.563V61.9652C269.706 62.1007 269.652 62.2227 269.544 62.3312C269.462 62.4125 269.354 62.4531 269.218 62.4531H265.477C265.342 62.4531 265.22 62.4125 265.112 62.3312C265.03 62.2227 264.99 62.1007 264.99 61.9652V34.4771C264.99 34.3416 265.03 34.2332 265.112 34.1518C265.22 34.0434 265.342 33.9892 265.477 33.9892H269.218C269.354 33.9892 269.462 34.0434 269.544 34.1518C269.652 34.2332 269.706 34.3416 269.706 34.4771V43.4636C269.706 43.5449 269.734 43.5992 269.788 43.6263C269.842 43.6534 269.883 43.6263 269.91 43.5449C271.021 42.0811 272.702 41.3491 274.952 41.3491ZM294.834 62.6971C293.126 62.6971 291.621 62.4531 290.32 61.9652C289.046 61.4501 288.057 60.7589 287.352 59.8914C286.647 58.9968 286.295 58.0073 286.295 56.923V56.557C286.295 56.4215 286.335 56.3131 286.417 56.2317C286.525 56.1233 286.647 56.0691 286.783 56.0691H290.361C290.496 56.0691 290.605 56.1233 290.686 56.2317C290.795 56.3131 290.849 56.4215 290.849 56.557V56.6384C290.849 57.3161 291.215 57.9125 291.947 58.4275C292.706 58.9155 293.655 59.1595 294.793 59.1595C295.877 59.1595 296.759 58.9426 297.436 58.5088C298.114 58.048 298.453 57.4787 298.453 56.801C298.453 56.1775 298.168 55.7167 297.599 55.4185C297.057 55.0932 296.162 54.7543 294.915 54.4019L293.37 53.914C291.987 53.5073 290.822 53.0736 289.873 52.6127C288.924 52.1519 288.124 51.5284 287.474 50.7423C286.823 49.929 286.498 48.8989 286.498 47.6519C286.498 45.7543 287.243 44.2498 288.734 43.1383C290.225 41.9998 292.191 41.4305 294.631 41.4305C296.284 41.4305 297.734 41.7016 298.981 42.2437C300.228 42.7588 301.191 43.4907 301.868 44.4395C302.546 45.3612 302.885 46.4184 302.885 47.6112C302.885 47.7468 302.831 47.8688 302.722 47.9772C302.641 48.0585 302.533 48.0992 302.397 48.0992H298.941C298.805 48.0992 298.683 48.0585 298.575 47.9772C298.493 47.8688 298.453 47.7468 298.453 47.6112C298.453 46.9064 298.1 46.3236 297.396 45.8627C296.718 45.3748 295.783 45.1308 294.59 45.1308C293.533 45.1308 292.665 45.3341 291.987 45.7407C291.337 46.1202 291.012 46.6624 291.012 47.3672C291.012 48.0178 291.323 48.5194 291.947 48.8718C292.597 49.1971 293.668 49.563 295.159 49.9697L296.054 50.2136C297.49 50.6474 298.697 51.0947 299.673 51.5555C300.649 51.9892 301.475 52.6127 302.153 53.426C302.831 54.2121 303.17 55.2423 303.17 56.5164C303.17 58.4411 302.411 59.9592 300.893 61.0706C299.374 62.1549 297.355 62.6971 294.834 62.6971Z"/>
</mask>
<path d="M92.6733 62.4531C92.4022 62.4531 92.226 62.3176 92.1447 62.0465L83.6055 34.5585L83.5649 34.3958C83.5649 34.1247 83.714 33.9892 84.0121 33.9892H88.0378C88.336 33.9892 88.5257 34.1247 88.607 34.3958L94.7065 55.6218C94.7336 55.7031 94.7742 55.7438 94.8284 55.7438C94.8827 55.7438 94.9233 55.7031 94.9504 55.6218L101.009 34.3958C101.091 34.1247 101.28 33.9892 101.578 33.9892H105.523C105.685 33.9892 105.807 34.0434 105.889 34.1518C105.97 34.2603 105.984 34.3958 105.929 34.5585L97.2682 62.0465C97.1869 62.3176 97.0107 62.4531 96.7396 62.4531H92.6733ZM112.368 38.8281C111.528 38.8281 110.837 38.557 110.295 38.0148C109.752 37.4726 109.481 36.7814 109.481 35.941C109.481 35.1006 109.752 34.4094 110.295 33.8672C110.837 33.325 111.528 33.0539 112.368 33.0539C113.209 33.0539 113.9 33.325 114.442 33.8672C114.984 34.4094 115.255 35.1006 115.255 35.941C115.255 36.7814 114.984 37.4726 114.442 38.0148C113.9 38.557 113.209 38.8281 112.368 38.8281ZM110.417 62.4531C110.281 62.4531 110.159 62.4125 110.051 62.3312C109.969 62.2227 109.929 62.1007 109.929 61.9652V42.1217C109.929 41.9862 109.969 41.8778 110.051 41.7964C110.159 41.688 110.281 41.6338 110.417 41.6338H114.158C114.293 41.6338 114.402 41.688 114.483 41.7964C114.591 41.8778 114.646 41.9862 114.646 42.1217V61.9652C114.646 62.1007 114.591 62.2227 114.483 62.3312C114.402 62.4125 114.293 62.4531 114.158 62.4531H110.417ZM127.775 62.6971C126.067 62.6971 124.562 62.4531 123.261 61.9652C121.987 61.4501 120.998 60.7589 120.293 59.8914C119.588 58.9968 119.236 58.0073 119.236 56.923V56.557C119.236 56.4215 119.276 56.3131 119.358 56.2317C119.466 56.1233 119.588 56.0691 119.724 56.0691H123.302C123.437 56.0691 123.546 56.1233 123.627 56.2317C123.736 56.3131 123.79 56.4215 123.79 56.557V56.6384C123.79 57.3161 124.156 57.9125 124.888 58.4275C125.647 58.9155 126.596 59.1595 127.734 59.1595C128.819 59.1595 129.7 58.9426 130.377 58.5088C131.055 58.048 131.394 57.4787 131.394 56.801C131.394 56.1775 131.109 55.7167 130.54 55.4185C129.998 55.0932 129.103 54.7543 127.856 54.4019L126.311 53.914C124.928 53.5073 123.763 53.0736 122.814 52.6127C121.865 52.1519 121.065 51.5284 120.415 50.7423C119.764 49.929 119.439 48.8989 119.439 47.6519C119.439 45.7543 120.184 44.2498 121.675 43.1383C123.166 41.9998 125.132 41.4305 127.572 41.4305C129.225 41.4305 130.675 41.7016 131.922 42.2437C133.169 42.7588 134.132 43.4907 134.81 44.4395C135.487 45.3612 135.826 46.4184 135.826 47.6112C135.826 47.7468 135.772 47.8688 135.663 47.9772C135.582 48.0585 135.474 48.0992 135.338 48.0992H131.882C131.746 48.0992 131.624 48.0585 131.516 47.9772C131.434 47.8688 131.394 47.7468 131.394 47.6112C131.394 46.9064 131.041 46.3236 130.337 45.8627C129.659 45.3748 128.724 45.1308 127.531 45.1308C126.474 45.1308 125.606 45.3341 124.928 45.7407C124.278 46.1202 123.953 46.6624 123.953 47.3672C123.953 48.0178 124.264 48.5194 124.888 48.8718C125.538 49.1971 126.609 49.563 128.1 49.9697L128.995 50.2136C130.431 50.6474 131.638 51.0947 132.614 51.5555C133.59 51.9892 134.416 52.6127 135.094 53.426C135.772 54.2121 136.111 55.2423 136.111 56.5164C136.111 58.4411 135.352 59.9592 133.834 61.0706C132.316 62.1549 130.296 62.6971 127.775 62.6971ZM142.786 38.8281C141.946 38.8281 141.254 38.557 140.712 38.0148C140.17 37.4726 139.899 36.7814 139.899 35.941C139.899 35.1006 140.17 34.4094 140.712 33.8672C141.254 33.325 141.946 33.0539 142.786 33.0539C143.626 33.0539 144.318 33.325 144.86 33.8672C145.402 34.4094 145.673 35.1006 145.673 35.941C145.673 36.7814 145.402 37.4726 144.86 38.0148C144.318 38.557 143.626 38.8281 142.786 38.8281ZM140.834 62.4531C140.699 62.4531 140.577 62.4125 140.468 62.3312C140.387 62.2227 140.346 62.1007 140.346 61.9652V42.1217C140.346 41.9862 140.387 41.8778 140.468 41.7964C140.577 41.688 140.699 41.6338 140.834 41.6338H144.575C144.711 41.6338 144.819 41.688 144.901 41.7964C145.009 41.8778 145.063 41.9862 145.063 42.1217V61.9652C145.063 62.1007 145.009 62.2227 144.901 62.3312C144.819 62.4125 144.711 62.4531 144.575 62.4531H140.834ZM167.992 47.0419C168.453 48.56 168.684 50.2136 168.684 52.0028C168.684 53.9275 168.426 55.6218 167.911 57.0857C167.315 58.8748 166.352 60.2709 165.024 61.2739C163.696 62.2769 162.069 62.7784 160.144 62.7784C158.247 62.7784 156.688 62.0601 155.468 60.6233C155.414 60.542 155.36 60.5149 155.305 60.542C155.251 60.5691 155.224 60.6233 155.224 60.7046V61.9652C155.224 62.1007 155.17 62.2227 155.061 62.3312C154.98 62.4125 154.872 62.4531 154.736 62.4531H150.995C150.86 62.4531 150.738 62.4125 150.629 62.3312C150.548 62.2227 150.507 62.1007 150.507 61.9652V34.4771C150.507 34.3416 150.548 34.2332 150.629 34.1518C150.738 34.0434 150.86 33.9892 150.995 33.9892H154.736C154.872 33.9892 154.98 34.0434 155.061 34.1518C155.17 34.2332 155.224 34.3416 155.224 34.4771V43.301C155.224 43.3823 155.251 43.4365 155.305 43.4636C155.36 43.4907 155.414 43.4772 155.468 43.423C156.634 42.0404 158.179 41.3491 160.104 41.3491C162.11 41.3491 163.763 41.8507 165.065 42.8537C166.393 43.8567 167.369 45.2528 167.992 47.0419ZM162.869 56.7603C163.519 55.6218 163.845 54.063 163.845 52.0841C163.845 49.9697 163.438 48.316 162.625 47.1233C161.893 45.9847 160.808 45.4154 159.372 45.4154C158.043 45.4154 157.027 46.0118 156.322 47.2046C155.644 48.316 155.305 49.929 155.305 52.0435C155.305 54.1308 155.617 55.7031 156.241 56.7603C156.946 58.0616 158.003 58.7122 159.412 58.7122C160.171 58.7122 160.849 58.5495 161.446 58.2242C162.042 57.8718 162.516 57.3838 162.869 56.7603ZM173.669 62.4531C173.533 62.4531 173.411 62.4125 173.303 62.3312C173.221 62.2227 173.181 62.1007 173.181 61.9652V34.4771C173.181 34.3416 173.221 34.2332 173.303 34.1518C173.411 34.0434 173.533 33.9892 173.669 33.9892H177.41C177.545 33.9892 177.653 34.0434 177.735 34.1518C177.843 34.2332 177.897 34.3416 177.897 34.4771V61.9652C177.897 62.1007 177.843 62.2227 177.735 62.3312C177.653 62.4125 177.545 62.4531 177.41 62.4531H173.669ZM200.435 49.7257C200.544 50.4034 200.598 51.1624 200.598 52.0028L200.557 53.2633C200.557 53.5887 200.394 53.7513 200.069 53.7513H187.342C187.206 53.7513 187.138 53.8191 187.138 53.9546C187.22 54.8492 187.342 55.4591 187.504 55.7844C188.155 57.7363 189.741 58.7257 192.262 58.7528C194.105 58.7528 195.569 57.9938 196.653 56.4757C196.762 56.3131 196.897 56.2317 197.06 56.2317C197.169 56.2317 197.263 56.2724 197.345 56.3537L199.866 58.4275C200.11 58.6173 200.15 58.8342 199.988 59.0781C199.147 60.2709 198.022 61.1926 196.613 61.8432C195.23 62.4938 193.685 62.8191 191.977 62.8191C189.863 62.8191 188.06 62.3447 186.569 61.3959C185.105 60.4471 184.034 59.1188 183.357 57.411C182.733 55.9471 182.422 53.914 182.422 51.3115C182.422 49.7392 182.584 48.4651 182.909 47.4892C183.452 45.5916 184.468 44.1007 185.959 43.0163C187.477 41.9049 189.294 41.3491 191.408 41.3491C196.748 41.3491 199.757 44.1413 200.435 49.7257ZM191.408 45.4154C190.405 45.4154 189.565 45.673 188.887 46.188C188.236 46.676 187.775 47.3672 187.504 48.2618C187.342 48.7227 187.233 49.3191 187.179 50.051C187.125 50.1865 187.179 50.2543 187.342 50.2543H195.596C195.732 50.2543 195.8 50.1865 195.8 50.051C195.745 49.3733 195.664 48.8582 195.556 48.5058C195.312 47.5299 194.824 46.7709 194.092 46.2287C193.387 45.6865 192.492 45.4154 191.408 45.4154ZM216.782 33.9485C218.49 33.9485 219.995 34.3009 221.296 35.0058C222.597 35.7106 223.6 36.7136 224.305 38.0148C225.037 39.2889 225.403 40.7663 225.403 42.447C225.403 44.1007 225.037 45.5645 224.305 46.8386C223.573 48.1127 222.529 49.1022 221.174 49.807C219.845 50.4847 218.3 50.8236 216.538 50.8236H210.032C209.897 50.8236 209.829 50.8914 209.829 51.0269V61.9652C209.829 62.1007 209.775 62.2227 209.666 62.3312C209.585 62.4125 209.476 62.4531 209.341 62.4531H205.6C205.464 62.4531 205.342 62.4125 205.234 62.3312C205.153 62.2227 205.112 62.1007 205.112 61.9652V34.4365C205.112 34.3009 205.153 34.1925 205.234 34.1112C205.342 34.0027 205.464 33.9485 205.6 33.9485H216.782ZM216.091 47.0013C217.473 47.0013 218.585 46.5946 219.425 45.7814C220.266 44.9681 220.686 43.8973 220.686 42.569C220.686 41.2136 220.266 40.1157 219.425 39.2753C218.585 38.435 217.473 38.0148 216.091 38.0148H210.032C209.897 38.0148 209.829 38.0826 209.829 38.2181V46.798C209.829 46.9335 209.897 47.0013 210.032 47.0013H216.091ZM236.783 41.3491C238.491 41.3491 239.995 41.6473 241.296 42.2437C242.598 42.8401 243.601 43.6669 244.306 44.7242C245.01 45.7543 245.363 46.9335 245.363 48.2618V61.9652C245.363 62.1007 245.309 62.2227 245.2 62.3312C245.119 62.4125 245.01 62.4531 244.875 62.4531H241.134C240.998 62.4531 240.876 62.4125 240.768 62.3312C240.687 62.2227 240.646 62.1007 240.646 61.9652V60.664C240.646 60.5827 240.619 60.542 240.565 60.542C240.51 60.5149 240.456 60.5284 240.402 60.5827C239.074 62.0465 237.149 62.7784 234.628 62.7784C232.595 62.7784 230.914 62.2634 229.586 61.2333C228.284 60.2031 227.634 58.6715 227.634 56.6384C227.634 54.5239 228.366 52.8838 229.83 51.7182C231.321 50.5254 233.408 49.929 236.092 49.929H240.443C240.578 49.929 240.646 49.8612 240.646 49.7257V48.7498C240.646 47.6925 240.334 46.8793 239.711 46.31C239.087 45.7136 238.152 45.4154 236.905 45.4154C235.875 45.4154 235.034 45.6052 234.384 45.9847C233.76 46.3371 233.367 46.8386 233.205 47.4892C233.123 47.8145 232.933 47.9501 232.635 47.8959L228.691 47.4079C228.555 47.3808 228.433 47.3401 228.325 47.2859C228.244 47.2046 228.217 47.1097 228.244 47.0013C228.461 45.3477 229.342 43.9922 230.887 42.935C232.459 41.8778 234.424 41.3491 236.783 41.3491ZM235.807 59.0375C237.135 59.0375 238.274 58.6851 239.223 57.9802C240.171 57.2754 240.646 56.3808 240.646 55.2965V53.3853C240.646 53.2498 240.578 53.182 240.443 53.182H237.027C235.59 53.182 234.452 53.4531 233.611 53.9953C232.798 54.5374 232.391 55.31 232.391 56.3131C232.391 57.1805 232.703 57.8582 233.327 58.3462C233.977 58.807 234.804 59.0375 235.807 59.0375ZM260.8 45.0088C260.8 45.1443 260.746 45.2663 260.638 45.3748C260.556 45.4561 260.448 45.4968 260.312 45.4968H256.165C256.029 45.4968 255.961 45.5645 255.961 45.7001V55.4998C255.961 56.5299 256.178 57.2754 256.612 57.7363C257.073 58.1971 257.791 58.4275 258.767 58.4275H259.987C260.123 58.4275 260.231 58.4817 260.312 58.5902C260.421 58.6715 260.475 58.7799 260.475 58.9155V61.9652C260.475 62.2634 260.312 62.4396 259.987 62.4938L257.873 62.5345C255.731 62.5345 254.132 62.1685 253.074 61.4366C252.017 60.7046 251.475 59.3221 251.448 57.289V45.7001C251.448 45.5645 251.38 45.4968 251.245 45.4968H248.927C248.791 45.4968 248.669 45.4561 248.561 45.3748C248.479 45.2663 248.439 45.1443 248.439 45.0088V42.1624C248.439 42.0269 248.479 41.9184 248.561 41.8371C248.669 41.7287 248.791 41.6744 248.927 41.6744H251.245C251.38 41.6744 251.448 41.6067 251.448 41.4711V36.7136C251.448 36.578 251.489 36.4696 251.57 36.3883C251.678 36.2799 251.8 36.2256 251.936 36.2256H255.473C255.609 36.2256 255.717 36.2799 255.799 36.3883C255.907 36.4696 255.961 36.578 255.961 36.7136V41.4711C255.961 41.6067 256.029 41.6744 256.165 41.6744H260.312C260.448 41.6744 260.556 41.7287 260.638 41.8371C260.746 41.9184 260.8 42.0269 260.8 42.1624V45.0088ZM274.952 41.3491C277.148 41.3491 278.896 41.9998 280.197 43.301C281.526 44.6022 282.19 46.3778 282.19 48.6278V61.9652C282.19 62.1007 282.136 62.2227 282.027 62.3312C281.946 62.4125 281.837 62.4531 281.702 62.4531H277.961C277.825 62.4531 277.703 62.4125 277.595 62.3312C277.514 62.2227 277.473 62.1007 277.473 61.9652V49.6037C277.473 48.3567 277.121 47.3537 276.416 46.5946C275.711 45.8085 274.776 45.4154 273.61 45.4154C272.444 45.4154 271.496 45.7949 270.764 46.554C270.059 47.313 269.706 48.316 269.706 49.563V61.9652C269.706 62.1007 269.652 62.2227 269.544 62.3312C269.462 62.4125 269.354 62.4531 269.218 62.4531H265.477C265.342 62.4531 265.22 62.4125 265.112 62.3312C265.03 62.2227 264.99 62.1007 264.99 61.9652V34.4771C264.99 34.3416 265.03 34.2332 265.112 34.1518C265.22 34.0434 265.342 33.9892 265.477 33.9892H269.218C269.354 33.9892 269.462 34.0434 269.544 34.1518C269.652 34.2332 269.706 34.3416 269.706 34.4771V43.4636C269.706 43.5449 269.734 43.5992 269.788 43.6263C269.842 43.6534 269.883 43.6263 269.91 43.5449C271.021 42.0811 272.702 41.3491 274.952 41.3491ZM294.834 62.6971C293.126 62.6971 291.621 62.4531 290.32 61.9652C289.046 61.4501 288.057 60.7589 287.352 59.8914C286.647 58.9968 286.295 58.0073 286.295 56.923V56.557C286.295 56.4215 286.335 56.3131 286.417 56.2317C286.525 56.1233 286.647 56.0691 286.783 56.0691H290.361C290.496 56.0691 290.605 56.1233 290.686 56.2317C290.795 56.3131 290.849 56.4215 290.849 56.557V56.6384C290.849 57.3161 291.215 57.9125 291.947 58.4275C292.706 58.9155 293.655 59.1595 294.793 59.1595C295.877 59.1595 296.759 58.9426 297.436 58.5088C298.114 58.048 298.453 57.4787 298.453 56.801C298.453 56.1775 298.168 55.7167 297.599 55.4185C297.057 55.0932 296.162 54.7543 294.915 54.4019L293.37 53.914C291.987 53.5073 290.822 53.0736 289.873 52.6127C288.924 52.1519 288.124 51.5284 287.474 50.7423C286.823 49.929 286.498 48.8989 286.498 47.6519C286.498 45.7543 287.243 44.2498 288.734 43.1383C290.225 41.9998 292.191 41.4305 294.631 41.4305C296.284 41.4305 297.734 41.7016 298.981 42.2437C300.228 42.7588 301.191 43.4907 301.868 44.4395C302.546 45.3612 302.885 46.4184 302.885 47.6112C302.885 47.7468 302.831 47.8688 302.722 47.9772C302.641 48.0585 302.533 48.0992 302.397 48.0992H298.941C298.805 48.0992 298.683 48.0585 298.575 47.9772C298.493 47.8688 298.453 47.7468 298.453 47.6112C298.453 46.9064 298.1 46.3236 297.396 45.8627C296.718 45.3748 295.783 45.1308 294.59 45.1308C293.533 45.1308 292.665 45.3341 291.987 45.7407C291.337 46.1202 291.012 46.6624 291.012 47.3672C291.012 48.0178 291.323 48.5194 291.947 48.8718C292.597 49.1971 293.668 49.563 295.159 49.9697L296.054 50.2136C297.49 50.6474 298.697 51.0947 299.673 51.5555C300.649 51.9892 301.475 52.6127 302.153 53.426C302.831 54.2121 303.17 55.2423 303.17 56.5164C303.17 58.4411 302.411 59.9592 300.893 61.0706C299.374 62.1549 297.355 62.6971 294.834 62.6971Z" fill="white"/>
<path d="M92.1447 62.0465L92.9466 61.8059L92.9442 61.7982L92.1447 62.0465ZM83.6055 34.5585L82.7934 34.7615L82.7991 34.7843L82.8061 34.8068L83.6055 34.5585ZM83.5649 34.3958H82.7277V34.4989L82.7527 34.5988L83.5649 34.3958ZM88.607 34.3958L89.4117 34.1646L89.4089 34.1553L88.607 34.3958ZM94.7065 55.6218L93.9019 55.853L93.9067 55.8699L93.9123 55.8865L94.7065 55.6218ZM94.9504 55.6218L95.7446 55.8865L95.7504 55.8692L95.7554 55.8516L94.9504 55.6218ZM101.009 34.3958L100.207 34.1552L100.204 34.166L101.009 34.3958ZM105.889 34.1518L106.558 33.6495L106.558 33.6495L105.889 34.1518ZM105.929 34.5585L105.135 34.2937L105.131 34.3069L105.929 34.5585ZM97.2682 62.0465L96.4697 61.7949L96.4664 61.806L97.2682 62.0465ZM92.6733 61.616C92.6808 61.616 92.7602 61.6202 92.8483 61.6879C92.933 61.7532 92.9506 61.8195 92.9465 61.806L91.3429 62.2871C91.4201 62.5446 91.5665 62.8143 91.8274 63.015C92.0917 63.2183 92.3947 63.2903 92.6733 63.2903V61.616ZM92.9442 61.7982L84.405 34.3101L82.8061 34.8068L91.3452 62.2949L92.9442 61.7982ZM84.4177 34.3554L84.377 34.1928L82.7527 34.5988L82.7934 34.7615L84.4177 34.3554ZM84.402 34.3958C84.402 34.411 84.3942 34.57 84.2398 34.7103C84.1006 34.8368 83.9734 34.8263 84.0121 34.8263V33.152C83.7527 33.152 83.4019 33.2093 83.1136 33.4714C82.8101 33.7473 82.7277 34.1096 82.7277 34.3958H84.402ZM84.0121 34.8263H88.0378V33.152H84.0121V34.8263ZM88.0378 34.8263C88.0611 34.8263 87.9993 34.8308 87.9171 34.7721C87.8781 34.7442 87.8488 34.7118 87.8292 34.6823C87.8105 34.6542 87.805 34.6357 87.8052 34.6364L89.4089 34.1553C89.3266 33.881 89.1664 33.6068 88.8903 33.4096C88.6184 33.2154 88.3126 33.152 88.0378 33.152V34.8263ZM87.8025 34.627L93.9019 55.853L95.5111 55.3906L89.4116 34.1646L87.8025 34.627ZM93.9123 55.8865C93.9758 56.0772 94.2181 56.5809 94.8284 56.5809V54.9066C95.0379 54.9066 95.2231 54.9952 95.3492 55.1213C95.4548 55.2269 95.4916 55.33 95.5007 55.3571L93.9123 55.8865ZM94.8284 56.5809C95.4388 56.5809 95.6811 56.0772 95.7446 55.8865L94.1562 55.3571C94.1653 55.33 94.2021 55.2269 94.3077 55.1213C94.4338 54.9952 94.619 54.9066 94.8284 54.9066V56.5809ZM95.7554 55.8516L101.814 34.6256L100.204 34.166L94.1454 55.392L95.7554 55.8516ZM101.811 34.6364C101.811 34.6357 101.806 34.6542 101.787 34.6823C101.767 34.7118 101.738 34.7442 101.699 34.7721C101.617 34.8308 101.555 34.8263 101.578 34.8263V33.152C101.304 33.152 100.998 33.2154 100.726 33.4096C100.45 33.6068 100.29 33.881 100.207 34.1553L101.811 34.6364ZM101.578 34.8263H105.523V33.152H101.578V34.8263ZM105.523 34.8263C105.512 34.8263 105.463 34.8245 105.396 34.7948C105.325 34.763 105.263 34.7123 105.219 34.6541L106.558 33.6495C106.287 33.287 105.89 33.152 105.523 33.152V34.8263ZM105.219 34.6541C105.168 34.5855 105.135 34.5015 105.127 34.4181C105.119 34.3422 105.134 34.2964 105.135 34.2937L106.724 34.8232C106.839 34.4773 106.848 34.0358 106.558 33.6495L105.219 34.6541ZM105.131 34.3069L96.4698 61.7949L98.0667 62.2981L106.728 34.81L105.131 34.3069ZM96.4664 61.806C96.4623 61.8195 96.4799 61.7532 96.5647 61.6879C96.6527 61.6202 96.7321 61.616 96.7396 61.616V63.2903C97.0182 63.2903 97.3212 63.2183 97.5855 63.015C97.8465 62.8143 97.9928 62.5446 98.0701 62.2871L96.4664 61.806ZM96.7396 61.616H92.6733V63.2903H96.7396V61.616ZM110.295 38.0148L109.703 38.6068L110.295 38.0148ZM110.295 33.8672L110.887 34.4591L110.887 34.4591L110.295 33.8672ZM114.442 33.8672L113.85 34.4591L113.85 34.4591L114.442 33.8672ZM114.442 38.0148L115.034 38.6068L114.442 38.0148ZM110.051 62.3312L109.381 62.8334L109.453 62.9291L109.548 63.0009L110.051 62.3312ZM110.051 41.7964L109.459 41.2045H109.459L110.051 41.7964ZM114.483 41.7964L113.813 42.2987L113.885 42.3944L113.981 42.4662L114.483 41.7964ZM114.483 62.3312L115.075 62.9231L114.483 62.3312ZM112.368 37.9909C111.727 37.9909 111.256 37.7922 110.887 37.4228L109.703 38.6068C110.418 39.3218 111.329 39.6652 112.368 39.6652V37.9909ZM110.887 37.4228C110.517 37.0535 110.319 36.5828 110.319 35.941H108.644C108.644 36.9799 108.988 37.8918 109.703 38.6068L110.887 37.4228ZM110.319 35.941C110.319 35.2992 110.517 34.8285 110.887 34.4591L109.703 33.2752C108.988 33.9902 108.644 34.9021 108.644 35.941H110.319ZM110.887 34.4591C111.256 34.0898 111.727 33.8911 112.368 33.8911V32.2168C111.329 32.2168 110.418 32.5602 109.703 33.2752L110.887 34.4591ZM112.368 33.8911C113.01 33.8911 113.481 34.0898 113.85 34.4591L115.034 33.2752C114.319 32.5602 113.407 32.2168 112.368 32.2168V33.8911ZM113.85 34.4591C114.22 34.8285 114.418 35.2992 114.418 35.941H116.093C116.093 34.9021 115.749 33.9902 115.034 33.2752L113.85 34.4591ZM114.418 35.941C114.418 36.5828 114.22 37.0535 113.85 37.4228L115.034 38.6068C115.749 37.8918 116.093 36.9799 116.093 35.941H114.418ZM113.85 37.4228C113.481 37.7922 113.01 37.9909 112.368 37.9909V39.6652C113.407 39.6652 114.319 39.3218 115.034 38.6068L113.85 37.4228ZM110.417 61.616C110.434 61.616 110.459 61.6188 110.488 61.6285C110.517 61.6381 110.539 61.651 110.553 61.6614L109.548 63.0009C109.802 63.1909 110.1 63.2903 110.417 63.2903V61.616ZM110.72 61.8289C110.731 61.8427 110.744 61.8647 110.753 61.8936C110.763 61.9225 110.766 61.9479 110.766 61.9652H109.091C109.091 62.2819 109.191 62.5801 109.381 62.8334L110.72 61.8289ZM110.766 61.9652V42.1217H109.091V61.9652H110.766ZM110.766 42.1217C110.766 42.1376 110.763 42.1784 110.743 42.2327C110.722 42.2896 110.687 42.344 110.643 42.3884L109.459 41.2045C109.193 41.4706 109.091 41.8068 109.091 42.1217H110.766ZM110.643 42.3884C110.635 42.3962 110.609 42.4191 110.563 42.4394C110.516 42.4607 110.464 42.4709 110.417 42.4709V40.7966C110.029 40.7966 109.702 40.9615 109.459 41.2045L110.643 42.3884ZM110.417 42.4709H114.158V40.7966H110.417V42.4709ZM114.158 42.4709C114.111 42.4709 114.041 42.4608 113.966 42.4232C113.891 42.3856 113.841 42.3361 113.813 42.2987L115.153 41.2941C114.913 40.9749 114.557 40.7966 114.158 40.7966V42.4709ZM113.981 42.4662C113.943 42.4381 113.894 42.3883 113.856 42.3131C113.819 42.238 113.808 42.1684 113.808 42.1217H115.483C115.483 41.7227 115.304 41.3661 114.985 41.1267L113.981 42.4662ZM113.808 42.1217V61.9652H115.483V42.1217H113.808ZM113.808 61.9652C113.808 61.9177 113.819 61.8661 113.84 61.8183C113.86 61.7726 113.883 61.747 113.891 61.7392L115.075 62.9231C115.318 62.6802 115.483 62.3526 115.483 61.9652H113.808ZM113.891 61.7392C113.935 61.6948 113.99 61.6601 114.047 61.6388C114.101 61.6184 114.142 61.616 114.158 61.616V63.2903C114.472 63.2903 114.809 63.1892 115.075 62.9231L113.891 61.7392ZM114.158 61.616H110.417V63.2903H114.158V61.616ZM123.261 61.9652L122.948 62.7413L122.957 62.7453L122.967 62.749L123.261 61.9652ZM120.293 59.8914L119.635 60.4095L119.643 60.4193L120.293 59.8914ZM119.358 56.2317L118.766 55.6398L119.358 56.2317ZM123.627 56.2317L122.958 56.734L123.029 56.8297L123.125 56.9015L123.627 56.2317ZM124.888 58.4275L124.406 59.1121L124.42 59.1222L124.435 59.1317L124.888 58.4275ZM130.377 58.5089L130.829 59.214L130.838 59.2077L130.848 59.2011L130.377 58.5089ZM130.54 55.4185L130.109 56.1363L130.13 56.1488L130.151 56.16L130.54 55.4185ZM127.856 54.4019L127.604 55.2002L127.616 55.204L127.629 55.2075L127.856 54.4019ZM126.311 53.914L126.563 53.1157L126.555 53.1132L126.547 53.1108L126.311 53.914ZM122.814 52.6127L123.18 51.8597L122.814 52.6127ZM120.415 50.7423L119.761 51.2653L119.77 51.276L120.415 50.7423ZM121.675 43.1383L122.176 43.8095L122.184 43.8036L121.675 43.1383ZM131.922 42.2437L131.589 43.0115L131.596 43.0145L131.603 43.0175L131.922 42.2437ZM134.81 44.4395L134.128 44.9261L134.135 44.9354L134.81 44.4395ZM131.516 47.9772L130.846 48.4795L130.918 48.5751L131.014 48.6469L131.516 47.9772ZM130.337 45.8627L129.847 46.5421L129.863 46.5531L129.878 46.5634L130.337 45.8627ZM124.928 45.7407L125.35 46.4639L125.359 46.4586L124.928 45.7407ZM124.888 48.8718L124.476 49.6006L124.494 49.611L124.513 49.6205L124.888 48.8718ZM128.1 49.9697L127.88 50.7773L128.1 49.9697ZM128.995 50.2136L129.237 49.4122L129.226 49.409L129.215 49.406L128.995 50.2136ZM132.614 51.5555L132.256 52.3125L132.265 52.3166L132.274 52.3205L132.614 51.5555ZM135.094 53.426L134.451 53.962L134.46 53.9726L135.094 53.426ZM133.834 61.0706L134.32 61.7519L134.328 61.7461L133.834 61.0706ZM127.775 61.86C126.145 61.86 124.744 61.627 123.555 61.1813L122.967 62.749C124.381 63.2793 125.989 63.5343 127.775 63.5343V61.86ZM123.575 61.1891C122.402 60.715 121.54 60.0987 120.943 59.3635L119.643 60.4193C120.455 61.4191 121.572 62.1853 122.948 62.7413L123.575 61.1891ZM120.95 59.3733C120.356 58.6184 120.073 57.8095 120.073 56.923H118.399C118.399 58.2052 118.82 59.3752 119.635 60.4095L120.95 59.3733ZM120.073 56.923V56.557H118.399V56.923H120.073ZM120.073 56.557C120.073 56.5729 120.07 56.6137 120.05 56.668C120.029 56.7249 119.994 56.7792 119.95 56.8237L118.766 55.6398C118.5 55.9059 118.399 56.2421 118.399 56.557H120.073ZM119.95 56.8237C119.942 56.8315 119.916 56.8544 119.87 56.8747C119.823 56.896 119.771 56.9062 119.724 56.9062V55.2319C119.336 55.2319 119.009 55.3968 118.766 55.6398L119.95 56.8237ZM119.724 56.9062H123.302V55.2319H119.724V56.9062ZM123.302 56.9062C123.255 56.9062 123.186 56.8961 123.111 56.8585C123.035 56.8209 122.986 56.7714 122.958 56.734L124.297 55.7294C124.058 55.4102 123.701 55.2319 123.302 55.2319V56.9062ZM123.125 56.9015C123.088 56.8734 123.038 56.8236 123 56.7484C122.963 56.6733 122.953 56.6037 122.953 56.557H124.627C124.627 56.158 124.449 55.8014 124.13 55.562L123.125 56.9015ZM122.953 56.557V56.6384H124.627V56.557H122.953ZM122.953 56.6384C122.953 57.6723 123.53 58.4956 124.406 59.1121L125.37 57.7429C124.782 57.3293 124.627 56.9599 124.627 56.6384H122.953ZM124.435 59.1317C125.36 59.7266 126.477 59.9966 127.734 59.9966V58.3223C126.714 58.3223 125.933 58.1043 125.34 57.7233L124.435 59.1317ZM127.734 59.9966C128.924 59.9966 129.977 59.759 130.829 59.214L129.926 57.8037C129.422 58.1261 128.713 58.3223 127.734 58.3223V59.9966ZM130.848 59.2011C131.7 58.6216 132.231 57.8162 132.231 56.801H130.557C130.557 57.1413 130.41 57.4744 129.907 57.8166L130.848 59.2011ZM132.231 56.801C132.231 56.3578 132.128 55.9295 131.893 55.5478C131.658 55.1676 131.321 54.8826 130.928 54.6769L130.151 56.16C130.328 56.2525 130.418 56.347 130.468 56.4277C130.517 56.5069 130.557 56.6207 130.557 56.801H132.231ZM130.971 54.7006C130.328 54.3152 129.344 53.9524 128.084 53.5963L127.629 55.2075C128.862 55.5562 129.667 55.8711 130.109 56.1363L130.971 54.7006ZM128.108 53.6036L126.563 53.1157L126.059 54.7122L127.604 55.2002L128.108 53.6036ZM126.547 53.1108C125.194 52.7129 124.075 52.2945 123.18 51.8597L122.448 53.3658C123.451 53.8527 124.663 54.3018 126.075 54.7171L126.547 53.1108ZM123.18 51.8597C122.335 51.4494 121.632 50.8993 121.06 50.2085L119.77 51.276C120.499 52.1575 121.395 52.8544 122.448 53.3658L123.18 51.8597ZM121.069 50.2193C120.559 49.5823 120.276 48.7477 120.276 47.6519H118.602C118.602 49.0501 118.97 50.2757 119.761 51.2652L121.069 50.2193ZM120.276 47.6519C120.276 46.0123 120.902 44.7592 122.176 43.8095L121.175 42.4671C119.467 43.7403 118.602 45.4963 118.602 47.6519H120.276ZM122.184 43.8036C123.49 42.806 125.26 42.2676 127.572 42.2676V40.5933C125.004 40.5933 122.843 41.1935 121.167 42.473L122.184 43.8036ZM127.572 42.2676C129.135 42.2676 130.467 42.5238 131.589 43.0115L132.256 41.476C130.884 40.8793 129.316 40.5933 127.572 40.5933V42.2676ZM131.603 43.0175C132.728 43.4822 133.555 44.1241 134.128 44.9261L135.491 43.9529C134.708 42.8574 133.611 42.0354 132.242 41.47L131.603 43.0175ZM134.135 44.9354C134.702 45.707 134.989 46.5887 134.989 47.6112H136.663C136.663 46.2481 136.272 45.0154 135.484 43.9436L134.135 44.9354ZM134.989 47.6112C134.989 47.5637 134.999 47.5121 135.02 47.4644C135.041 47.4186 135.064 47.393 135.071 47.3852L136.255 48.5691C136.498 48.3262 136.663 47.9987 136.663 47.6112H134.989ZM135.071 47.3852C135.116 47.3408 135.17 47.3062 135.227 47.2848C135.281 47.2645 135.322 47.262 135.338 47.262V48.9363C135.653 48.9363 135.989 48.8353 136.255 48.5691L135.071 47.3852ZM135.338 47.262H131.882V48.9363H135.338V47.262ZM131.882 47.262C131.899 47.262 131.924 47.2649 131.953 47.2745C131.982 47.2841 132.004 47.2971 132.018 47.3075L131.014 48.6469C131.267 48.8369 131.565 48.9363 131.882 48.9363V47.262ZM132.186 47.4749C132.196 47.4887 132.209 47.5107 132.219 47.5396C132.228 47.5685 132.231 47.5939 132.231 47.6112H130.557C130.557 47.9279 130.656 48.2261 130.846 48.4795L132.186 47.4749ZM132.231 47.6112C132.231 46.5657 131.683 45.7427 130.795 45.1621L129.878 46.5634C130.4 46.9044 130.557 47.2471 130.557 47.6112H132.231ZM130.826 45.1833C129.956 44.5573 128.827 44.2936 127.531 44.2936V45.9679C128.621 45.9679 129.362 46.1922 129.847 46.5421L130.826 45.1833ZM127.531 44.2936C126.372 44.2936 125.342 44.5161 124.498 45.0229L125.359 46.4586C125.87 46.1521 126.576 45.9679 127.531 45.9679V44.2936ZM124.507 45.0176C123.62 45.5346 123.115 46.3405 123.115 47.3672H124.79C124.79 46.9843 124.935 46.7059 125.35 46.4638L124.507 45.0176ZM123.115 47.3672C123.115 48.355 123.622 49.1179 124.476 49.6006L125.3 48.143C124.907 47.9209 124.79 47.6807 124.79 47.3672H123.115ZM124.513 49.6205C125.243 49.9851 126.381 50.3686 127.88 50.7773L128.32 49.162C126.837 48.7575 125.834 48.409 125.262 48.123L124.513 49.6205ZM127.88 50.7773L128.774 51.0213L129.215 49.406L128.32 49.162L127.88 50.7773ZM128.753 51.0151C130.164 51.4411 131.329 51.8746 132.256 52.3125L132.971 50.7985C131.947 50.3147 130.699 49.8537 129.237 49.4122L128.753 51.0151ZM132.274 52.3205C133.133 52.7026 133.856 53.2481 134.451 53.9619L135.737 52.8901C134.977 51.9773 134.046 51.2759 132.954 50.7905L132.274 52.3205ZM134.46 53.9726C134.979 54.5743 135.274 55.3955 135.274 56.5164H136.948C136.948 55.0891 136.565 53.85 135.728 52.8794L134.46 53.9726ZM135.274 56.5164C135.274 58.1814 134.636 59.4456 133.339 60.3951L134.328 61.7461C136.067 60.4727 136.948 58.7007 136.948 56.5164H135.274ZM133.347 60.3894C132.013 61.3422 130.182 61.86 127.775 61.86V63.5343C130.41 63.5343 132.618 62.9677 134.32 61.7518L133.347 60.3894ZM140.712 38.0148L140.12 38.6068L140.712 38.0148ZM140.712 33.8672L141.304 34.4591V34.4591L140.712 33.8672ZM144.86 33.8672L144.268 34.4591V34.4591L144.86 33.8672ZM144.86 38.0148L145.452 38.6068L144.86 38.0148ZM140.468 62.3312L139.799 62.8334L139.87 62.9291L139.966 63.0009L140.468 62.3312ZM140.468 41.7964L139.876 41.2045H139.876L140.468 41.7964ZM144.901 41.7964L144.231 42.2987L144.303 42.3944L144.398 42.4662L144.901 41.7964ZM144.901 62.3312L145.493 62.9231L144.901 62.3312ZM142.786 37.9909C142.144 37.9909 141.674 37.7922 141.304 37.4228L140.12 38.6068C140.835 39.3218 141.747 39.6652 142.786 39.6652V37.9909ZM141.304 37.4228C140.935 37.0535 140.736 36.5828 140.736 35.941H139.062C139.062 36.9799 139.405 37.8918 140.12 38.6068L141.304 37.4228ZM140.736 35.941C140.736 35.2992 140.935 34.8285 141.304 34.4591L140.12 33.2752C139.405 33.9902 139.062 34.9021 139.062 35.941H140.736ZM141.304 34.4591C141.674 34.0898 142.144 33.8911 142.786 33.8911V32.2168C141.747 32.2168 140.835 32.5602 140.12 33.2752L141.304 34.4591ZM142.786 33.8911C143.428 33.8911 143.899 34.0898 144.268 34.4591L145.452 33.2752C144.737 32.5602 143.825 32.2168 142.786 32.2168V33.8911ZM144.268 34.4591C144.637 34.8285 144.836 35.2992 144.836 35.941H146.51C146.51 34.9021 146.167 33.9902 145.452 33.2752L144.268 34.4591ZM144.836 35.941C144.836 36.5828 144.637 37.0535 144.268 37.4228L145.452 38.6068C146.167 37.8918 146.51 36.9799 146.51 35.941H144.836ZM144.268 37.4228C143.899 37.7922 143.428 37.9909 142.786 37.9909V39.6652C143.825 39.6652 144.737 39.3218 145.452 38.6068L144.268 37.4228ZM140.834 61.616C140.852 61.616 140.877 61.6188 140.906 61.6285C140.935 61.6381 140.957 61.651 140.971 61.6614L139.966 63.0009C140.219 63.1909 140.518 63.2903 140.834 63.2903V61.616ZM141.138 61.8289C141.148 61.8427 141.161 61.8647 141.171 61.8936C141.181 61.9225 141.183 61.9479 141.183 61.9652H139.509C139.509 62.2819 139.609 62.5801 139.799 62.8334L141.138 61.8289ZM141.183 61.9652V42.1217H139.509V61.9652H141.183ZM141.183 42.1217C141.183 42.1376 141.181 42.1784 141.161 42.2327C141.139 42.2896 141.105 42.344 141.06 42.3884L139.876 41.2045C139.61 41.4706 139.509 41.8068 139.509 42.1217H141.183ZM141.06 42.3884C141.053 42.3962 141.027 42.4191 140.981 42.4394C140.933 42.4607 140.882 42.4709 140.834 42.4709V40.7966C140.447 40.7966 140.119 40.9615 139.876 41.2045L141.06 42.3884ZM140.834 42.4709H144.575V40.7966H140.834V42.4709ZM144.575 42.4709C144.529 42.4709 144.459 42.4608 144.384 42.4232C144.309 42.3856 144.259 42.3361 144.231 42.2987L145.57 41.2941C145.331 40.9749 144.974 40.7966 144.575 40.7966V42.4709ZM144.398 42.4662C144.361 42.4381 144.311 42.3883 144.274 42.3131C144.236 42.238 144.226 42.1684 144.226 42.1217H145.9C145.9 41.7227 145.722 41.3661 145.403 41.1267L144.398 42.4662ZM144.226 42.1217V61.9652H145.9V42.1217H144.226ZM144.226 61.9652C144.226 61.9177 144.236 61.8661 144.258 61.8183C144.278 61.7726 144.301 61.747 144.309 61.7392L145.493 62.9231C145.735 62.6802 145.9 62.3526 145.9 61.9652H144.226ZM144.309 61.7392C144.353 61.6948 144.407 61.6601 144.464 61.6388C144.519 61.6184 144.559 61.616 144.575 61.616V63.2903C144.89 63.2903 145.226 63.1892 145.493 62.9231L144.309 61.7392ZM144.575 61.616H140.834V63.2903H144.575V61.616ZM167.992 47.0419L168.793 46.7988L168.788 46.7825L168.783 46.7665L167.992 47.0419ZM167.911 57.0857L167.121 56.8078L167.117 56.8209L167.911 57.0857ZM165.024 61.2739L164.519 60.6058L165.024 61.2739ZM155.468 60.6233L154.772 61.0877L154.799 61.1281L154.83 61.1651L155.468 60.6233ZM155.061 62.3312L155.653 62.9231L155.653 62.9231L155.061 62.3312ZM150.629 62.3312L149.96 62.8334L150.031 62.9291L150.127 63.0009L150.629 62.3312ZM150.629 34.1518L150.037 33.5599V33.5599L150.629 34.1518ZM155.061 34.1518L154.392 34.6541L154.464 34.7498L154.559 34.8215L155.061 34.1518ZM155.305 43.4636L154.931 44.2124L154.931 44.2124L155.305 43.4636ZM155.468 43.423L156.06 44.0149L156.085 43.9898L156.108 43.9626L155.468 43.423ZM165.065 42.8537L164.553 43.5167L164.56 43.5218L165.065 42.8537ZM162.869 56.7603L162.142 56.345L162.14 56.3484L162.869 56.7603ZM162.625 47.1233L161.921 47.576L161.927 47.5855L161.933 47.5949L162.625 47.1233ZM156.322 47.2046L157.037 47.6405L157.043 47.6305L156.322 47.2046ZM156.241 56.7603L156.977 56.3616L156.97 56.3482L156.962 56.3351L156.241 56.7603ZM161.446 58.2242L161.846 58.9591L161.859 58.9523L161.871 58.9449L161.446 58.2242ZM167.191 47.2851C167.625 48.715 167.846 50.2857 167.846 52.0028H169.521C169.521 50.1416 169.281 48.405 168.793 46.7988L167.191 47.2851ZM167.846 52.0028C167.846 53.8547 167.598 55.4517 167.121 56.8078L168.701 57.3635C169.254 55.7919 169.521 54.0003 169.521 52.0028H167.846ZM167.117 56.8209C166.567 58.4716 165.695 59.7181 164.519 60.6058L165.528 61.942C167.009 60.8237 168.063 59.2781 168.705 57.3504L167.117 56.8209ZM164.519 60.6058C163.358 61.4825 161.917 61.9413 160.144 61.9413V63.6156C162.221 63.6156 164.033 63.0713 165.528 61.942L164.519 60.6058ZM160.144 61.9413C158.491 61.9413 157.166 61.3294 156.106 60.0815L154.83 61.1651C156.21 62.7907 158.003 63.6156 160.144 63.6156V61.9413ZM156.165 60.159C156.101 60.0638 155.975 59.9003 155.761 59.7932C155.498 59.6618 155.194 59.6618 154.931 59.7932L155.68 61.2908C155.591 61.3352 155.477 61.369 155.346 61.369C155.215 61.369 155.101 61.3352 155.012 61.2908C154.853 61.2108 154.781 61.1015 154.772 61.0877L156.165 60.159ZM154.931 59.7932C154.496 60.011 154.387 60.4326 154.387 60.7046H156.061C156.061 60.7516 156.054 60.8555 155.993 60.9774C155.926 61.1123 155.815 61.2233 155.68 61.2908L154.931 59.7932ZM154.387 60.7046V61.9652H156.061V60.7046H154.387ZM154.387 61.9652C154.387 61.9177 154.397 61.8661 154.418 61.8183C154.439 61.7726 154.462 61.747 154.47 61.7392L155.653 62.9231C155.896 62.6801 156.061 62.3526 156.061 61.9652H154.387ZM154.47 61.7392C154.514 61.6948 154.568 61.6601 154.625 61.6388C154.68 61.6184 154.72 61.616 154.736 61.616V63.2903C155.051 63.2903 155.387 63.1892 155.653 62.9231L154.47 61.7392ZM154.736 61.616H150.995V63.2903H154.736V61.616ZM150.995 61.616C151.013 61.616 151.038 61.6188 151.067 61.6285C151.096 61.6381 151.118 61.651 151.132 61.6614L150.127 63.0009C150.38 63.1909 150.679 63.2903 150.995 63.2903V61.616ZM151.299 61.8289C151.309 61.8427 151.322 61.8647 151.332 61.8936C151.342 61.9225 151.344 61.9479 151.344 61.9652H149.67C149.67 62.2819 149.77 62.5801 149.96 62.8334L151.299 61.8289ZM151.344 61.9652V34.4771H149.67V61.9652H151.344ZM151.344 34.4771C151.344 34.493 151.342 34.5338 151.322 34.5881C151.3 34.645 151.266 34.6993 151.221 34.7438L150.037 33.5599C149.771 33.826 149.67 34.1622 149.67 34.4771H151.344ZM151.221 34.7438C151.213 34.7515 151.188 34.7745 151.142 34.7948C151.094 34.816 151.043 34.8263 150.995 34.8263V33.152C150.608 33.152 150.28 33.3169 150.037 33.5599L151.221 34.7438ZM150.995 34.8263H154.736V33.152H150.995V34.8263ZM154.736 34.8263C154.689 34.8263 154.62 34.8162 154.545 34.7786C154.47 34.741 154.42 34.6915 154.392 34.6541L155.731 33.6495C155.492 33.3303 155.135 33.152 154.736 33.152V34.8263ZM154.559 34.8215C154.522 34.7935 154.472 34.7437 154.435 34.6685C154.397 34.5934 154.387 34.5238 154.387 34.4771H156.061C156.061 34.0781 155.883 33.7215 155.564 33.4821L154.559 34.8215ZM154.387 34.4771V43.301H156.061V34.4771H154.387ZM154.387 43.301C154.387 43.573 154.496 43.9946 154.931 44.2124L155.68 42.7148C155.815 42.7823 155.926 42.8933 155.993 43.0282C156.054 43.1501 156.061 43.254 156.061 43.301H154.387ZM154.931 44.2124C155.121 44.3072 155.352 44.3454 155.59 44.2859C155.809 44.2311 155.964 44.111 156.06 44.0149L154.876 42.831C154.918 42.7891 155.019 42.7029 155.184 42.6616C155.367 42.6157 155.545 42.6472 155.68 42.7148L154.931 44.2124ZM156.108 43.9626C157.103 42.7821 158.408 42.1863 160.104 42.1863V40.512C157.95 40.512 156.164 41.2987 154.828 42.8833L156.108 43.9626ZM160.104 42.1863C161.967 42.1863 163.429 42.6498 164.553 43.5167L165.576 42.1906C164.098 41.0516 162.253 40.512 160.104 40.512V42.1863ZM164.56 43.5218C165.739 44.4117 166.625 45.6622 167.202 47.3174L168.783 46.7665C168.113 44.8433 167.047 43.3017 165.569 42.1856L164.56 43.5218ZM163.596 57.1757C164.346 55.8622 164.682 54.1403 164.682 52.0841H163.007C163.007 53.9858 162.693 55.3814 162.142 56.345L163.596 57.1757ZM164.682 52.0841C164.682 49.8756 164.259 48.0342 163.316 46.6517L161.933 47.5949C162.617 48.5979 163.007 50.0637 163.007 52.0841H164.682ZM163.329 46.6706C162.432 45.2752 161.072 44.5783 159.372 44.5783V46.2526C160.545 46.2526 161.354 46.6942 161.921 47.576L163.329 46.6706ZM159.372 44.5783C157.732 44.5783 156.449 45.3445 155.601 46.7787L157.043 47.6305C157.605 46.6792 158.355 46.2526 159.372 46.2526V44.5783ZM155.607 46.7688C154.814 48.0696 154.468 49.8617 154.468 52.0435H156.143C156.143 49.9963 156.475 48.5624 157.037 47.6404L155.607 46.7688ZM154.468 52.0435C154.468 54.1881 154.784 55.9383 155.52 57.1856L156.962 56.3351C156.45 55.468 156.143 54.0735 156.143 52.0435H154.468ZM155.505 57.1591C155.913 57.9138 156.448 58.5214 157.123 58.9372C157.801 59.3542 158.574 59.5493 159.412 59.5493V57.875C158.841 57.875 158.38 57.7448 158.001 57.5112C157.619 57.2764 157.273 56.9081 156.977 56.3616L155.505 57.1591ZM159.412 59.5493C160.295 59.5493 161.113 59.3591 161.846 58.9591L161.045 57.4893C160.585 57.7399 160.048 57.875 159.412 57.875V59.5493ZM161.871 58.9449C162.598 58.5153 163.175 57.9189 163.598 57.1723L162.14 56.3484C161.857 56.8487 161.485 57.2283 161.02 57.5035L161.871 58.9449ZM173.303 62.3312L172.633 62.8334L172.705 62.9291L172.8 63.0009L173.303 62.3312ZM173.303 34.1518L172.711 33.5599V33.5599L173.303 34.1518ZM177.735 34.1518L177.065 34.6541L177.137 34.7498L177.233 34.8215L177.735 34.1518ZM177.735 62.3312L178.327 62.9231V62.9231L177.735 62.3312ZM173.669 61.616C173.686 61.616 173.711 61.6188 173.74 61.6285C173.769 61.6381 173.791 61.651 173.805 61.6614L172.8 63.0009C173.054 63.1909 173.352 63.2903 173.669 63.2903V61.616ZM173.972 61.8289C173.983 61.8427 173.996 61.8647 174.005 61.8936C174.015 61.9225 174.018 61.9479 174.018 61.9652H172.343C172.343 62.2819 172.443 62.5801 172.633 62.8334L173.972 61.8289ZM174.018 61.9652V34.4771H172.343V61.9652H174.018ZM174.018 34.4771C174.018 34.493 174.015 34.5338 173.995 34.5881C173.974 34.645 173.939 34.6993 173.895 34.7438L172.711 33.5599C172.444 33.826 172.343 34.1622 172.343 34.4771H174.018ZM173.895 34.7438C173.887 34.7515 173.861 34.7745 173.815 34.7948C173.768 34.816 173.716 34.8263 173.669 34.8263V33.152C173.281 33.152 172.954 33.3169 172.711 33.5599L173.895 34.7438ZM173.669 34.8263H177.41V33.152H173.669V34.8263ZM177.41 34.8263C177.363 34.8263 177.293 34.8162 177.218 34.7786C177.143 34.741 177.093 34.6915 177.065 34.6541L178.405 33.6495C178.165 33.3303 177.809 33.152 177.41 33.152V34.8263ZM177.233 34.8215C177.195 34.7935 177.146 34.7437 177.108 34.6685C177.07 34.5934 177.06 34.5238 177.06 34.4771H178.735C178.735 34.0781 178.556 33.7215 178.237 33.4821L177.233 34.8215ZM177.06 34.4771V61.9652H178.735V34.4771H177.06ZM177.06 61.9652C177.06 61.9177 177.071 61.8661 177.092 61.8183C177.112 61.7726 177.135 61.747 177.143 61.7392L178.327 62.9231C178.57 62.6801 178.735 62.3526 178.735 61.9652H177.06ZM177.143 61.7392C177.187 61.6948 177.242 61.6601 177.299 61.6388C177.353 61.6184 177.394 61.616 177.41 61.616V63.2903C177.724 63.2903 178.061 63.1892 178.327 62.9231L177.143 61.7392ZM177.41 61.616H173.669V63.2903H177.41V61.616ZM200.435 49.7257L199.604 49.8265L199.606 49.8423L199.608 49.8579L200.435 49.7257ZM200.598 52.0028L201.435 52.0298L201.435 52.0163V52.0028H200.598ZM200.557 53.2633L199.72 53.2364L199.72 53.2498V53.2633H200.557ZM187.138 53.9546H186.301V53.9926L186.305 54.0304L187.138 53.9546ZM187.504 55.7844L188.299 55.5197L188.28 55.4633L188.253 55.4101L187.504 55.7844ZM192.262 58.7528L192.253 59.59H192.262V58.7528ZM196.653 56.4757L197.335 56.9623L197.343 56.9513L197.35 56.9401L196.653 56.4757ZM197.345 56.3537L196.753 56.9457L196.782 56.9744L196.813 57.0002L197.345 56.3537ZM199.866 58.4275L199.334 59.074L199.343 59.0813L199.352 59.0883L199.866 58.4275ZM199.988 59.0781L200.672 59.5603L200.678 59.5515L200.684 59.5425L199.988 59.0781ZM196.613 61.8432L196.262 61.0831L196.256 61.0857L196.613 61.8432ZM186.569 61.3959L186.114 62.0984L186.12 62.1022L186.569 61.3959ZM183.357 57.411L184.135 57.1022L184.131 57.0925L184.127 57.0829L183.357 57.411ZM182.909 47.4892L183.704 47.754L183.709 47.7367L183.714 47.7192L182.909 47.4892ZM185.959 43.0163L186.452 43.6934L186.454 43.6918L185.959 43.0163ZM188.887 46.188L189.389 46.8578L189.393 46.8545L188.887 46.188ZM187.504 48.2618L188.294 48.5404L188.3 48.5227L188.306 48.5046L187.504 48.2618ZM187.179 50.051L187.956 50.3619L188.004 50.2418L188.014 50.1128L187.179 50.051ZM195.8 50.051H196.637V50.0176L196.634 49.9842L195.8 50.051ZM195.556 48.5058L194.743 48.7088L194.749 48.7306L194.755 48.752L195.556 48.5058ZM194.092 46.2287L193.581 46.8922L193.587 46.8969L193.593 46.9014L194.092 46.2287ZM199.608 49.8579C199.709 50.4835 199.761 51.1973 199.761 52.0028H201.435C201.435 51.1276 201.379 50.3233 201.262 49.5934L199.608 49.8579ZM199.761 51.9758L199.72 53.2364L201.394 53.2903L201.435 52.0298L199.761 51.9758ZM199.72 53.2633C199.72 53.297 199.712 53.1684 199.843 53.0374C199.974 52.9063 200.103 52.9142 200.069 52.9142V54.5885C200.361 54.5885 200.733 54.515 201.027 54.2213C201.321 53.9276 201.394 53.555 201.394 53.2633H199.72ZM200.069 52.9142H187.342V54.5885H200.069V52.9142ZM187.342 52.9142C187.145 52.9142 186.844 52.9639 186.597 53.2102C186.351 53.4564 186.301 53.7578 186.301 53.9546H187.976C187.976 54.0159 187.96 54.2156 187.781 54.3941C187.603 54.5726 187.403 54.5885 187.342 54.5885V52.9142ZM186.305 54.0304C186.386 54.9198 186.514 55.6763 186.756 56.1588L188.253 55.4101C188.169 55.2419 188.054 54.7786 187.972 53.8788L186.305 54.0304ZM186.71 56.0492C187.09 57.19 187.763 58.0922 188.739 58.7006C189.7 59.3003 190.891 59.5753 192.253 59.5899L192.271 57.9157C191.112 57.9033 190.25 57.6699 189.625 57.2802C189.014 56.8991 188.569 56.3307 188.299 55.5197L186.71 56.0492ZM192.262 59.59C194.38 59.59 196.095 58.6972 197.335 56.9623L195.972 55.9891C195.043 57.2904 193.831 57.9157 192.262 57.9157V59.59ZM197.35 56.9401C197.351 56.938 197.328 56.9742 197.267 57.0106C197.201 57.0503 197.126 57.0689 197.06 57.0689V55.3946C196.558 55.3946 196.185 55.6698 195.957 56.0113L197.35 56.9401ZM197.06 57.0689C197.007 57.0689 196.945 57.0583 196.883 57.0317C196.822 57.0055 196.779 56.9717 196.753 56.9457L197.937 55.7618C197.709 55.534 197.405 55.3946 197.06 55.3946V57.0689ZM196.813 57.0002L199.334 59.074L200.398 57.781L197.877 55.7072L196.813 57.0002ZM199.352 59.0883C199.377 59.1079 199.287 59.0471 199.257 58.8868C199.242 58.8091 199.248 58.7389 199.262 58.686C199.269 58.6611 199.277 58.6427 199.282 58.6309C199.285 58.625 199.287 58.6207 199.289 58.6179C199.29 58.6165 199.29 58.6155 199.291 58.6148C199.291 58.6141 199.291 58.6138 199.291 58.6138L200.684 59.5425C200.846 59.3003 200.975 58.9646 200.902 58.5782C200.831 58.201 200.599 57.937 200.38 57.7667L199.352 59.0883ZM199.303 58.596C198.553 59.6606 197.547 60.4901 196.262 61.0831L196.964 62.6033C198.498 61.8951 199.742 60.8812 200.672 59.5603L199.303 58.596ZM196.256 61.0857C194.998 61.678 193.576 61.982 191.977 61.982V63.6563C193.794 63.6563 195.463 63.3096 196.969 62.6007L196.256 61.0857ZM191.977 61.982C189.99 61.982 188.351 61.5374 187.019 60.6896L186.12 62.1022C187.769 63.152 189.735 63.6563 191.977 63.6563V61.982ZM187.024 60.6934C185.714 59.8444 184.752 58.6576 184.135 57.1022L182.579 57.7197C183.317 59.58 184.496 61.0499 186.114 62.0984L187.024 60.6934ZM184.127 57.0829C183.567 55.7681 183.259 53.864 183.259 51.3115H181.584C181.584 53.9639 181.9 56.1261 182.587 57.739L184.127 57.0829ZM183.259 51.3115C183.259 49.7869 183.418 48.6119 183.704 47.754L182.115 47.2245C181.751 48.3183 181.584 49.6916 181.584 51.3115H183.259ZM183.714 47.7192C184.209 45.9878 185.123 44.6597 186.452 43.6934L185.467 42.3393C183.814 43.5416 182.694 45.1955 182.105 47.2592L183.714 47.7192ZM186.454 43.6918C187.811 42.6982 189.448 42.1863 191.408 42.1863V40.512C189.139 40.512 187.144 41.1115 185.465 42.3409L186.454 43.6918ZM191.408 42.1863C193.932 42.1863 195.793 42.8436 197.101 44.0569C198.414 45.2758 199.28 47.1582 199.604 49.8265L201.266 49.6248C200.912 46.7088 199.935 44.4029 198.239 42.8296C196.538 41.2508 194.224 40.512 191.408 40.512V42.1863ZM191.408 44.5783C190.256 44.5783 189.229 44.8769 188.38 45.5215L189.393 46.8545C189.901 46.469 190.554 46.2526 191.408 46.2526V44.5783ZM188.385 45.5183C187.571 46.1286 187.018 46.9804 186.703 48.019L188.306 48.5046C188.533 47.754 188.902 47.2233 189.389 46.8577L188.385 45.5183ZM186.715 47.9832C186.519 48.5395 186.401 49.2163 186.344 49.9891L188.014 50.1128C188.065 49.4218 188.165 48.9058 188.294 48.5404L186.715 47.9832ZM186.402 49.7401C186.342 49.8897 186.207 50.3279 186.525 50.7264C186.806 51.0776 187.212 51.0914 187.342 51.0914V49.4172C187.352 49.4172 187.409 49.4175 187.49 49.4426C187.573 49.4686 187.714 49.5325 187.833 49.6805C188.097 50.0112 187.962 50.3478 187.956 50.3619L186.402 49.7401ZM187.342 51.0914H195.596V49.4172H187.342V51.0914ZM195.596 51.0914C195.793 51.0914 196.094 51.0417 196.341 50.7954C196.587 50.5492 196.637 50.2478 196.637 50.051H194.962C194.962 49.9897 194.978 49.79 195.157 49.6115C195.335 49.433 195.535 49.4172 195.596 49.4172V51.0914ZM196.634 49.9842C196.578 49.2875 196.491 48.7002 196.356 48.2596L194.755 48.752C194.837 49.0163 194.912 49.4591 194.965 50.1177L196.634 49.9842ZM196.368 48.3028C196.082 47.1596 195.494 46.2259 194.59 45.556L193.593 46.9014C194.153 47.3159 194.541 47.9002 194.743 48.7088L196.368 48.3028ZM194.602 45.5651C193.721 44.8874 192.635 44.5783 191.408 44.5783V46.2526C192.349 46.2526 193.053 46.4856 193.581 46.8922L194.602 45.5651ZM221.296 35.0058L220.897 35.7419L221.296 35.0058ZM224.305 38.0148L223.569 38.4135L223.574 38.4227L223.579 38.4318L224.305 38.0148ZM224.305 46.8386L225.031 47.2556L224.305 46.8386ZM221.174 49.807L221.554 50.5527L221.56 50.5497L221.174 49.807ZM209.666 62.3312L209.074 61.7392L209.074 61.7392L209.666 62.3312ZM205.234 62.3312L204.564 62.8334L204.636 62.9291L204.732 63.0009L205.234 62.3312ZM205.234 34.1112L204.642 33.5192V33.5192L205.234 34.1112ZM219.425 45.7814L220.007 46.383V46.383L219.425 45.7814ZM219.425 39.2753L220.017 38.6834V38.6834L219.425 39.2753ZM216.782 34.7857C218.372 34.7857 219.736 35.1129 220.897 35.7419L221.695 34.2697C220.253 33.4889 218.608 33.1114 216.782 33.1114V34.7857ZM220.897 35.7419C222.055 36.3693 222.941 37.2551 223.569 38.4135L225.041 37.6161C224.259 36.1721 223.139 35.0518 221.695 34.2697L220.897 35.7419ZM223.579 38.4318C224.228 39.5617 224.566 40.8913 224.566 42.447H226.24C226.24 40.6413 225.846 39.0161 225.031 37.5978L223.579 38.4318ZM224.566 42.447C224.566 43.973 224.229 45.2897 223.579 46.4216L225.031 47.2556C225.844 45.8393 226.24 44.2283 226.24 42.447H224.566ZM223.579 46.4216C222.93 47.5512 222.007 48.4302 220.788 49.0643L221.56 50.5497C223.052 49.7741 224.216 48.6742 225.031 47.2556L223.579 46.4216ZM220.793 49.0613C219.602 49.6689 218.192 49.9864 216.538 49.9864V51.6607C218.409 51.6607 220.089 51.3005 221.554 50.5527L220.793 49.0613ZM216.538 49.9864H210.032V51.6607H216.538V49.9864ZM210.032 49.9864C209.835 49.9864 209.534 50.0362 209.288 50.2825C209.041 50.5287 208.992 50.8301 208.992 51.0269H210.666C210.666 51.0882 210.65 51.2879 210.472 51.4664C210.293 51.6448 210.093 51.6607 210.032 51.6607V49.9864ZM208.992 51.0269V61.9652H210.666V51.0269H208.992ZM208.992 61.9652C208.992 61.9177 209.002 61.8661 209.023 61.8183C209.044 61.7726 209.067 61.747 209.074 61.7392L210.258 62.9231C210.501 62.6802 210.666 62.3526 210.666 61.9652H208.992ZM209.074 61.7392C209.119 61.6948 209.173 61.6601 209.23 61.6388C209.284 61.6184 209.325 61.616 209.341 61.616V63.2903C209.656 63.2903 209.992 63.1892 210.258 62.9231L209.074 61.7392ZM209.341 61.616H205.6V63.2903H209.341V61.616ZM205.6 61.616C205.617 61.616 205.643 61.6188 205.672 61.6285C205.7 61.6381 205.722 61.651 205.736 61.6614L204.732 63.0009C204.985 63.1909 205.283 63.2903 205.6 63.2903V61.616ZM205.904 61.8289C205.914 61.8427 205.927 61.8647 205.937 61.8936C205.946 61.9225 205.949 61.9479 205.949 61.9652H204.275C204.275 62.2819 204.374 62.5801 204.564 62.8334L205.904 61.8289ZM205.949 61.9652V34.4365H204.275V61.9652H205.949ZM205.949 34.4365C205.949 34.4523 205.947 34.4931 205.926 34.5474C205.905 34.6043 205.87 34.6587 205.826 34.7031L204.642 33.5192C204.376 33.7853 204.275 34.1216 204.275 34.4365H205.949ZM205.826 34.7031C205.818 34.7109 205.793 34.7338 205.747 34.7542C205.699 34.7754 205.647 34.7857 205.6 34.7857V33.1114C205.212 33.1114 204.885 33.2763 204.642 33.5192L205.826 34.7031ZM205.6 34.7857H216.782V33.1114H205.6V34.7857ZM216.091 47.8384C217.648 47.8384 218.983 47.3744 220.007 46.383L218.843 45.1798C218.187 45.8149 217.299 46.1641 216.091 46.1641V47.8384ZM220.007 46.383C221.034 45.39 221.523 44.0904 221.523 42.569H219.849C219.849 43.7043 219.498 44.5463 218.843 45.1798L220.007 46.383ZM221.523 42.569C221.523 41.0255 221.037 39.7032 220.017 38.6834L218.833 39.8673C219.494 40.5282 219.849 41.4017 219.849 42.569H221.523ZM220.017 38.6834C218.994 37.6603 217.656 37.1777 216.091 37.1777V38.8519C217.291 38.8519 218.176 39.2096 218.833 39.8673L220.017 38.6834ZM216.091 37.1777H210.032V38.8519H216.091V37.1777ZM210.032 37.1777C209.835 37.1777 209.534 37.2274 209.288 37.4737C209.041 37.7199 208.992 38.0213 208.992 38.2181H210.666C210.666 38.2794 210.65 38.4791 210.472 38.6576C210.293 38.8361 210.093 38.8519 210.032 38.8519V37.1777ZM208.992 38.2181V46.798H210.666V38.2181H208.992ZM208.992 46.798C208.992 46.9948 209.041 47.2961 209.288 47.5424C209.534 47.7887 209.835 47.8384 210.032 47.8384V46.1641C210.093 46.1641 210.293 46.18 210.472 46.3585C210.65 46.537 210.666 46.7367 210.666 46.798H208.992ZM210.032 47.8384H216.091V46.1641H210.032V47.8384ZM241.296 42.2437L240.948 43.0048L241.296 42.2437ZM244.306 44.7242L243.609 45.1886L243.615 45.1969L244.306 44.7242ZM245.2 62.3312L244.608 61.7392V61.7392L245.2 62.3312ZM240.768 62.3312L240.098 62.8334L240.17 62.9291L240.266 63.0009L240.768 62.3312ZM240.565 60.542L240.19 61.2908L240.367 61.3791H240.565V60.542ZM240.402 60.5827L239.81 59.9907L239.796 60.0051L239.782 60.0201L240.402 60.5827ZM229.586 61.2333L229.066 61.8897L229.073 61.8948L229.586 61.2333ZM229.83 51.7182L230.351 52.373L230.353 52.3719L229.83 51.7182ZM239.711 46.31L239.132 46.915L239.139 46.9217L239.146 46.9282L239.711 46.31ZM234.384 45.9847L234.796 46.7136L234.806 46.7078L234.384 45.9847ZM233.205 47.4892L232.392 47.2862L233.205 47.4892ZM232.635 47.8959L232.785 47.0722L232.762 47.068L232.738 47.065L232.635 47.8959ZM228.691 47.4079L228.527 48.2288L228.557 48.2349L228.588 48.2387L228.691 47.4079ZM228.325 47.2859L227.733 47.8779L227.829 47.9739L227.951 48.0347L228.325 47.2859ZM228.244 47.0013L229.056 47.2043L229.068 47.1577L229.074 47.1101L228.244 47.0013ZM230.887 42.935L230.42 42.2403L230.414 42.2441L230.887 42.935ZM239.223 57.9802L238.723 57.3082L239.223 57.9802ZM233.611 53.9953L233.157 53.2917L233.147 53.2987L233.611 53.9953ZM233.327 58.3462L232.811 59.0055L232.826 59.0178L232.843 59.0293L233.327 58.3462ZM236.783 42.1863C238.393 42.1863 239.775 42.4673 240.948 43.0048L241.645 41.4827C240.216 40.8274 238.588 40.512 236.783 40.512V42.1863ZM240.948 43.0048C242.126 43.5448 243.001 44.2763 243.609 45.1885L245.002 44.2598C244.201 43.0575 243.069 42.1354 241.645 41.4827L240.948 43.0048ZM243.615 45.1969C244.218 46.0786 244.526 47.0908 244.526 48.2618H246.2C246.2 46.7762 245.803 45.4299 244.996 44.2514L243.615 45.1969ZM244.526 48.2618V61.9652H246.2V48.2618H244.526ZM244.526 61.9652C244.526 61.9177 244.536 61.8661 244.557 61.8183C244.577 61.7726 244.6 61.747 244.608 61.7392L245.792 62.9231C246.035 62.6802 246.2 62.3526 246.2 61.9652H244.526ZM244.608 61.7392C244.653 61.6948 244.707 61.6601 244.764 61.6388C244.818 61.6184 244.859 61.616 244.875 61.616V63.2903C245.19 63.2903 245.526 63.1892 245.792 62.9231L244.608 61.7392ZM244.875 61.616H241.134V63.2903H244.875V61.616ZM241.134 61.616C241.151 61.616 241.177 61.6188 241.205 61.6285C241.234 61.6381 241.256 61.651 241.27 61.6614L240.266 63.0009C240.519 63.1909 240.817 63.2903 241.134 63.2903V61.616ZM241.438 61.8289C241.448 61.8427 241.461 61.8647 241.471 61.8936C241.48 61.9225 241.483 61.9479 241.483 61.9652H239.809C239.809 62.2819 239.908 62.5801 240.098 62.8334L241.438 61.8289ZM241.483 61.9652V60.664H239.809V61.9652H241.483ZM241.483 60.664C241.483 60.5567 241.47 60.3299 241.322 60.1081C241.134 59.8264 240.836 59.7048 240.565 59.7048V61.3791C240.473 61.3791 240.352 61.3616 240.226 61.2984C240.096 61.2334 239.997 61.1385 239.929 61.0369C239.808 60.8557 239.809 60.6899 239.809 60.664H241.483ZM240.939 59.7932C240.749 59.6985 240.518 59.6602 240.28 59.7197C240.061 59.7745 239.906 59.8946 239.81 59.9907L240.994 61.1746C240.952 61.2165 240.851 61.3027 240.686 61.344C240.503 61.3899 240.325 61.3584 240.19 61.2908L240.939 59.7932ZM239.782 60.0201C238.654 61.2636 236.982 61.9413 234.628 61.9413V63.6156C237.316 63.6156 239.494 62.8294 241.022 61.1452L239.782 60.0201ZM234.628 61.9413C232.74 61.9413 231.251 61.4657 230.099 60.5717L229.073 61.8948C230.576 63.0611 232.449 63.6156 234.628 63.6156V61.9413ZM230.105 60.5769C229.05 59.7413 228.471 58.4794 228.471 56.6384H226.797C226.797 58.8636 227.519 60.665 229.066 61.8896L230.105 60.5769ZM228.471 56.6384C228.471 54.7413 229.114 53.3579 230.351 52.373L229.308 51.0633C227.617 52.4098 226.797 54.3065 226.797 56.6384H228.471ZM230.353 52.3719C231.645 51.3378 233.522 50.7661 236.092 50.7661V49.0918C233.294 49.0918 230.996 49.713 229.307 51.0645L230.353 52.3719ZM236.092 50.7661H240.443V49.0918H236.092V50.7661ZM240.443 50.7661C240.639 50.7661 240.941 50.7164 241.187 50.4701C241.433 50.2239 241.483 49.9225 241.483 49.7257H239.809C239.809 49.6644 239.825 49.4647 240.003 49.2862C240.182 49.1077 240.381 49.0918 240.443 49.0918V50.7661ZM241.483 49.7257V48.7498H239.809V49.7257H241.483ZM241.483 48.7498C241.483 47.5209 241.114 46.458 240.275 45.6918L239.146 46.9282C239.554 47.3006 239.809 47.8642 239.809 48.7498H241.483ZM240.289 45.7051C239.452 44.9046 238.272 44.5783 236.905 44.5783V46.2526C238.032 46.2526 238.722 46.5227 239.132 46.915L240.289 45.7051ZM236.905 44.5783C235.779 44.5783 234.779 44.7849 233.962 45.2616L234.806 46.7078C235.29 46.4255 235.971 46.2526 236.905 46.2526V44.5783ZM233.972 45.2559C233.164 45.7127 232.615 46.3965 232.392 47.2862L234.017 47.6923C234.12 47.2807 234.357 46.9615 234.796 46.7135L233.972 45.2559ZM232.392 47.2862C232.379 47.3388 232.39 47.243 232.515 47.1536C232.655 47.0537 232.781 47.0715 232.785 47.0722L232.486 48.7195C232.787 48.7744 233.158 48.7516 233.488 48.5161C233.803 48.2911 233.949 47.965 234.017 47.6923L232.392 47.2862ZM232.738 47.065L228.794 46.5771L228.588 48.2387L232.533 48.7267L232.738 47.065ZM228.855 46.587C228.783 46.5725 228.733 46.5538 228.699 46.5371L227.951 48.0347C228.134 48.1264 228.328 48.1891 228.527 48.2288L228.855 46.587ZM228.917 46.694C228.96 46.7371 229.017 46.8133 229.049 46.9238C229.081 47.0355 229.073 47.1353 229.056 47.2043L227.432 46.7982C227.331 47.2019 227.451 47.596 227.733 47.8779L228.917 46.694ZM229.074 47.1101C229.256 45.7229 229.984 44.5671 231.36 43.6259L230.414 42.2441C228.699 43.4174 227.665 44.9724 227.414 46.8924L229.074 47.1101ZM231.354 43.6297C232.758 42.6858 234.55 42.1863 236.783 42.1863V40.512C234.299 40.512 232.16 41.0697 230.42 42.2403L231.354 43.6297ZM235.807 59.8746C237.292 59.8746 238.611 59.4774 239.722 58.6522L238.723 57.3082C237.937 57.8927 236.979 58.2003 235.807 58.2003V59.8746ZM239.722 58.6522C240.861 57.806 241.483 56.6721 241.483 55.2965H239.809C239.809 56.0895 239.482 56.7449 238.723 57.3082L239.722 58.6522ZM241.483 55.2965V53.3853H239.809V55.2965H241.483ZM241.483 53.3853C241.483 53.1885 241.433 52.8871 241.187 52.6409C240.941 52.3946 240.639 52.3449 240.443 52.3449V54.0192C240.381 54.0192 240.182 54.0033 240.003 53.8248C239.825 53.6463 239.809 53.4466 239.809 53.3853H241.483ZM240.443 52.3449H237.027V54.0192H240.443V52.3449ZM237.027 52.3449C235.496 52.3449 234.18 52.6321 233.157 53.2918L234.065 54.6987C234.723 54.2741 235.684 54.0192 237.027 54.0192V52.3449ZM233.147 53.2987C232.093 54.001 231.554 55.039 231.554 56.3131H233.228C233.228 55.5811 233.502 55.0739 234.076 54.6918L233.147 53.2987ZM231.554 56.3131C231.554 57.4097 231.963 58.3422 232.811 59.0055L233.843 57.6869C233.443 57.3743 233.228 56.9513 233.228 56.3131H231.554ZM232.843 59.0293C233.668 59.6136 234.676 59.8746 235.807 59.8746V58.2003C234.932 58.2003 234.287 58.0005 233.81 57.6631L232.843 59.0293ZM260.638 45.3748L261.23 45.9667V45.9667L260.638 45.3748ZM256.612 57.7363L256.002 58.31L256.011 58.3192L256.02 58.3282L256.612 57.7363ZM260.312 58.5902L259.643 59.0925L259.714 59.1881L259.81 59.2599L260.312 58.5902ZM259.987 62.4938L260.003 63.3308L260.064 63.3296L260.125 63.3196L259.987 62.4938ZM257.873 62.5345V63.3716H257.881L257.889 63.3715L257.873 62.5345ZM253.074 61.4366L252.598 62.1249L253.074 61.4366ZM251.448 57.289H250.611L250.611 57.3001L251.448 57.289ZM248.561 45.3748L247.891 45.8771L247.963 45.9727L248.059 46.0445L248.561 45.3748ZM248.561 41.8371L247.969 41.2451V41.2451L248.561 41.8371ZM251.57 36.3883L250.978 35.7963V35.7963L251.57 36.3883ZM255.799 36.3883L255.129 36.8906L255.201 36.9862L255.297 37.058L255.799 36.3883ZM260.638 41.8371L259.968 42.3394L260.04 42.4351L260.135 42.5068L260.638 41.8371ZM259.963 45.0088C259.963 44.9613 259.973 44.9097 259.995 44.862C260.015 44.8162 260.038 44.7906 260.046 44.7828L261.23 45.9667C261.473 45.7238 261.637 45.3963 261.637 45.0088H259.963ZM260.046 44.7828C260.09 44.7384 260.145 44.7037 260.201 44.6824C260.256 44.662 260.297 44.6596 260.312 44.6596V46.3339C260.627 46.3339 260.964 46.2328 261.23 45.9667L260.046 44.7828ZM260.312 44.6596H256.165V46.3339H260.312V44.6596ZM256.165 44.6596C255.968 44.6596 255.667 44.7094 255.42 44.9556C255.174 45.2019 255.124 45.5033 255.124 45.7001H256.799C256.799 45.7613 256.783 45.9611 256.604 46.1395C256.426 46.318 256.226 46.3339 256.165 46.3339V44.6596ZM255.124 45.7001V55.4998H256.799V45.7001H255.124ZM255.124 55.4998C255.124 56.6164 255.354 57.6212 256.002 58.31L257.222 57.1625C257.002 56.9296 256.799 56.4434 256.799 55.4998H255.124ZM256.02 58.3282C256.701 59.0093 257.678 59.2647 258.767 59.2647V57.5904C257.904 57.5904 257.445 57.3849 257.204 57.1443L256.02 58.3282ZM258.767 59.2647H259.987V57.5904H258.767V59.2647ZM259.987 59.2647C259.94 59.2647 259.871 59.2545 259.796 59.217C259.721 59.1794 259.671 59.1298 259.643 59.0925L260.982 58.0879C260.743 57.7687 260.386 57.5904 259.987 57.5904V59.2647ZM259.81 59.2599C259.773 59.2319 259.723 59.182 259.686 59.1069C259.648 59.0317 259.638 58.9622 259.638 58.9155H261.312C261.312 58.5164 261.134 58.1599 260.815 57.9205L259.81 59.2599ZM259.638 58.9155V61.9652H261.312V58.9155H259.638ZM259.638 61.9652C259.638 61.9644 259.638 61.9373 259.653 61.8945C259.668 61.8489 259.696 61.7984 259.738 61.7532C259.823 61.6615 259.897 61.6602 259.849 61.668L260.125 63.3196C260.403 63.2732 260.721 63.1567 260.968 62.8888C261.225 62.6108 261.312 62.2712 261.312 61.9652H259.638ZM259.971 61.6568L257.857 61.6975L257.889 63.3715L260.003 63.3308L259.971 61.6568ZM257.873 61.6973C255.799 61.6973 254.403 61.338 253.551 60.7483L252.598 62.1249C253.861 62.999 255.663 63.3716 257.873 63.3716V61.6973ZM253.551 60.7483C252.822 60.2436 252.311 59.2012 252.285 57.2778L250.611 57.3001C250.639 59.443 251.212 61.1656 252.598 62.1249L253.551 60.7483ZM252.285 57.289V45.7001H250.611V57.289H252.285ZM252.285 45.7001C252.285 45.5033 252.235 45.2019 251.989 44.9556C251.743 44.7094 251.441 44.6596 251.245 44.6596V46.3339C251.183 46.3339 250.984 46.318 250.805 46.1395C250.627 45.9611 250.611 45.7613 250.611 45.7001H252.285ZM251.245 44.6596H248.927V46.3339H251.245V44.6596ZM248.927 44.6596C248.944 44.6596 248.969 44.6624 248.998 44.6721C249.027 44.6817 249.049 44.6947 249.063 44.705L248.059 46.0445C248.312 46.2345 248.61 46.3339 248.927 46.3339V44.6596ZM249.231 44.8725C249.241 44.8863 249.254 44.9083 249.264 44.9372C249.273 44.9661 249.276 44.9915 249.276 45.0088H247.602C247.602 45.3255 247.701 45.6237 247.891 45.8771L249.231 44.8725ZM249.276 45.0088V42.1624H247.602V45.0088H249.276ZM249.276 42.1624C249.276 42.1782 249.274 42.2191 249.253 42.2734C249.232 42.3302 249.197 42.3846 249.153 42.4291L247.969 41.2451C247.703 41.5113 247.602 41.8475 247.602 42.1624H249.276ZM249.153 42.4291C249.145 42.4368 249.119 42.4598 249.074 42.4801C249.026 42.5013 248.974 42.5116 248.927 42.5116V40.8373C248.539 40.8373 248.212 41.0022 247.969 41.2451L249.153 42.4291ZM248.927 42.5116H251.245V40.8373H248.927V42.5116ZM251.245 42.5116C251.441 42.5116 251.743 42.4618 251.989 42.2156C252.235 41.9693 252.285 41.6679 252.285 41.4711H250.611C250.611 41.4099 250.627 41.2101 250.805 41.0317C250.984 40.8532 251.183 40.8373 251.245 40.8373V42.5116ZM252.285 41.4711V36.7136H250.611V41.4711H252.285ZM252.285 36.7136C252.285 36.7294 252.283 36.7702 252.262 36.8245C252.241 36.8814 252.206 36.9358 252.162 36.9802L250.978 35.7963C250.712 36.0624 250.611 36.3987 250.611 36.7136H252.285ZM252.162 36.9802C252.154 36.988 252.128 37.011 252.083 37.0313C252.035 37.0525 251.983 37.0628 251.936 37.0628V35.3885C251.548 35.3885 251.221 35.5534 250.978 35.7963L252.162 36.9802ZM251.936 37.0628H255.473V35.3885H251.936V37.0628ZM255.473 37.0628C255.427 37.0628 255.357 37.0526 255.282 37.0151C255.207 36.9775 255.157 36.9279 255.129 36.8906L256.469 35.886C256.229 35.5668 255.873 35.3885 255.473 35.3885V37.0628ZM255.297 37.058C255.259 37.03 255.21 36.9801 255.172 36.905C255.134 36.8298 255.124 36.7603 255.124 36.7136H256.799C256.799 36.3145 256.62 35.958 256.301 35.7186L255.297 37.058ZM255.124 36.7136V41.4711H256.799V36.7136H255.124ZM255.124 41.4711C255.124 41.6679 255.174 41.9693 255.42 42.2156C255.667 42.4618 255.968 42.5116 256.165 42.5116V40.8373C256.226 40.8373 256.426 40.8532 256.604 41.0317C256.783 41.2101 256.799 41.4099 256.799 41.4711H255.124ZM256.165 42.5116H260.312V40.8373H256.165V42.5116ZM260.312 42.5116C260.266 42.5116 260.196 42.5015 260.121 42.4639C260.046 42.4263 259.996 42.3767 259.968 42.3394L261.307 41.3348C261.068 41.0156 260.711 40.8373 260.312 40.8373V42.5116ZM260.135 42.5068C260.098 42.4788 260.048 42.4289 260.011 42.3538C259.973 42.2787 259.963 42.2091 259.963 42.1624H261.637C261.637 41.7634 261.459 41.4068 261.14 41.1674L260.135 42.5068ZM259.963 42.1624V45.0088H261.637V42.1624H259.963ZM280.197 43.301L279.605 43.8929L279.612 43.899L280.197 43.301ZM282.027 62.3312L282.619 62.9231V62.9231L282.027 62.3312ZM277.595 62.3312L276.925 62.8334L276.997 62.9291L277.093 63.0009L277.595 62.3312ZM276.416 46.5946L275.792 47.1535L275.797 47.1589L275.802 47.1643L276.416 46.5946ZM270.764 46.554L270.161 45.9729L270.156 45.9786L270.15 45.9843L270.764 46.554ZM269.544 62.3312L270.136 62.9231V62.9231L269.544 62.3312ZM265.112 62.3312L264.442 62.8334L264.514 62.9291L264.609 63.0009L265.112 62.3312ZM265.112 34.1518L264.52 33.5599V33.5599L265.112 34.1518ZM269.544 34.1518L268.874 34.6541L268.946 34.7498L269.041 34.8215L269.544 34.1518ZM269.788 43.6263L270.162 42.8775L270.162 42.8775L269.788 43.6263ZM269.91 43.5449L269.243 43.0387L269.159 43.1489L269.116 43.2802L269.91 43.5449ZM274.952 42.1863C276.972 42.1863 278.491 42.7785 279.605 43.8929L280.789 42.709C279.301 41.221 277.324 40.512 274.952 40.512V42.1863ZM279.612 43.899C280.746 45.0105 281.353 46.5522 281.353 48.6278H283.027C283.027 46.2034 282.305 44.1938 280.783 42.7029L279.612 43.899ZM281.353 48.6278V61.9652H283.027V48.6278H281.353ZM281.353 61.9652C281.353 61.9177 281.363 61.8661 281.384 61.8183C281.405 61.7726 281.428 61.747 281.435 61.7392L282.619 62.9231C282.862 62.6801 283.027 62.3526 283.027 61.9652H281.353ZM281.435 61.7392C281.48 61.6948 281.534 61.6601 281.591 61.6388C281.645 61.6184 281.686 61.616 281.702 61.616V63.2903C282.017 63.2903 282.353 63.1892 282.619 62.9231L281.435 61.7392ZM281.702 61.616H277.961V63.2903H281.702V61.616ZM277.961 61.616C277.978 61.616 278.004 61.6188 278.033 61.6285C278.061 61.6381 278.083 61.651 278.097 61.6614L277.093 63.0009C277.346 63.1909 277.644 63.2903 277.961 63.2903V61.616ZM278.265 61.8289C278.275 61.8427 278.288 61.8647 278.298 61.8936C278.307 61.9225 278.31 61.9479 278.31 61.9652H276.636C276.636 62.2819 276.735 62.5801 276.925 62.8334L278.265 61.8289ZM278.31 61.9652V49.6037H276.636V61.9652H278.31ZM278.31 49.6037C278.31 48.1909 277.906 46.9693 277.029 46.025L275.802 47.1643C276.335 47.7381 276.636 48.5225 276.636 49.6037H278.31ZM277.039 46.0358C276.158 45.053 274.986 44.5783 273.61 44.5783V46.2526C274.565 46.2526 275.264 46.564 275.792 47.1535L277.039 46.0358ZM273.61 44.5783C272.244 44.5783 271.068 45.0321 270.161 45.9729L271.366 47.1351C271.923 46.5578 272.645 46.2526 273.61 46.2526V44.5783ZM270.15 45.9843C269.273 46.9287 268.869 48.1503 268.869 49.563H270.544C270.544 48.4818 270.844 47.6974 271.377 47.1236L270.15 45.9843ZM268.869 49.563V61.9652H270.544V49.563H268.869ZM268.869 61.9652C268.869 61.9177 268.88 61.8661 268.901 61.8183C268.921 61.7726 268.944 61.747 268.952 61.7392L270.136 62.9231C270.379 62.6801 270.544 62.3526 270.544 61.9652H268.869ZM268.952 61.7392C268.996 61.6948 269.051 61.6601 269.108 61.6388C269.162 61.6184 269.203 61.616 269.218 61.616V63.2903C269.533 63.2903 269.87 63.1892 270.136 62.9231L268.952 61.7392ZM269.218 61.616H265.477V63.2903H269.218V61.616ZM265.477 61.616C265.495 61.616 265.52 61.6188 265.549 61.6285C265.578 61.6381 265.6 61.651 265.614 61.6614L264.609 63.0009C264.863 63.1909 265.161 63.2903 265.477 63.2903V61.616ZM265.781 61.8289C265.792 61.8427 265.805 61.8647 265.814 61.8936C265.824 61.9225 265.827 61.9479 265.827 61.9652H264.152C264.152 62.2819 264.252 62.5801 264.442 62.8334L265.781 61.8289ZM265.827 61.9652V34.4771H264.152V61.9652H265.827ZM265.827 34.4771C265.827 34.493 265.824 34.5338 265.804 34.5881C265.783 34.645 265.748 34.6993 265.703 34.7438L264.52 33.5599C264.253 33.826 264.152 34.1622 264.152 34.4771H265.827ZM265.703 34.7438C265.696 34.7515 265.67 34.7745 265.624 34.7948C265.577 34.816 265.525 34.8263 265.477 34.8263V33.152C265.09 33.152 264.763 33.3169 264.52 33.5599L265.703 34.7438ZM265.477 34.8263H269.218V33.152H265.477V34.8263ZM269.218 34.8263C269.172 34.8263 269.102 34.8162 269.027 34.7786C268.952 34.741 268.902 34.6915 268.874 34.6541L270.213 33.6495C269.974 33.3303 269.618 33.152 269.218 33.152V34.8263ZM269.041 34.8215C269.004 34.7935 268.955 34.7437 268.917 34.6685C268.879 34.5934 268.869 34.5238 268.869 34.4771H270.544C270.544 34.0781 270.365 33.7215 270.046 33.4821L269.041 34.8215ZM268.869 34.4771V43.4636H270.544V34.4771H268.869ZM268.869 43.4636C268.869 43.7356 268.978 44.1573 269.413 44.375L270.162 42.8775C270.297 42.9449 270.408 43.056 270.476 43.1909C270.536 43.3128 270.544 43.4167 270.544 43.4636H268.869ZM269.413 44.375C269.634 44.4852 269.99 44.5451 270.323 44.3228C270.578 44.1531 270.671 43.9079 270.704 43.8097L269.116 43.2802C269.121 43.2633 269.181 43.0723 269.395 42.9297C269.518 42.8477 269.667 42.7993 269.826 42.7993C269.975 42.7993 270.091 42.8418 270.162 42.8775L269.413 44.375ZM270.576 44.0512C271.494 42.8429 272.898 42.1863 274.952 42.1863V40.512C272.506 40.512 270.548 41.3193 269.243 43.0387L270.576 44.0512ZM290.32 61.9652L290.006 62.7413L290.016 62.7453L290.026 62.749L290.32 61.9652ZM287.352 59.8914L286.694 60.4095L286.702 60.4193L287.352 59.8914ZM286.417 56.2317L285.825 55.6398L286.417 56.2317ZM290.686 56.2317L290.016 56.734L290.088 56.8297L290.184 56.9015L290.686 56.2317ZM291.947 58.4275L291.465 59.1121L291.479 59.1222L291.494 59.1317L291.947 58.4275ZM297.436 58.5089L297.887 59.214L297.897 59.2077L297.907 59.2011L297.436 58.5089ZM297.599 55.4185L297.168 56.1363L297.189 56.1488L297.21 56.16L297.599 55.4185ZM294.915 54.4019L294.663 55.2002L294.675 55.204L294.687 55.2075L294.915 54.4019ZM293.37 53.914L293.622 53.1157L293.614 53.1132L293.606 53.1108L293.37 53.914ZM289.873 52.6127L290.239 51.8597L289.873 52.6127ZM287.474 50.7423L286.82 51.2653L286.829 51.276L287.474 50.7423ZM288.734 43.1383L289.235 43.8095L289.242 43.8036L288.734 43.1383ZM298.981 42.2437L298.648 43.0115L298.655 43.0145L298.662 43.0175L298.981 42.2437ZM301.868 44.4395L301.187 44.9261L301.194 44.9354L301.868 44.4395ZM298.575 47.9772L297.905 48.4795L297.977 48.5751L298.073 48.6469L298.575 47.9772ZM297.396 45.8627L296.906 46.5421L296.922 46.5531L296.937 46.5634L297.396 45.8627ZM291.987 45.7407L292.409 46.4639L292.418 46.4586L291.987 45.7407ZM291.947 48.8718L291.535 49.6006L291.553 49.611L291.572 49.6205L291.947 48.8718ZM295.159 49.9697L294.939 50.7773L295.159 49.9697ZM296.054 50.2136L296.296 49.4122L296.285 49.409L296.274 49.406L296.054 50.2136ZM299.673 51.5555L299.315 52.3125L299.324 52.3166L299.333 52.3205L299.673 51.5555ZM302.153 53.426L301.51 53.962L301.519 53.9726L302.153 53.426ZM300.893 61.0706L301.379 61.7519L301.387 61.7461L300.893 61.0706ZM294.834 61.86C293.204 61.86 291.803 61.627 290.614 61.1813L290.026 62.749C291.44 63.2793 293.048 63.5343 294.834 63.5343V61.86ZM290.634 61.1891C289.461 60.715 288.599 60.0987 288.002 59.3635L286.702 60.4193C287.514 61.4191 288.631 62.1853 290.006 62.7413L290.634 61.1891ZM288.009 59.3733C287.415 58.6184 287.132 57.8095 287.132 56.923H285.457C285.457 58.2052 285.879 59.3752 286.694 60.4095L288.009 59.3733ZM287.132 56.923V56.557H285.457V56.923H287.132ZM287.132 56.557C287.132 56.5729 287.129 56.6137 287.109 56.668C287.088 56.7249 287.053 56.7792 287.009 56.8237L285.825 55.6398C285.559 55.9059 285.457 56.2421 285.457 56.557H287.132ZM287.009 56.8237C287.001 56.8315 286.975 56.8544 286.929 56.8747C286.882 56.896 286.83 56.9062 286.783 56.9062V55.2319C286.395 55.2319 286.068 55.3968 285.825 55.6398L287.009 56.8237ZM286.783 56.9062H290.361V55.2319H286.783V56.9062ZM290.361 56.9062C290.314 56.9062 290.245 56.8961 290.17 56.8585C290.094 56.8209 290.045 56.7714 290.016 56.734L291.356 55.7294C291.117 55.4102 290.76 55.2319 290.361 55.2319V56.9062ZM290.184 56.9015C290.147 56.8734 290.097 56.8236 290.059 56.7484C290.022 56.6733 290.012 56.6037 290.012 56.557H291.686C291.686 56.158 291.508 55.8014 291.189 55.562L290.184 56.9015ZM290.012 56.557V56.6384H291.686V56.557H290.012ZM290.012 56.6384C290.012 57.6723 290.589 58.4956 291.465 59.1121L292.429 57.7429C291.841 57.3293 291.686 56.9599 291.686 56.6384H290.012ZM291.494 59.1317C292.419 59.7266 293.536 59.9966 294.793 59.9966V58.3223C293.773 58.3223 292.992 58.1043 292.399 57.7233L291.494 59.1317ZM294.793 59.9966C295.983 59.9966 297.036 59.759 297.887 59.214L296.985 57.8037C296.481 58.1261 295.772 58.3223 294.793 58.3223V59.9966ZM297.907 59.2011C298.759 58.6216 299.29 57.8162 299.29 56.801H297.616C297.616 57.1413 297.469 57.4744 296.965 57.8166L297.907 59.2011ZM299.29 56.801C299.29 56.3578 299.187 55.9295 298.952 55.5478C298.717 55.1676 298.38 54.8826 297.987 54.6769L297.21 56.16C297.387 56.2525 297.477 56.347 297.527 56.4277C297.576 56.5069 297.616 56.6207 297.616 56.801H299.29ZM298.03 54.7006C297.387 54.3152 296.403 53.9524 295.143 53.5963L294.687 55.2075C295.921 55.5562 296.726 55.8711 297.168 56.1363L298.03 54.7006ZM295.167 53.6036L293.622 53.1157L293.118 54.7122L294.663 55.2002L295.167 53.6036ZM293.606 53.1108C292.253 52.7129 291.134 52.2945 290.239 51.8597L289.507 53.3658C290.51 53.8527 291.722 54.3018 293.134 54.7171L293.606 53.1108ZM290.239 51.8597C289.394 51.4494 288.69 50.8993 288.119 50.2085L286.829 51.276C287.558 52.1575 288.454 52.8544 289.507 53.3658L290.239 51.8597ZM288.128 50.2193C287.618 49.5823 287.335 48.7477 287.335 47.6519H285.661C285.661 49.0501 286.029 50.2757 286.82 51.2652L288.128 50.2193ZM287.335 47.6519C287.335 46.0123 287.961 44.7592 289.235 43.8095L288.234 42.4671C286.526 43.7403 285.661 45.4963 285.661 47.6519H287.335ZM289.242 43.8036C290.549 42.806 292.319 42.2676 294.631 42.2676V40.5933C292.063 40.5933 289.902 41.1935 288.226 42.473L289.242 43.8036ZM294.631 42.2676C296.194 42.2676 297.526 42.5238 298.648 43.0115L299.315 41.476C297.943 40.8793 296.375 40.5933 294.631 40.5933V42.2676ZM298.662 43.0175C299.787 43.4822 300.614 44.1241 301.187 44.9261L302.55 43.9529C301.767 42.8574 300.67 42.0354 299.301 41.47L298.662 43.0175ZM301.194 44.9354C301.761 45.707 302.048 46.5887 302.048 47.6112H303.722C303.722 46.2481 303.331 45.0154 302.543 43.9436L301.194 44.9354ZM302.048 47.6112C302.048 47.5637 302.058 47.5121 302.079 47.4644C302.1 47.4186 302.123 47.393 302.13 47.3852L303.314 48.5691C303.557 48.3262 303.722 47.9987 303.722 47.6112H302.048ZM302.13 47.3852C302.175 47.3408 302.229 47.3062 302.286 47.2848C302.34 47.2645 302.381 47.262 302.397 47.262V48.9363C302.712 48.9363 303.048 48.8353 303.314 48.5691L302.13 47.3852ZM302.397 47.262H298.941V48.9363H302.397V47.262ZM298.941 47.262C298.958 47.262 298.983 47.2649 299.012 47.2745C299.041 47.2841 299.063 47.2971 299.077 47.3075L298.073 48.6469C298.326 48.8369 298.624 48.9363 298.941 48.9363V47.262ZM299.245 47.4749C299.255 47.4887 299.268 47.5107 299.277 47.5396C299.287 47.5685 299.29 47.5939 299.29 47.6112H297.616C297.616 47.9279 297.715 48.2261 297.905 48.4795L299.245 47.4749ZM299.29 47.6112C299.29 46.5657 298.742 45.7427 297.854 45.1621L296.937 46.5634C297.459 46.9044 297.616 47.2471 297.616 47.6112H299.29ZM297.885 45.1833C297.015 44.5573 295.886 44.2936 294.59 44.2936V45.9679C295.68 45.9679 296.42 46.1922 296.906 46.5421L297.885 45.1833ZM294.59 44.2936C293.431 44.2936 292.401 44.5161 291.557 45.0229L292.418 46.4586C292.929 46.1521 293.635 45.9679 294.59 45.9679V44.2936ZM291.566 45.0176C290.679 45.5346 290.174 46.3405 290.174 47.3672H291.849C291.849 46.9843 291.994 46.7059 292.409 46.4638L291.566 45.0176ZM290.174 47.3672C290.174 48.355 290.681 49.1179 291.535 49.6006L292.359 48.143C291.966 47.9209 291.849 47.6807 291.849 47.3672H290.174ZM291.572 49.6205C292.302 49.9851 293.44 50.3686 294.939 50.7773L295.379 49.162C293.896 48.7575 292.893 48.409 292.321 48.123L291.572 49.6205ZM294.939 50.7773L295.833 51.0213L296.274 49.406L295.379 49.162L294.939 50.7773ZM295.812 51.0151C297.223 51.4411 298.388 51.8746 299.315 52.3125L300.03 50.7985C299.006 50.3147 297.758 49.8537 296.296 49.4122L295.812 51.0151ZM299.333 52.3205C300.192 52.7026 300.915 53.2481 301.51 53.9619L302.796 52.8901C302.036 51.9773 301.105 51.2759 300.013 50.7905L299.333 52.3205ZM301.519 53.9726C302.038 54.5743 302.333 55.3955 302.333 56.5164H304.007C304.007 55.0891 303.624 53.85 302.787 52.8794L301.519 53.9726ZM302.333 56.5164C302.333 58.1814 301.695 59.4456 300.398 60.3951L301.387 61.7461C303.126 60.4727 304.007 58.7007 304.007 56.5164H302.333ZM300.406 60.3894C299.072 61.3422 297.241 61.86 294.834 61.86V63.5343C297.469 63.5343 299.677 62.9677 301.379 61.7518L300.406 60.3894Z" fill="white" mask="url(#path-2-inside-1_2_277)"/>
<path d="M53.2639 76.9836L47.2937 76.662L71.1917 44.2737C71.6957 43.5872 72.2171 42.9181 72.782 42.2837C73.9986 40.928 76.6665 36.6264 66.8031 32.429C66.8031 32.429 81.7676 34.7841 76.119 43.9609L53.2639 76.9836Z" fill="white"/>
<path d="M43.3568 77.0705L38.499 77.5397L15.0964 46.0205C15.0964 46.0205 10.534 39.4072 16.0349 35.6705C16.0349 35.6705 21.1447 33.046 23.4476 33.1329C23.4476 33.1329 19.3633 34.6537 17.4862 37.3042C16.4694 38.7381 16.5042 40.6673 17.4862 42.1186C17.6339 42.3358 17.799 42.5878 18.0076 42.892C18.3117 43.3526 18.6333 43.8045 18.9548 44.2477L43.3568 77.0705Z" fill="white"/>
<path d="M46.778 64.589L43.47 64.8656L44.154 73.049L47.4621 72.7725L46.778 64.589Z" fill="white"/>
<path d="M45.9248 51.5026L43.1013 51.5746L43.3107 59.7844L46.1342 59.7124L45.9248 51.5026Z" fill="white"/>
<path d="M45.1863 40.2141L42.3628 40.2861L42.5722 48.4958L45.3957 48.4238L45.1863 40.2141Z" fill="white"/>
<path d="M21.7617 30.2652L27.2974 28.3968" stroke="white" stroke-width="0.434509" stroke-miterlimit="10"/>
<path d="M17.7122 28.3968L30.339 23.678" stroke="white" stroke-width="0.434509" stroke-miterlimit="10"/>
<path d="M66.3855 32.2205L63.8567 30.8213" stroke="white" stroke-width="0.434509" stroke-miterlimit="10"/>
<path d="M68.0197 29.6742L62.4753 26.5284" stroke="white" stroke-width="0.434509" stroke-miterlimit="10"/>
<path d="M65.3517 37.73L65.0649 28.2056C65.3517 25.8592 61.9364 22.3658 61.9364 22.3658C64.6304 23.0523 64.0916 20.2541 64.0916 20.2541C63.1357 18.2553 60.3287 19.9239 60.3287 19.9239L57.852 15.6483C56.618 13.3714 52.4554 13.4931 52.4554 13.4931C40.5673 12.8935 34.9447 14.0493 34.9447 14.0493C31.7033 14.6924 29.6437 20.8102 29.6437 20.8102C29.1049 19.6197 27.8101 19.498 27.8101 19.498C26.4283 19.1417 26.0981 19.8978 26.0981 19.8978C24.7077 21.2187 26.0807 22.1485 26.0807 22.1485L28.0534 22.6526C28.7573 23.2 27.7666 23.791 27.7666 23.791C24.699 25.1032 25.4377 29.1789 25.4377 29.1789C25.3768 35.992 25.9156 39.6158 25.9156 39.6158C27.2278 42.7008 28.8616 42.0664 28.8616 42.0664C33.0676 43.283 33.6238 39.8852 33.6238 39.8852L30.9299 39.8939C30.9299 39.8939 28.7226 40.0329 28.6357 38.1819L28.3141 27.7016C28.3141 27.7016 28.1664 26.65 29.635 25.8332C29.635 25.8332 33.1111 21.5402 33.7716 18.4204C33.7716 18.4204 34.8057 16.3 36.5611 16.2653C36.5611 16.2653 45.6771 15.9437 53.394 16.1697C53.394 16.1697 54.7062 16.2305 55.7751 17.5514C55.7751 17.5514 60.0246 24.7295 60.798 25.5638C60.798 25.5638 62.3883 26.4589 62.1276 28.5619L62.4839 37.8256C62.4839 37.8256 62.8141 40.0851 60.5981 39.7201L58.4343 39.8331C58.1214 42.6921 61.2586 42.7616 61.2586 42.7616C65.7949 42.5705 65.3517 37.73 65.3517 37.73Z" fill="white"/>
<path d="M36.865 36.3135C36.865 36.3135 51.6209 36.105 51.899 36.105C52.1771 36.105 54.4974 36.0702 54.593 37.3564C54.593 37.3564 54.8624 39.0336 52.4813 39.0509L38.3771 39.1639C38.3771 39.1639 36.3436 39.4594 35.7527 37.9125C35.7527 37.9212 35.5354 36.3309 36.865 36.3135Z" fill="white"/>
<path d="M38.4119 31.5252C38.4119 31.5252 50.4652 31.3514 50.6911 31.3601C50.9171 31.3688 52.8115 31.334 52.8898 32.3769C52.8898 32.3769 53.107 33.7499 51.1604 33.7673L39.6459 33.8629C39.6459 33.8629 37.9861 34.1062 37.5081 32.8461C37.5081 32.8288 37.3256 31.5339 38.4119 31.5252Z" fill="white"/>
<path d="M32.2595 34.1236C33.9441 34.1236 35.3097 32.7579 35.3097 31.0733C35.3097 29.3887 33.9441 28.0231 32.2595 28.0231C30.5749 28.0231 29.2092 29.3887 29.2092 31.0733C29.2092 32.7579 30.5749 34.1236 32.2595 34.1236Z" fill="white"/>
<path d="M57.6259 34.3148C59.3105 34.3148 60.6762 32.9491 60.6762 31.2645C60.6762 29.5799 59.3105 28.2143 57.6259 28.2143C55.9413 28.2143 54.5757 29.5799 54.5757 31.2645C54.5757 32.9491 55.9413 34.3148 57.6259 34.3148Z" fill="white"/>
<path d="M32.833 22.2528L57.235 22.3832C57.235 22.3832 57.7478 21.462 56.87 20.5235L55.0277 17.8643C55.0277 17.8643 54.8887 17.0561 53.3679 16.9518L36.8566 17.1691C36.8566 17.1691 35.414 17.3255 34.8839 18.3075L32.833 22.2528Z" fill="white"/>
</svg>
