<svg width="146" height="147" viewBox="0 0 146 147" fill="none" xmlns="http://www.w3.org/2000/svg">
<path d="M90.8979 144.901L77.3118 144.17L131.696 70.4516C132.843 68.889 134.029 67.366 135.315 65.9221C138.083 62.8365 144.155 53.0457 121.709 43.4922C121.709 43.4922 155.763 48.8525 142.909 69.7395L90.8979 144.901Z" fill="white"/>
<path d="M68.3528 145.099L57.298 146.167L4.04118 74.4271C4.04118 74.4271 -6.34123 59.3749 6.17699 50.8698C6.17699 50.8698 17.8053 44.8964 23.0459 45.0942C23.0459 45.0942 13.7512 48.5556 9.47958 54.5883C7.16579 57.8519 7.24489 62.2429 9.47958 65.5461C9.81578 66.0406 10.1915 66.6142 10.6661 67.3065C11.3583 68.3548 12.09 69.3833 12.8217 70.3921L68.3528 145.099Z" fill="white"/>
<path d="M76.1386 116.689L68.6106 117.319L70.1673 135.945L77.6953 135.316L76.1386 116.689Z" fill="white"/>
<path d="M74.197 86.9049L67.7717 87.0688L68.2483 105.755L74.6736 105.591L74.197 86.9049Z" fill="white"/>
<path d="M72.5163 61.2121L66.0911 61.376L66.5677 80.0619L72.993 79.898L72.5163 61.2121Z" fill="white"/>
<path d="M19.2092 38.5665L31.8065 34.314" stroke="white" stroke-width="0.465586" stroke-miterlimit="10"/>
<path d="M9.99414 34.315L38.7287 23.5747" stroke="white" stroke-width="0.465586" stroke-miterlimit="10"/>
<path d="M120.76 43.0195L115.004 39.834" stroke="white" stroke-width="0.465586" stroke-miterlimit="10"/>
<path d="M124.477 37.2226L111.86 30.0625" stroke="white" stroke-width="0.465586" stroke-miterlimit="10"/>
<path d="M118.406 55.5575L117.753 33.8793C118.406 28.5388 110.634 20.5875 110.634 20.5875C116.765 22.1501 115.539 15.7811 115.539 15.7811C113.363 11.2318 106.976 15.0295 106.976 15.0295L101.339 5.29797C98.5312 0.11576 89.0585 0.39271 89.0585 0.39271C62.0049 -0.972071 49.2098 1.65856 49.2098 1.65856C41.8333 3.12224 37.1464 17.047 37.1464 17.047C35.9203 14.3372 32.9737 14.0602 32.9737 14.0602C29.8293 13.2493 29.0778 14.9701 29.0778 14.9701C25.9136 17.9766 29.0383 20.093 29.0383 20.093L33.5274 21.2402C35.1292 22.4863 32.8748 23.8313 32.8748 23.8313C25.8939 26.818 27.5748 36.0946 27.5748 36.0946C27.4364 51.6017 28.6625 59.8497 28.6625 59.8497C31.6487 66.8714 35.3666 65.4274 35.3666 65.4274C44.9382 68.1966 46.2038 60.4629 46.2038 60.4629L40.0733 60.4826C40.0733 60.4826 35.0502 60.7991 34.8524 56.586L34.1207 32.732C34.1207 32.732 33.7845 30.3387 37.1266 28.4795C37.1266 28.4795 45.0371 18.7084 46.54 11.6076C46.54 11.6076 48.8934 6.78141 52.8881 6.70229C52.8881 6.70229 73.6332 5.97048 91.1943 6.48475C91.1943 6.48475 94.1804 6.6232 96.6129 9.62967C96.6129 9.62967 106.283 25.9675 108.043 27.8663C108.043 27.8663 111.662 29.9036 111.069 34.6902L111.88 55.7751C111.88 55.7751 112.631 60.9178 107.589 60.087L102.664 60.3442C101.952 66.8516 109.092 67.0098 109.092 67.0098C119.415 66.5747 118.406 55.5575 118.406 55.5575Z" fill="white"/>
<path d="M53.5794 52.3352C53.5794 52.3352 87.159 51.8606 87.7919 51.8606C88.4247 51.8606 93.7049 51.7814 93.9224 54.7088C93.9224 54.7088 94.5355 58.5262 89.1169 58.5658L57.0204 58.8229C57.0204 58.8229 52.3928 59.4954 51.0481 55.9747C51.0481 55.9944 50.5537 52.3748 53.5794 52.3352Z" fill="white"/>
<path d="M57.1001 41.4356C57.1001 41.4356 84.5294 41.04 85.0436 41.0598C85.5578 41.0796 89.8689 41.0004 90.0469 43.374C90.0469 43.374 90.5413 46.4991 86.1115 46.5387L59.9082 46.7562C59.9082 46.7562 56.131 47.3101 55.0434 44.4421C55.0434 44.4025 54.6281 41.4554 57.1001 41.4356Z" fill="white"/>
<path d="M43.0986 47.3496C46.9322 47.3496 50.04 44.2412 50.04 40.407C50.04 36.5727 46.9322 33.4644 43.0986 33.4644C39.265 33.4644 36.1572 36.5727 36.1572 40.407C36.1572 44.2412 39.265 47.3496 43.0986 47.3496Z" fill="white"/>
<path d="M100.825 47.7856C104.659 47.7856 107.766 44.6773 107.766 40.843C107.766 37.0087 104.659 33.9004 100.825 33.9004C96.9913 33.9004 93.8835 37.0087 93.8835 40.843C93.8835 44.6773 96.9913 47.7856 100.825 47.7856Z" fill="white"/>
<path d="M44.4041 20.3306L99.9351 20.6273C99.9351 20.6273 101.102 18.5307 99.1045 16.3945L94.912 10.342C94.912 10.342 94.5956 8.50249 91.1348 8.26514L53.5604 8.75962C53.5604 8.75962 50.2776 9.11565 49.0712 11.3507L44.4041 20.3306Z" fill="white"/>
</svg>
