<svg width="301" height="301" viewBox="0 0 301 301" fill="none" xmlns="http://www.w3.org/2000/svg">
<path d="M162.505 294.49L272.546 145.694L272.549 145.691C274.89 142.509 277.296 139.429 279.892 136.52C282.853 133.228 287.864 126.063 285.734 116.976C284.101 110.009 278.373 102.365 265.282 94.7252C270.44 96.3799 276.24 98.6535 281.544 101.68C288.508 105.654 294.409 110.807 297.054 117.36C299.652 123.798 299.247 131.948 292.863 142.316L186.41 295.775L162.505 294.49Z" fill="#B22234" stroke="#B22234" stroke-width="3.35643"/>
<path d="M118.904 298.336L9.91376 151.88L9.87965 151.83C9.84431 151.777 9.79031 151.696 9.71972 151.588C9.57851 151.371 9.37106 151.045 9.11392 150.622C8.59937 149.775 7.88746 148.538 7.10987 146.999C5.55067 143.911 3.74781 139.643 2.7268 134.875C1.70537 130.104 1.4825 124.909 2.99533 119.91C4.49102 114.967 7.71741 110.098 13.7975 105.952C13.8401 105.93 13.8973 105.901 13.9686 105.866C14.143 105.778 14.4017 105.648 14.7355 105.483C15.4032 105.152 16.3712 104.679 17.5672 104.112C19.9606 102.977 23.2603 101.47 26.8903 99.9774C29.5434 98.8863 32.3598 97.8081 35.1189 96.8894C29.3834 100.239 22.7102 105.048 18.3681 111.165C13.1771 118.47 13.3817 128.247 18.3477 135.569L18.3499 135.572C18.6123 135.957 18.9029 136.39 19.2189 136.862C19.6883 137.562 20.2139 138.345 20.7867 139.179C22.2287 141.357 23.7483 143.487 25.2558 145.56L25.2616 145.568L25.2674 145.576L137.743 296.521L118.904 298.336Z" fill="#B22234" stroke="#B22234" stroke-width="3.35643"/>
<path d="M143.211 242.423L155.355 241.411L158.278 276.295L146.134 277.308L143.211 242.423Z" fill="#B22234" stroke="#B22234" stroke-width="3.35643"/>
<path d="M141.393 180.436L151.258 180.185L152.153 215.181L142.288 215.432L141.393 180.436Z" fill="#B22234" stroke="#B22234" stroke-width="3.35643"/>
<path d="M137.934 127.701L147.799 127.45L148.694 162.447L138.829 162.698L137.934 127.701Z" fill="#B22234" stroke="#B22234" stroke-width="3.35643"/>
<path d="M39.7559 79.2565L65.6748 70.5283" stroke="#B22234" stroke-width="1.67822" stroke-miterlimit="10"/>
<path d="M20.7949 70.5283L79.9162 48.4844" stroke="#B22234" stroke-width="1.67822" stroke-miterlimit="10"/>
<path d="M248.691 88.3893L236.853 81.8545" stroke="#B22234" stroke-width="1.67822" stroke-miterlimit="10"/>
<path d="M256.344 76.4957L230.385 61.7998" stroke="#B22234" stroke-width="1.67822" stroke-miterlimit="10"/>
<path d="M68.0751 28.9566C61.6055 27.2922 60.0593 30.8241 60.0593 30.8241M68.0751 28.9566C67.9184 30.6275 67.9178 30.6274 67.9171 30.6274L67.9184 30.6275L68.0751 28.9566ZM68.0751 28.9566C68.0751 28.9566 72.7021 29.3904 75.5537 33.2083C75.5464 33.228 75.5391 33.2476 75.5319 33.2669C75.3818 33.6697 75.2677 33.9869 75.1904 34.2051C75.1518 34.3143 75.1224 34.3987 75.1024 34.4567L75.0793 34.5238L75.0731 34.5422L75.0713 34.5475L75.0707 34.5491C75.0705 34.5497 75.0704 34.5501 76.6605 35.0867L78.1888 34.3934C77.9602 33.8894 77.7067 33.4208 77.4337 32.9851L60.0593 30.8241M60.0593 30.8241C53.5491 36.9948 59.978 41.3386 59.978 41.3386L60.0593 30.8241ZM60.0593 30.8241C61.5967 31.4971 61.5961 31.4984 61.5956 31.4997L61.5967 31.4971L60.0593 30.8241ZM242.175 114.178L242.176 114.23L242.181 114.279L242.181 114.279L242.181 114.28L242.181 114.281L242.181 114.285L242.184 114.321C242.185 114.333 242.186 114.349 242.188 114.367C242.19 114.398 242.192 114.437 242.195 114.483C242.204 114.63 242.215 114.854 242.222 115.142C242.236 115.72 242.235 116.557 242.17 117.567C242.039 119.597 241.655 122.279 240.661 124.962C239.669 127.64 238.088 130.267 235.591 132.276C233.12 134.263 229.641 135.734 224.681 135.954C224.663 135.953 224.639 135.952 224.611 135.95C224.522 135.946 224.385 135.937 224.206 135.921C223.848 135.89 223.329 135.831 222.707 135.721C221.453 135.5 219.832 135.081 218.279 134.301C216.73 133.524 215.307 132.419 214.342 130.847C213.546 129.549 213.004 127.84 213.041 125.55L221.506 125.109C224.277 125.535 226.483 125.189 228.184 124.218C229.925 123.225 230.919 121.702 231.472 120.228C232.019 118.772 232.163 117.297 232.182 116.227C232.192 115.684 232.169 115.224 232.144 114.895C232.131 114.731 232.118 114.598 232.107 114.502C232.104 114.476 232.101 114.453 232.099 114.433L230.439 71.3674C231.065 66.0298 229.355 62.1466 227.443 59.6032C226.488 58.3332 225.491 57.4056 224.727 56.7914C224.343 56.4836 224.016 56.2521 223.776 56.0934C223.718 56.0547 223.665 56.0203 223.618 55.9901C222.771 55.005 221.013 52.4268 218.74 48.8924C216.375 45.2164 213.556 40.6719 210.845 36.2407C208.135 31.8111 205.538 27.5023 203.617 24.3003C202.657 22.6994 201.867 21.3756 201.316 20.4522C201.041 19.9905 200.826 19.6289 200.679 19.3828L200.513 19.1023L200.47 19.0307L200.459 19.0126L200.457 19.0081L200.456 19.007C200.456 19.0068 200.456 19.0067 199.013 19.8631L200.456 19.0067L200.393 18.9012L200.316 18.8059C197.601 15.4589 194.558 13.6882 192.171 12.758C190.98 12.294 189.954 12.0393 189.212 11.8998C188.841 11.83 188.54 11.7888 188.324 11.7646C188.215 11.7526 188.128 11.7448 188.064 11.7398C188.032 11.7373 188.005 11.7355 187.985 11.7342L187.959 11.7327L187.949 11.7322L187.945 11.732L187.943 11.7319C187.942 11.7319 187.941 11.7318 187.864 13.4078L187.941 11.7318L187.927 11.7312L187.913 11.7308C169.81 11.2019 150.078 11.314 134.88 11.5577C127.279 11.6796 120.808 11.8345 116.237 11.959C113.952 12.0212 112.141 12.0758 110.901 12.1149C110.281 12.1344 109.804 12.1501 109.481 12.1609L109.115 12.1733L109.022 12.1765L109.003 12.1771C104.211 12.277 100.544 15.1997 98.1866 17.8295C96.9873 19.1675 96.0687 20.4933 95.45 21.4826C95.1396 21.9788 94.9021 22.3947 94.7399 22.6909C94.6588 22.8391 94.5964 22.9576 94.553 23.0416C94.5313 23.0837 94.5144 23.1171 94.5022 23.1413L94.4876 23.1706L94.483 23.18L94.4814 23.1833L94.4807 23.1846C94.4804 23.1852 94.4802 23.1857 95.9879 23.9227L94.4802 23.1857L94.3892 23.3718L94.3462 23.5744C92.8696 30.5334 88.1832 38.9667 83.7383 45.7859C81.5347 49.1666 79.4252 52.099 77.8666 54.1859C77.0877 55.2288 76.4475 56.0592 76.0032 56.6274C75.7942 56.8946 75.6287 57.1037 75.5126 57.2495C71.9604 59.2947 70.2107 61.6868 69.392 63.7196C68.9778 64.7482 68.8164 65.6495 68.7618 66.3154C68.7346 66.6481 68.734 66.9226 68.7418 67.1259C68.7457 67.2276 68.7518 67.3118 68.7578 67.3768C68.7584 67.3836 68.759 67.3903 68.7597 67.3967L70.2632 116.29L70.2636 116.304L70.2642 116.318C70.383 118.842 71.2415 120.794 72.536 122.251C73.8079 123.683 75.4159 124.543 76.9117 125.065C78.4089 125.587 79.867 125.795 80.934 125.876C81.472 125.917 81.922 125.926 82.2428 125.925C82.4035 125.925 82.5326 125.922 82.6249 125.919C82.6677 125.917 82.7027 125.916 82.7294 125.914L93.0556 125.881C93.044 125.911 93.0323 125.941 93.0203 125.971C92.5229 127.233 91.6842 128.834 90.319 130.262C88.9677 131.677 87.0801 132.946 84.4167 133.555C81.7401 134.167 78.1795 134.134 73.4638 132.773L72.92 132.616L72.4124 132.813C72.4105 132.813 72.4081 132.814 72.4052 132.815C72.3835 132.822 72.3369 132.836 72.2675 132.852C72.1284 132.886 71.9002 132.929 71.5988 132.948C71.0006 132.987 70.1044 132.933 69.0232 132.505C66.9124 131.67 63.7713 129.272 60.8349 122.48C60.8173 122.354 60.7924 122.17 60.7612 121.931C60.6941 121.416 60.5979 120.641 60.4831 119.609C60.2534 117.546 59.9489 114.456 59.6529 110.373C59.061 102.206 58.5031 90.0627 58.6451 74.196L58.6465 74.0372L58.6185 73.8827L58.6184 73.8821L58.6182 73.881L58.6176 73.8775L58.6124 73.8471C58.6075 73.8181 58.5998 73.7717 58.5901 73.7088C58.5706 73.5831 58.5428 73.3919 58.5117 73.1429C58.4495 72.6445 58.3744 71.9168 58.3269 71.0213C58.2315 69.2244 58.2487 66.7819 58.688 64.1736C59.5687 58.9447 62.0824 53.3066 68.5304 50.5547L68.6336 50.5107L68.73 50.4533L67.8717 49.0112C68.73 50.4533 68.7305 50.453 68.731 50.4527L68.7322 50.452L68.7349 50.4504L68.7416 50.4464L68.7599 50.4352C68.7663 50.4313 68.7736 50.4269 68.7817 50.4219C68.7918 50.4156 68.8033 50.4085 68.8159 50.4005C68.8614 50.372 68.9229 50.3325 68.9972 50.2828C69.1452 50.1838 69.3474 50.0422 69.5766 49.8636C70.022 49.5164 70.6282 48.9845 71.1278 48.3098C71.6168 47.6492 72.1251 46.6859 72.0714 45.5255C72.0144 44.2918 71.3449 43.2221 70.2432 42.3672L69.9673 42.1531L69.6289 42.0669L60.7222 39.7964C60.6027 39.6984 60.4424 39.5583 60.265 39.3799C59.8575 38.9702 59.4072 38.4069 59.1206 37.736C58.8438 37.0882 58.7167 36.3393 58.93 35.4701C59.1472 34.5847 59.7549 33.425 61.2138 32.0421L61.4604 31.8084L61.5805 31.5341C61.5817 31.5319 61.5832 31.5295 61.5848 31.5267C61.6023 31.4969 61.642 31.4341 61.7084 31.3517C61.84 31.1885 62.0778 30.9469 62.4663 30.7275C63.2053 30.3102 64.7458 29.8329 67.6569 30.5819L67.7859 30.6151L67.9113 30.6268C67.9104 30.6267 67.9108 30.6268 67.9126 30.6269L67.9128 30.627L67.9395 30.6301C67.968 30.6336 68.0169 30.64 68.084 30.6504C68.2185 30.6712 68.4246 30.7076 68.6846 30.7676C69.2071 30.8881 69.9323 31.1002 70.7238 31.4622C72.3059 32.1857 74.0853 33.4719 75.1322 35.7799L76.8901 39.6555L78.2505 35.6236L78.2506 35.6233L78.2506 35.6232L78.2515 35.6208L78.2558 35.6081L78.2749 35.5525C78.2923 35.5022 78.3189 35.4258 78.3546 35.3248C78.426 35.123 78.5339 34.8232 78.6771 34.4387C78.9637 33.6694 79.3915 32.5622 79.9525 31.2222C81.0758 28.5385 82.7258 24.9384 84.8355 21.2554C86.9499 17.5642 89.4965 13.8423 92.3987 10.8795C95.311 7.90629 98.4716 5.80918 101.807 5.14903L101.807 5.14907L101.817 5.14686L101.818 5.14684L101.818 5.14675L101.819 5.14645L101.831 5.1442L101.882 5.13402C101.929 5.12476 102.002 5.11063 102.101 5.09204C102.298 5.05485 102.599 4.99982 103.005 4.93027C103.815 4.79116 105.043 4.59396 106.694 4.36523C109.996 3.90776 114.991 3.32415 121.725 2.82693C135.194 1.8325 155.621 1.18357 183.385 2.58075L183.452 2.5841L183.518 2.58218L183.518 2.58217L183.518 2.58216L183.518 2.58215L183.525 2.58198L183.56 2.58122C183.592 2.58057 183.641 2.57971 183.708 2.57898C183.841 2.57753 184.042 2.57664 184.302 2.57914C184.822 2.58414 185.579 2.6027 186.507 2.65734C188.367 2.76686 190.896 3.02014 193.588 3.59162C199.094 4.76004 204.748 7.14463 207.263 11.7735L207.274 11.7945L207.286 11.8151L218.883 31.7885L219.733 33.2534L221.189 32.3902L221.189 32.3901L221.189 32.3898L221.19 32.3894L221.192 32.3883L221.212 32.3765C221.232 32.3652 221.263 32.3471 221.306 32.323C221.392 32.2748 221.522 32.2026 221.693 32.1124C222.034 31.9317 222.532 31.6802 223.145 31.4048C224.38 30.85 226.039 30.218 227.799 29.8604C229.574 29.4997 231.322 29.4447 232.81 29.9101C234.178 30.338 235.428 31.2335 236.337 33.0091C236.347 33.0762 236.359 33.1585 236.371 33.2543C236.41 33.5642 236.454 34.0101 236.472 34.5372C236.508 35.6129 236.43 36.9265 236.043 38.0978C235.664 39.2471 235.031 40.1493 234.004 40.6663C232.954 41.1954 231.198 41.4703 228.275 40.727L222.473 39.2517L226.662 43.5277L226.663 43.5279L226.663 43.528L226.664 43.5292L226.671 43.5363L226.701 43.5679C226.729 43.5966 226.772 43.6405 226.827 43.6989C226.939 43.8158 227.105 43.9908 227.317 44.2186C227.74 44.6743 228.347 45.3406 229.072 46.1754C230.525 47.8473 232.443 50.1835 234.316 52.8483C236.193 55.5197 237.996 58.4813 239.243 61.4059C240.502 64.3553 241.128 67.1109 240.844 69.4301L240.828 69.557L240.832 69.6848L242.175 114.178Z" fill="#B22234" stroke="#B22234" stroke-width="3.35643"/>
<path d="M110.494 109.189L110.496 109.189L110.472 107.511C110.496 109.189 110.496 109.189 110.497 109.189L110.499 109.189L110.508 109.189L110.546 109.188L110.694 109.186L111.272 109.178L113.467 109.147L121.311 109.037C127.809 108.945 136.486 108.824 145.203 108.702C162.653 108.458 180.229 108.215 180.864 108.215C180.892 108.215 180.924 108.215 180.959 108.215C181.769 108.213 184.496 108.208 187.097 108.838C188.457 109.167 189.648 109.64 190.492 110.275C191.291 110.877 191.735 111.582 191.804 112.507L191.81 112.579L191.819 112.634C191.819 112.635 191.819 112.636 191.819 112.637C191.819 112.637 191.819 112.637 191.819 112.638C191.82 112.642 191.821 112.649 191.822 112.66C191.825 112.689 191.831 112.744 191.835 112.819C191.844 112.969 191.849 113.199 191.827 113.481C191.784 114.05 191.637 114.784 191.243 115.504C190.532 116.803 188.717 118.583 183.578 118.62L183.577 118.62L117.539 119.148L117.424 119.149L117.315 119.165L117.315 119.165L117.314 119.165L117.313 119.165L117.305 119.166C117.294 119.168 117.274 119.17 117.247 119.174C117.192 119.18 117.104 119.19 116.989 119.2C116.757 119.221 116.415 119.244 115.991 119.251C115.139 119.266 113.992 119.217 112.782 118.969C110.405 118.483 108.038 117.301 106.908 114.573C106.907 114.563 106.906 114.553 106.905 114.543C106.893 114.382 106.88 114.141 106.88 113.847C106.882 113.247 106.942 112.482 107.149 111.746C107.357 111.007 107.686 110.391 108.159 109.961C108.603 109.559 109.299 109.204 110.494 109.189ZM105.232 114.676C105.216 114.47 105.2 114.171 105.202 113.809C105.934 113.781 106.618 114.029 106.796 114.297C106.807 114.323 106.818 114.352 106.829 114.381L105.232 114.676Z" fill="#B22234" stroke="#B22234" stroke-width="3.35643"/>
<path d="M117.728 86.8211L117.728 86.8211L117.739 86.821L117.714 85.1429C117.739 86.821 117.739 86.821 117.739 86.821L117.741 86.8209L117.749 86.8208L117.779 86.8204L117.9 86.8186L118.373 86.8119L120.166 86.7862C121.711 86.764 123.919 86.7325 126.573 86.6947C131.88 86.6193 138.968 86.519 146.088 86.4201C153.208 86.3211 160.361 86.2235 165.8 86.1531C168.52 86.1179 170.81 86.0895 172.453 86.0712C173.274 86.062 173.933 86.0554 174.401 86.0517C174.636 86.0499 174.821 86.0488 174.954 86.0484C175.056 86.0482 175.11 86.0485 175.133 86.0486C175.144 86.0487 175.147 86.0487 175.144 86.0486C175.229 86.0518 175.343 86.0541 175.483 86.0569C176.381 86.0747 178.329 86.1133 180.224 86.5669C181.317 86.8285 182.245 87.1977 182.885 87.6753C183.482 88.1196 183.781 88.6114 183.829 89.2471L183.834 89.3159L183.843 89.3697C183.843 89.3719 183.843 89.375 183.844 89.3788C183.846 89.3981 183.85 89.437 183.853 89.4926C183.859 89.6047 183.863 89.7791 183.846 89.9941C183.812 90.4306 183.699 90.9878 183.4 91.5316C182.881 92.4787 181.51 93.9019 177.39 93.9386L123.478 94.3851L123.363 94.386L123.254 94.402L123.253 94.4021L123.253 94.4021L123.248 94.4028C123.24 94.4038 123.226 94.4057 123.205 94.4083C123.162 94.4133 123.094 94.4209 123.003 94.4292C122.82 94.4457 122.548 94.4645 122.211 94.471C121.531 94.484 120.618 94.4458 119.661 94.2512C117.795 93.8721 116.005 92.969 115.136 90.9279C115.098 90.4222 115.052 89.5878 115.309 88.6601C115.466 88.0903 115.709 87.6509 116.033 87.3578C116.327 87.0921 116.816 86.8284 117.728 86.8211Z" fill="#B22234" stroke="#B22234" stroke-width="3.35643"/>
<path d="M101.512 83.0306C101.512 89.9698 95.8723 95.6017 88.9079 95.6017C81.9435 95.6017 76.3042 89.9698 76.3042 83.0306C76.3042 76.0914 81.9435 70.4595 88.9079 70.4595C95.8723 70.4595 101.512 76.0914 101.512 83.0306Z" fill="#B22234" stroke="#B22234" stroke-width="3.35643"/>
<path d="M220.282 83.9242C220.282 90.8634 214.643 96.4953 207.678 96.4953C200.714 96.4953 195.075 90.8634 195.075 83.9242C195.075 76.9849 200.714 71.353 207.678 71.353C214.643 71.353 220.282 76.9849 220.282 83.9242Z" fill="#B22234" stroke="#B22234" stroke-width="3.35643"/>
<path d="M204.859 39.6464C204.836 40.0684 204.769 40.4424 204.69 40.7508L94.3518 40.1627L102.677 24.1834C103.638 22.4164 105.495 21.2829 107.338 20.5859C108.237 20.246 109.071 20.0332 109.68 19.9061C109.984 19.8429 110.227 19.8016 110.39 19.7768C110.456 19.7667 110.509 19.7593 110.546 19.7543L187.693 18.7415C190.908 18.9729 192.434 19.9183 193.139 20.5906C193.503 20.9384 193.692 21.2538 193.785 21.4496C193.832 21.5487 193.856 21.6195 193.865 21.6506C193.866 21.6521 193.866 21.6534 193.867 21.6547L193.922 21.9769L194.134 22.2824L202.76 34.7048L202.83 34.8057L202.914 34.8953C204.629 36.7246 204.923 38.4373 204.859 39.6464Z" fill="#B22234" stroke="#B22234" stroke-width="3.35643"/>
</svg>
