<svg width="68" height="65" viewBox="0 0 68 65" fill="none" xmlns="http://www.w3.org/2000/svg">
<path d="M28.5752 15.7928C28.5752 13.7944 28.557 11.8722 28.5879 9.95179C28.5951 9.45491 28.4791 9.30621 27.9604 9.30802C23.5502 9.32978 19.1381 9.3189 14.7278 9.32253C13.7558 9.32253 13.3805 9.70516 13.375 10.6808C13.3696 11.8341 13.4059 12.9893 13.3605 14.1408C13.3388 14.6776 13.5274 14.7973 14.0134 14.7574C14.8965 14.6848 15.7252 14.868 16.4379 15.4283C17.2485 16.0685 17.7091 16.9063 17.7109 17.9399C17.7236 23.2333 17.7146 28.5267 17.7273 33.8183C17.7273 34.2191 17.5894 34.297 17.2213 34.3043C15.5475 34.3369 15.5475 34.3478 15.5475 32.6867C15.5475 27.9138 15.5475 23.1408 15.5475 18.3679C15.5475 17.1946 14.746 16.6089 13.5999 16.919C13.4331 16.9643 13.3787 17.0423 13.3787 17.1928C13.3787 17.3052 13.3787 17.4195 13.3768 17.5319C13.3605 19.2256 13.23 19.329 11.5181 19.0969C11.2896 19.0661 11.1899 18.9972 11.2062 18.7705C11.2116 18.6798 11.2062 18.5891 11.2062 18.4985C11.1941 17.4455 10.6488 16.919 9.57046 16.919H4.22992C4.22448 17.171 4.39676 17.2327 4.48743 17.3469C4.7667 17.6951 5.44854 18.0342 5.31979 18.3226C5.07498 18.8648 4.50194 19.2601 4.05583 19.708C3.88537 19.8803 3.76931 19.7044 3.66413 19.5992C2.49447 18.4332 1.33207 17.2617 0.155153 16.1029C-0.0606444 15.8908 -0.0443235 15.7602 0.160594 15.5553C1.31937 14.411 2.47271 13.2595 3.61517 12.1007C3.83641 11.8776 4.00324 11.8305 4.21542 12.0934C4.57629 12.5414 5.34699 12.8569 5.29259 13.3792C5.24544 13.8271 4.59442 14.2097 4.21179 14.6214C4.27707 14.8118 4.43665 14.741 4.55453 14.741C6.591 14.7465 8.62567 14.7302 10.6621 14.7556C11.1282 14.761 11.2225 14.5996 11.2134 14.1753C11.188 12.9548 11.1971 11.7326 11.2062 10.5103C11.2225 8.53187 12.6061 7.14823 14.5955 7.1446C18.9386 7.13553 23.2818 7.15186 27.6249 7.12103C27.9296 7.11921 28.4972 7.50185 28.5752 6.78192C28.6912 5.73557 28.3811 5.12989 27.6739 4.99025C27.5633 4.96849 27.449 4.9703 27.3366 4.9703C20.7992 4.9703 14.2618 4.9703 7.72439 4.9703C7.64279 4.9703 7.56119 4.98481 7.29461 5.0102C7.74616 5.43817 8.0762 5.7664 8.42619 6.07287C8.67644 6.29048 8.63473 6.44099 8.42075 6.67492C7.24202 7.97334 7.24928 7.97878 5.99983 6.73114C5.18378 5.9151 4.37862 5.08818 3.54626 4.29027C3.24886 4.00375 3.16907 3.82785 3.51725 3.49599C4.62888 2.43332 5.71512 1.34345 6.78141 0.235449C7.09876 -0.0927808 7.27466 -0.0655795 7.58295 0.24089C8.70364 1.36159 8.71452 1.35071 7.63554 2.47503C7.57388 2.5385 7.51948 2.60922 7.45238 2.68901C7.67543 2.8903 7.93294 2.78875 8.16324 2.79057C14.474 2.79782 20.7847 2.79601 27.0954 2.79601C29.4529 2.79601 30.7404 4.08173 30.7477 6.44462C30.7477 6.83269 30.6751 7.1573 31.3007 7.15548C38.4039 7.13191 45.5053 7.14098 52.6085 7.13916C52.7137 7.13916 52.8189 7.12647 52.9277 7.11921C52.9386 6.88891 52.7663 6.82725 52.6738 6.71482C52.3909 6.36846 51.7109 6.01847 51.836 5.74101C52.0808 5.1988 52.6538 4.80528 53.0963 4.35193C53.2287 4.21592 53.3411 4.30659 53.4427 4.40633C54.6432 5.605 55.8418 6.80731 57.0441 8.00235C57.2092 8.16556 57.211 8.28525 57.0441 8.45027C55.8563 9.629 54.6704 10.8095 53.4953 12.0028C53.265 12.2349 53.1163 12.1624 52.9476 11.9611C52.5777 11.5186 51.8179 11.1958 51.8668 10.679C51.9085 10.2347 52.5632 9.84842 52.9494 9.43133C52.8261 9.22097 52.623 9.3189 52.4634 9.3189C45.4292 9.31346 38.3931 9.3189 31.3588 9.30077C30.8311 9.30077 30.7259 9.45853 30.735 9.94816C30.7658 11.5077 30.7313 13.0691 30.7567 14.6304C30.764 15.0239 30.6407 15.1871 30.2671 15.276C29.7231 15.4066 29.1917 15.5952 28.5734 15.7856L28.5752 15.7928Z" fill="white"/>
<path d="M35.8379 24.898C34.0154 24.5644 32.9509 23.3367 32.9219 21.6756C32.9092 20.9738 32.8965 20.272 32.9273 19.572C32.9454 19.1712 32.7931 19.0914 32.4214 19.0842C30.7458 19.0515 30.7476 19.0388 30.7458 20.6999C30.7458 21.4688 30.6823 22.2486 30.9144 22.9903C31.0305 23.3639 30.8763 23.4618 30.588 23.5652C29.7175 23.8789 28.8507 24.2035 27.9839 24.5317C25.5575 25.4493 24.212 27.348 24.2392 29.9321C24.2609 31.9631 24.0597 34.0032 24.4804 36.0198C25.0462 38.729 26.379 40.9831 28.4935 42.7585C28.887 43.0885 28.9196 43.3424 28.7492 43.7849C27.9404 45.8812 25.9891 47.2775 23.7441 47.3265C23.6534 47.3283 23.5628 47.3301 23.4721 47.3283C22.997 47.3229 22.4239 47.4824 22.0758 47.2684C21.6931 47.0345 22.1193 46.4705 22.0649 46.0335C21.9525 45.125 21.6387 44.3307 21.0113 43.6634C20.7955 43.4331 20.5561 43.2209 20.3458 42.9851C19.7219 42.2906 19.6784 41.4383 20.3675 40.8054C21.6931 39.5904 22.1229 38.107 22.074 36.3534C22.0032 33.8908 22.0486 31.4227 22.0576 28.9583C22.0812 22.0165 27.6684 16.6614 34.6047 16.9298C40.696 17.1656 45.8226 22.3629 45.9332 28.4687C45.984 31.3176 45.9604 34.1683 45.9405 37.0172C45.9314 38.4099 46.4065 39.5668 47.393 40.5425C48.3868 41.5253 48.3886 42.2852 47.3785 43.2608C46.2995 44.3017 45.6975 45.4877 46.0565 47.0236C46.1 47.2104 46.0493 47.2884 45.8371 47.3301C43.1568 47.8687 40.3206 46.3853 39.3033 43.9263C39.0875 43.4022 39.1329 43.0849 39.6043 42.6769C42.2864 40.343 43.6682 37.3671 43.768 33.811C43.7952 32.8173 43.7788 31.8217 43.7734 30.8261C43.7607 27.8539 41.9273 25.6905 39.0023 25.2444C38.5924 25.1827 38.3694 25.0141 38.1681 24.6804C37.3992 23.411 37.2161 22.0274 37.2505 20.5748C37.285 19.0878 37.2578 19.1241 35.7998 19.0733C35.1741 19.0515 35.069 19.2546 35.0708 19.8277C35.0762 21.5232 35.0508 23.2134 35.8324 24.8962L35.8379 24.898Z" fill="white"/>
<path d="M38.5184 64.7028C37.5681 64.7028 36.6179 64.6738 35.6695 64.7137C35.1744 64.7355 35.0638 64.5596 35.0819 64.1008C35.1164 63.1977 35.1073 62.291 35.0837 61.3879C35.0747 61.0343 35.1943 60.8131 35.4718 60.5954C38.765 58.0095 40.738 54.642 41.4071 50.5055C41.4869 50.0177 41.2965 49.3468 41.6574 49.0965C41.9131 48.9188 42.5188 49.3214 42.9758 49.3486C46.1765 49.5335 49.4062 49.8835 52.547 49.004C57.7171 47.5551 61.1354 42.8638 61.1535 37.3981C61.156 36.7779 61.4648 36.4678 62.0802 36.4678C63.0522 36.4678 64.026 36.4823 64.998 36.4606C65.3661 36.4515 65.4931 36.544 65.5076 36.9429C65.8703 46.5178 58.5259 54.9448 48.98 55.9095C48.0987 55.9984 47.2192 55.9875 46.3397 56.0256C45.9081 56.0437 45.7231 55.8896 45.6687 55.4834C45.6451 55.3075 45.5708 55.1352 45.5091 54.9666C44.9034 53.3127 44.6042 53.2202 43.0991 54.1723C42.8669 54.3192 42.8379 54.4407 42.9685 54.6492C44.0348 56.3575 43.8661 58.111 43.2514 59.9263C42.7727 61.3353 42.4082 62.7842 42.0201 64.2223C41.9203 64.5922 41.7608 64.7246 41.3691 64.7119C40.4206 64.6811 39.4704 64.701 38.5202 64.701L38.5184 64.7028Z" fill="white"/>
<path d="M29.4945 64.7027C28.5225 64.7027 27.5487 64.6882 26.5767 64.71C26.2449 64.7172 26.0962 64.6048 26.0091 64.2911C25.4742 62.3779 24.9156 60.4702 24.3843 58.557C24.018 57.2386 24.3009 56.0019 24.9519 54.8377C25.1532 54.4768 25.1913 54.232 24.727 54.0905C24.5783 54.0452 24.4459 53.9455 24.3045 53.8747C23.5888 53.5169 23.0593 53.7133 22.7159 54.4641C22.6416 54.6291 22.5636 54.7923 22.502 54.961C22.2384 55.6706 21.7149 56.0218 20.9315 56.0146C11.6685 55.913 4.0576 49.2904 2.69027 40.1326C2.53251 39.0808 2.50168 38.0181 2.50349 36.9518C2.50349 36.5656 2.61955 36.4495 3.00218 36.4586C4.04128 36.4822 5.08581 36.5166 6.12128 36.4495C6.79769 36.406 6.87929 36.6816 6.8666 37.2511C6.80494 39.9367 7.53938 42.3958 9.14426 44.5537C11.5253 47.7526 14.7332 49.4246 18.721 49.4826C20.7738 49.5116 22.8356 49.6404 24.8848 49.372C25.1967 49.3321 25.5195 49.2795 25.8042 49.1526C26.3355 48.9168 26.4788 49.0855 26.5241 49.6277C26.7961 52.9027 28.0329 55.7897 30.1365 58.3068C30.8492 59.1591 31.6434 59.9334 32.5393 60.5917C32.824 60.8002 32.9382 61.0305 32.9273 61.3859C32.9038 62.2673 32.8929 63.1504 32.9292 64.0317C32.9509 64.5395 32.8385 64.748 32.2745 64.7172C31.3497 64.6646 30.4212 64.7027 29.4927 64.7027H29.4945Z" fill="white"/>
<path d="M26.4063 31.9215C26.4063 31.1744 26.3827 30.4273 26.4117 29.6819C26.4661 28.2892 27.128 27.261 28.4119 26.7152C29.5109 26.2473 30.6497 25.8683 31.7668 25.444C31.9644 25.3696 32.1295 25.2916 32.3144 25.4893C33.6292 26.8947 35.3755 27.1087 37.1563 27.2411C37.8091 27.29 38.4692 27.339 39.1039 27.4804C40.4531 27.7815 41.4976 28.8568 41.5593 30.2133C41.6427 32.0811 41.7896 33.9707 41.3435 35.8204C40.5927 38.9413 38.7394 41.1827 35.8434 42.5573C34.603 43.1448 33.3427 43.143 32.115 42.5301C28.47 40.7112 26.5641 37.7571 26.4045 33.6842C26.3809 33.0966 26.4009 32.5091 26.4027 31.9197L26.4063 31.9215ZM33.2538 38.6403C33.2538 38.6403 33.2538 38.6366 33.2538 38.6348C33.932 38.6348 34.6102 38.6566 35.2866 38.6312C37.1599 38.5605 38.8156 37.2185 39.2852 35.4178C39.4799 34.6707 39.2006 34.2971 38.4474 34.2971C38.2208 34.2971 37.9923 34.3189 37.771 34.2917C37.4156 34.25 37.2887 34.3733 37.2034 34.7378C36.9423 35.8421 36.1353 36.4515 34.9983 36.466C34.117 36.4768 33.2357 36.4678 32.3543 36.4678C30.695 36.4678 30.715 36.4678 30.7349 38.1398C30.7404 38.5877 30.9036 38.662 31.2899 38.6475C31.9445 38.6221 32.5991 38.6403 33.2556 38.6403H33.2538ZM30.7422 31.091C30.773 30.507 30.3015 29.9884 29.714 29.9576C29.1282 29.9286 28.6114 30.3982 28.5806 30.984C28.5516 31.5679 29.0213 32.0865 29.607 32.1174C30.1891 32.1482 30.7096 31.6749 30.7404 31.0892L30.7422 31.091ZM39.4285 31.0493C39.4358 30.4617 38.948 29.9648 38.3586 29.9576C37.7692 29.9521 37.2742 30.4381 37.2687 31.0275C37.2615 31.615 37.7493 32.1119 38.3368 32.1192C38.9226 32.1264 39.4213 31.6368 39.4285 31.0493Z" fill="white"/>
<path d="M49.6925 16.9225C49.9029 17.1492 49.999 17.2453 50.086 17.3486C50.3744 17.6914 51.0526 18.0432 50.9257 18.3206C50.6808 18.8629 50.1132 19.2636 49.6635 19.7061C49.4604 19.9056 49.3389 19.6716 49.2247 19.5592C48.0695 18.4113 46.9234 17.2525 45.7646 16.1101C45.5561 15.9033 45.5507 15.7728 45.7628 15.5624C46.9234 14.42 48.075 13.2666 49.2174 12.1078C49.4332 11.8884 49.6 11.8249 49.8177 12.0933C50.1803 12.5413 50.9474 12.8604 50.8985 13.3791C50.8567 13.8233 50.2039 14.2114 49.8031 14.643C49.9881 14.8425 50.2239 14.7446 50.427 14.7446C52.8025 14.7518 55.1781 14.7482 57.5519 14.75C59.8187 14.7518 61.177 16.0666 61.1334 18.317C61.1207 19.0025 61.3329 19.1639 61.9622 19.1059C62.5606 19.0496 63.1699 19.0932 63.8826 18.9372C63.5761 18.6579 63.2842 18.3569 62.9577 18.103C62.5624 17.7947 62.644 17.579 62.9704 17.258C64.0929 16.1536 64.0802 16.1409 65.2028 17.2634C66.066 18.1266 66.9237 18.9989 67.7996 19.8494C68.0444 20.0869 68.0825 20.2356 67.8159 20.4968C66.6662 21.6193 65.531 22.7545 64.4085 23.9042C64.1419 24.1762 63.995 24.1018 63.7575 23.877C62.5425 22.7273 62.5352 22.7345 63.6686 21.5504C63.7157 21.5014 63.7538 21.4452 63.8935 21.2729C62.9868 21.2729 62.1743 21.2638 61.3601 21.2783C61.0808 21.2838 61.157 21.5286 61.1534 21.6918C61.1443 22.1433 61.1371 22.5967 61.1534 23.0482C61.1643 23.3384 61.0663 23.4762 60.7671 23.4381C60.7454 23.4345 60.7218 23.4381 60.7 23.4381C59.0135 23.5179 58.9936 23.5179 58.99 21.8097C58.99 21.3472 58.8376 21.2511 58.4115 21.2566C56.8955 21.2802 55.3794 21.262 53.8652 21.2656C52.8406 21.2675 52.4653 21.6338 52.4653 22.6457C52.4616 25.2244 52.4471 27.803 52.4761 30.3817C52.4816 30.9167 52.3365 31.0618 51.8052 31.0509C50.2928 31.0219 50.291 31.0455 50.291 29.5403C50.291 27.2101 50.2855 24.8798 50.291 22.5496C50.2964 20.4714 51.6583 19.1022 53.7274 19.0932C55.2652 19.0859 56.8048 19.0732 58.3426 19.1022C58.8286 19.1113 59.0081 19.0134 58.9918 18.4802C58.9555 17.2507 58.6581 16.9189 57.4159 16.9189C55.1092 16.9189 52.8007 16.9189 50.4941 16.9189H49.6871L49.6925 16.9225Z" fill="white"/>
<path d="M33.9771 51.6715C32.5083 51.6715 31.0412 51.6552 29.5723 51.6806C29.1534 51.6878 28.983 51.5573 28.905 51.1438C28.7109 50.1211 28.5695 49.0965 28.5713 48.0537C28.5713 47.7872 28.6402 47.5931 28.8433 47.4063C29.6521 46.6628 30.2741 45.7797 30.6676 44.7515C30.7982 44.4124 30.9288 44.358 31.2515 44.5121C33.0759 45.3753 34.9147 45.3753 36.7408 44.5266C37.1234 44.3489 37.2322 44.4777 37.3628 44.8041C37.7509 45.7833 38.3366 46.6356 39.1146 47.3483C39.3521 47.5659 39.4446 47.789 39.4428 48.11C39.4374 49.0856 39.2977 50.0431 39.14 51.0024C39.0583 51.4938 38.8716 51.7078 38.313 51.6879C36.8695 51.6389 35.4224 51.6715 33.9771 51.6715Z" fill="white"/>
<path d="M5.22914 34.2969C4.48383 34.2969 3.73851 34.277 2.995 34.306C2.60149 34.3205 2.49994 34.1827 2.50719 33.8055C2.52714 32.5198 2.49812 31.2322 2.5217 29.9465C2.54346 28.7043 3.53359 27.7613 4.74315 27.7831C5.91825 27.8048 6.82859 28.7478 6.85579 29.9828C6.86848 30.5685 6.8703 31.1561 6.85397 31.7436C6.84491 32.0392 6.9519 32.148 7.24386 32.1299C7.53582 32.1117 7.83141 32.1172 8.12337 32.1335C8.58217 32.1607 8.88683 32.4164 8.99744 32.8516C9.10262 33.2687 8.93035 33.6151 8.5731 33.8363C8.13244 34.1083 7.68634 34.3441 7.12599 34.306C6.49673 34.2643 5.86203 34.2969 5.23096 34.2969H5.22914Z" fill="white"/>
<path d="M62.7925 34.2971C62.1832 34.2971 61.5703 34.259 60.9646 34.308C60.3807 34.3551 59.911 34.1176 59.4468 33.8401C59.0841 33.6225 58.91 33.2779 59.0115 32.8609C59.1167 32.4256 59.4178 32.1663 59.8765 32.1319C60.2773 32.1028 60.8413 32.2425 61.0408 32.0321C61.3454 31.7093 61.1206 31.1345 61.1496 30.6684C61.1659 30.3982 61.1423 30.1262 61.1568 29.856C61.2167 28.7154 62.1379 27.8087 63.2586 27.7833C64.3847 27.7579 65.4184 28.6102 65.471 29.7345C65.5362 31.1309 65.4855 32.5326 65.5018 33.9308C65.5054 34.2445 65.3658 34.3043 65.0938 34.3007C64.3267 34.2898 63.5596 34.2971 62.7925 34.2971Z" fill="white"/>
<path d="M34.0589 53.844C35.2105 53.844 36.3656 53.873 37.5153 53.8313C38.15 53.8077 38.1192 53.9999 37.8708 54.4605C36.9894 56.0908 35.8488 57.4998 34.4162 58.6804C34.1224 58.9234 33.9356 58.9615 33.6165 58.7003C32.1476 57.4908 30.9779 56.0491 30.0894 54.368C29.8917 53.9945 29.8754 53.8222 30.3958 53.8349C31.6145 53.8657 32.8367 53.844 34.0571 53.844H34.0589Z" fill="white"/>
</svg>
