<svg width="68" height="82" viewBox="0 0 68 82" fill="none" xmlns="http://www.w3.org/2000/svg">
<g clip-path="url(#clip0_171_212)">
<path d="M33.9858 81.1094C24.6071 81.1094 15.2283 81.1138 5.84952 81.1072C3.05645 81.105 0.825093 79.4574 0.179348 76.932C0.0709871 76.5096 0.0223351 76.0606 0.0223351 75.625C0.0112779 72.2879 -0.0241054 68.9486 0.0311809 65.6115C0.108582 61.0449 2.1011 57.25 5.11753 53.9859C10.1442 48.5435 16.3871 45.7505 23.8375 45.7571C30.7063 45.7615 37.5773 45.662 44.4416 45.7814C53.8359 45.9451 61.0275 50.1026 65.875 58.1678C67.3478 60.6181 68.0268 63.3359 67.998 66.2219C67.9671 69.2273 67.998 72.2348 67.9892 75.2424C67.9759 78.7498 65.6318 81.1028 62.12 81.1072C52.7412 81.116 43.3624 81.1094 33.9836 81.1094H33.9858ZM48.179 52.6259C47.1329 52.4534 46.3479 52.8912 45.7397 53.6962C45.4788 54.0434 45.1869 54.2712 44.7468 54.3619C43.661 54.583 43.0263 55.2995 42.7742 56.3522C42.6702 56.7834 42.4557 57.093 42.0975 57.3407C41.2129 57.9533 40.8989 58.8246 41.0581 59.864C41.1244 60.2952 41.0846 60.6645 40.8369 61.0382C40.2244 61.9626 40.2863 62.9091 40.817 63.849C40.9807 64.1365 41.1863 64.4107 41.1001 64.769C40.7905 66.0649 41.2969 67.0003 42.3297 67.7655C42.9688 68.2387 43.0395 69.3002 42.5619 69.9548C41.5203 71.379 40.4809 72.8032 39.4305 74.2207C39.1916 74.5436 38.955 74.8731 39.1872 75.2712C39.4437 75.7112 39.8661 75.6272 40.2929 75.5542C41.4053 75.3663 42.5287 75.2247 43.6411 75.0323C44.1431 74.9461 44.404 75.039 44.4748 75.6095C44.6163 76.7573 44.8198 77.8962 45.0099 79.0373C45.0719 79.4088 45.0763 79.8378 45.5562 79.9661C46.0626 80.101 46.3036 79.7494 46.5535 79.4066C47.7743 77.7391 48.9972 76.0717 50.2223 74.4065C50.8482 73.5573 50.8902 73.5551 51.4984 74.3799C52.7567 76.0894 54.015 77.7989 55.2645 79.5127C55.49 79.8223 55.7311 80.0678 56.149 79.9705C56.5803 79.871 56.6533 79.5238 56.7063 79.1523C56.8656 78.062 57.069 76.9784 57.1995 75.8837C57.2857 75.1694 57.5179 74.8819 58.3096 75.0633C59.3534 75.3043 60.4326 75.3862 61.4919 75.5609C61.8922 75.6272 62.2792 75.6891 62.5335 75.2977C62.7922 74.9018 62.5667 74.5746 62.3278 74.2495C61.2951 72.854 60.2734 71.4498 59.2451 70.0499C58.6237 69.2007 58.7165 68.2432 59.5657 67.624C60.468 66.9672 60.8108 66.1157 60.6759 65.041C60.6228 64.6186 60.6339 64.2316 60.8882 63.8579C61.5162 62.9379 61.461 61.9803 60.9169 61.0537C60.6936 60.6756 60.583 60.3085 60.6648 59.8817C60.8727 58.7848 60.4636 57.9356 59.5945 57.2876C59.2716 57.0466 59.0461 56.7834 58.9664 56.3654C58.7519 55.2398 58.0045 54.5985 56.9319 54.3287C56.5626 54.2358 56.2663 54.0943 56.0562 53.7758C55.4281 52.8161 54.5214 52.4755 53.4135 52.6303C52.9513 52.6944 52.5554 52.6038 52.164 52.3494C51.3148 51.7988 50.428 51.8474 49.581 52.3384C49.1277 52.6015 48.6854 52.7453 48.1723 52.6214L48.179 52.6259Z" fill="white"/>
<path d="M45.7482 25.8298C45.6487 27.8112 45.9627 30.2483 45.5845 32.6587C45.0936 35.7902 43.5013 38.2427 40.8476 39.9986C40.3235 40.3458 40.0448 40.3568 39.7507 39.6823C39.0607 38.0989 37.7958 37.2652 36.0532 37.232C34.8413 37.2099 33.625 37.1966 32.4131 37.2387C30.9204 37.2917 29.7969 38.0193 29.0428 39.2975C28.4347 40.3281 27.8487 40.4762 26.8225 39.7641C24.6221 38.236 23.2378 36.1418 22.5832 33.5588C22.3797 32.7561 22.2581 31.9378 22.2581 31.1063C22.2559 27.3004 22.2161 23.4945 22.2692 19.6908C22.3399 14.3966 25.8871 9.60213 30.739 8.13151C36.9311 6.25398 43.4217 10.0046 45.255 16.5041C45.7482 18.2555 45.7703 20.0402 45.7504 21.8337C45.7371 23.019 45.7482 24.2044 45.7482 25.832V25.8298Z" fill="white"/>
<path d="M19.7747 22.3512C19.7747 24.5848 19.7614 26.8205 19.7813 29.0541C19.788 29.994 19.5779 30.7547 18.5407 31.0179C18.1714 31.1108 18.1006 31.3673 18.1426 31.7145C18.2886 32.891 18.4522 34.063 18.837 35.1931C20.0334 38.7226 22.7425 40.2927 26.2056 40.8765C27.3202 41.0645 28.448 41.1662 29.5781 41.206C29.9098 41.2171 30.1 41.1884 30.1928 40.7682C30.4671 39.5475 31.2765 38.8619 32.5237 38.8088C33.7356 38.7558 34.9541 38.7447 36.1638 38.811C37.5835 38.8884 38.4924 39.9477 38.5079 41.4051C38.5234 42.9288 37.6432 44.0234 36.1969 44.1097C34.932 44.1871 33.6604 44.1384 32.391 44.1185C32.035 44.1119 31.6281 44.0544 31.3804 43.8045C30.7612 43.1742 29.9916 43.2339 29.2242 43.2163C27.6475 43.1787 26.0884 42.9907 24.5603 42.5993C19.7371 41.3608 16.9551 38.3201 16.327 33.3996C16.1413 31.9511 15.8914 31.009 14.2129 30.5159C12.1164 29.8989 11.0748 28.0169 10.5286 25.9514C10.0377 24.0982 10.0885 22.2362 10.6193 20.3963C11.4862 17.3887 13.3482 15.9623 16.4619 15.9004C17.7048 15.8761 17.6694 15.8716 17.7866 14.673C18.5495 6.92851 23.7597 1.15219 31.6812 0.150403C35.3411 -0.311791 38.8197 0.296359 42.1192 1.92841C46.7566 4.2239 49.2379 8.09616 50.2176 13.0542C50.3569 13.7553 50.4675 14.4696 50.5028 15.1839C50.5316 15.7743 50.7815 15.938 51.3277 15.9026C52.073 15.8539 52.8204 15.9402 53.5458 16.1171C55.8214 16.6678 57.3583 18.4612 57.6746 20.8496C57.9311 22.7802 57.7896 24.713 57.6281 26.6326C57.4977 28.185 56.6153 29.3482 55.2508 30.109C53.7891 30.9228 52.1968 31.2147 50.5449 31.1284C49.0698 31.051 48.3843 30.2571 48.4152 28.7489C48.4683 26.2942 48.5501 23.8395 48.5988 21.3848C48.6519 18.6536 48.7005 15.9159 48.1786 13.2179C47.0486 7.3907 42.8623 3.32163 36.9577 2.32868C31.9686 1.49054 27.4352 2.45031 23.7465 6.09479C21.0905 8.71979 19.9206 12.0458 19.7857 15.7279C19.7039 17.9327 19.7703 20.1419 19.7703 22.349C19.7703 22.349 19.7725 22.349 19.7747 22.349V22.3512Z" fill="white"/>
<path d="M59.3067 59.8175C58.9816 60.4721 59.3067 61.1577 59.791 61.8498C60.1869 62.4138 59.9127 62.9688 59.5566 63.4509C59.2382 63.88 59.1298 64.2957 59.2868 64.8331C59.5235 65.6425 59.2559 66.3081 58.4929 66.7128C58.0042 66.9716 57.7676 67.3763 57.7145 67.896C57.6282 68.7407 57.1329 69.1963 56.3345 69.2936C55.7574 69.3644 55.3681 69.6297 55.0961 70.1229C54.7113 70.8195 54.1187 71.0628 53.3535 70.8659C52.7852 70.7178 52.2809 70.7841 51.8077 71.1711C51.1885 71.6797 50.5273 71.6399 49.9169 71.1578C49.4636 70.7996 48.9969 70.72 48.4507 70.8593C47.6656 71.0605 47.0332 70.846 46.6351 70.103C46.383 69.6342 46.0203 69.3577 45.4675 69.3024C44.6094 69.2206 44.1229 68.7186 44.0212 67.8672C43.957 67.332 43.716 66.9472 43.2339 66.6929C42.493 66.3037 42.2432 65.6602 42.4621 64.884C42.6302 64.2869 42.4953 63.8136 42.1304 63.3514C41.6549 62.7499 41.6814 62.1218 42.1348 61.5292C42.4953 61.0581 42.6257 60.5937 42.4577 59.9966C42.2498 59.2624 42.4577 58.6189 43.1742 58.2407C43.7116 57.9577 43.9858 57.5264 44.0499 56.9382C44.1384 56.1332 44.616 55.7064 45.3923 55.6113C45.954 55.5428 46.3675 55.3017 46.6395 54.7909C47.0287 54.0567 47.6612 53.7935 48.4463 54.0323C49.008 54.2026 49.468 54.0965 49.9081 53.7426C50.5273 53.2451 51.1752 53.234 51.8011 53.7139C52.2721 54.0766 52.7387 54.2004 53.3358 54.0191C54.0413 53.8024 54.6649 54.0191 55.0342 54.6869C55.3571 55.2708 55.8148 55.5605 56.4717 55.6379C57.1484 55.7175 57.5906 56.131 57.668 56.8144C57.7499 57.5419 58.117 58.013 58.7362 58.3646C59.2072 58.6322 59.4129 59.0745 59.3067 59.8175ZM56.3942 62.4292C56.3832 59.3597 53.9373 56.9205 50.8745 56.9249C47.7806 56.9294 45.306 59.4261 45.3392 62.5111C45.3724 65.5496 47.8978 68.0353 50.9143 67.9955C53.9727 67.9579 56.4053 65.4877 56.3942 62.427V62.4292Z" fill="white"/>
<path d="M56.0162 74.7891C55.9167 75.3884 55.8216 76.0673 55.6867 76.7396C55.6004 77.1708 55.3218 77.2349 55.063 76.8944C54.1055 75.625 53.1523 74.349 52.2412 73.0442C51.8808 72.529 52.4314 72.2813 52.7388 72.2636C53.3757 72.226 54.1718 72.069 54.634 72.4737C55.2289 72.9912 55.7464 73.6767 56.025 74.4662C56.0516 74.5392 56.0206 74.6298 56.014 74.7913L56.0162 74.7891Z" fill="white"/>
<path d="M45.7261 74.7008C45.7283 73.7742 47.0817 72.3588 47.9044 72.3212C48.4616 72.2969 49.1627 71.9475 49.4922 72.5844C49.8173 73.2147 49.0764 73.5751 48.7823 74.0241C48.1786 74.944 47.493 75.8131 46.8362 76.6977C46.708 76.8702 46.604 77.1201 46.3453 77.0825C46.0202 77.0361 46.0489 76.7198 46.0069 76.4921C45.8941 75.8684 45.8079 75.2404 45.7261 74.703V74.7008Z" fill="white"/>
<path d="M42.1944 73.8405C41.7189 73.8869 41.5708 73.6614 41.845 73.2699C42.4752 72.3677 43.079 71.4366 43.811 70.6228C44.3284 70.0456 44.9565 70.5675 45.4165 70.855C45.8145 71.1027 45.9715 71.4897 45.6465 72.1045C44.8791 73.5552 43.6274 73.8162 42.1922 73.8427L42.1944 73.8405Z" fill="white"/>
<path d="M59.4197 73.8537C58.7917 73.7586 58.1924 73.679 57.5997 73.5706C57.2061 73.4998 55.8372 71.9806 55.8748 71.6068C55.9168 71.1844 56.1645 70.7775 56.578 70.6913C57.0292 70.5962 57.5201 70.0323 57.9889 70.6515C58.617 71.4852 59.2273 72.3322 59.8421 73.1748C59.9571 73.3296 60.0832 73.4976 59.9815 73.6989C59.8466 73.9642 59.5945 73.8116 59.422 73.8537H59.4197Z" fill="white"/>
<path d="M46.7257 62.3851C46.7457 60.0962 48.6232 58.2651 50.9319 58.2806C53.2009 58.2961 55.0475 60.2002 55.0231 62.5023C55.001 64.7668 53.1522 66.5957 50.8966 66.5868C48.5259 66.578 46.7058 64.7447 46.7257 62.3829V62.3851Z" fill="white"/>
</g>
<defs>
<clipPath id="clip0_171_212">
<rect width="68" height="81.1117" fill="white"/>
</clipPath>
</defs>
</svg>
