<svg width="68" height="68" viewBox="0 0 68 68" fill="none" xmlns="http://www.w3.org/2000/svg">
<path d="M13.0437 7.69346C13.0437 9.80594 13.0527 11.9202 13.0383 14.0327C13.0347 14.5446 13.1482 14.9898 13.4078 15.4368C15.5653 19.1445 17.6958 22.8684 19.8642 26.5688C20.1652 27.0825 20.149 27.279 19.5668 27.5241C10.9654 31.1363 1.17629 25.4333 0.112835 16.1722C-0.775778 8.43607 4.61718 1.493 12.2921 0.476409C12.867 0.400705 13.0725 0.510656 13.0599 1.15053C13.0166 3.3297 13.0437 5.51248 13.0437 7.69346Z" fill="white"/>
<path d="M12.4631 51.8016C12.4631 47.3081 12.4631 42.8127 12.4631 38.3192C12.4631 36.7258 12.847 36.3491 14.4638 36.3491C15.6101 36.3491 16.7565 36.3491 17.9011 36.3491C19.1808 36.3509 19.6585 36.8178 19.6585 38.0921C19.6621 42.7875 19.6585 47.4847 19.6585 52.1801C19.6585 56.5835 19.6585 60.9888 19.6585 65.3922C19.6585 66.8702 19.2475 67.2847 17.7893 67.2884C16.6213 67.2902 15.4515 67.292 14.2835 67.2884C12.8902 67.2847 12.4613 66.863 12.4613 65.4841C12.4594 60.9221 12.4613 56.3618 12.4613 51.7998L12.4631 51.8016Z" fill="white"/>
<path d="M41.2392 26.2752C48.9087 26.2932 55.1416 32.5477 55.1127 40.1974C55.0839 47.8939 48.8762 54.0781 41.1977 54.0637C33.5102 54.0493 27.317 47.8398 27.3296 40.1559C27.3422 32.4829 33.5805 26.2572 41.2392 26.2752ZM52.4144 40.1884C52.4271 34.0149 47.4108 28.9843 41.232 28.9735C35.0568 28.9627 30.0315 33.9843 30.0297 40.1631C30.0297 46.3654 35.0063 51.3528 41.2067 51.3618C47.4 51.3708 52.4018 46.3852 52.4144 40.1884Z" fill="white"/>
<path d="M7.16928 55.01C7.16928 58.5374 7.17109 62.0667 7.16928 65.5941C7.16928 66.845 6.72588 67.283 5.45875 67.2884C4.1772 67.2938 2.89745 67.2974 1.61591 67.2884C0.483961 67.2794 0.00270369 66.8017 0.00270369 65.6914C-0.00090123 58.5464 -0.00090123 51.3997 0.00270369 44.2547C0.00270369 43.148 0.49117 42.674 1.61951 42.6686C2.92269 42.6614 4.22587 42.6632 5.52905 42.6686C6.70966 42.674 7.16748 43.1228 7.16748 44.2944C7.17109 47.8669 7.16748 51.4393 7.16748 55.0136L7.16928 55.01Z" fill="white"/>
<path d="M21.7224 13.4111C19.7469 13.4111 17.7696 13.3967 15.7941 13.4219C15.3237 13.4273 15.1885 13.2957 15.1921 12.8235C15.2102 8.89411 15.2138 4.96475 15.1885 1.03538C15.1849 0.474818 15.394 0.418942 15.859 0.471214C22.2055 1.17237 27.6129 6.67708 28.159 12.9803C28.2023 13.4706 27.9463 13.4129 27.6489 13.4129C25.6734 13.4111 23.6961 13.4129 21.7206 13.4129L21.7224 13.4111Z" fill="white"/>
<path d="M25.5002 56.7745C25.5002 53.8311 25.502 50.8877 25.4966 47.9461C25.4966 47.5315 25.5344 47.1404 25.8048 46.8033C26.1797 46.3365 26.3762 46.3563 26.6303 46.8952C27.7605 49.2961 29.316 51.3852 31.4952 52.8974C32.4541 53.5625 32.7172 54.2691 32.6938 55.3722C32.6253 58.7626 32.6704 62.1567 32.6686 65.5489C32.6686 66.8539 32.2396 67.2847 30.9346 67.2901C29.6549 67.2955 28.3733 67.3009 27.0936 67.2883C25.976 67.2775 25.502 66.7926 25.5002 65.6733C25.4948 62.7082 25.5002 59.7432 25.5002 56.7763V56.7745Z" fill="white"/>
<path d="M66.9171 60.5039C66.9135 60.886 66.7422 61.1924 66.4845 61.4592C65.6247 62.346 64.7739 63.2418 63.9016 64.116C63.2707 64.7468 62.5804 64.7685 61.9423 64.1538C59.4351 61.7385 56.9387 59.3106 54.4495 56.8773C53.9051 56.3456 53.8438 55.8301 54.2854 55.183C54.4855 54.8874 54.3882 54.7702 54.1953 54.5846C53.5014 53.9123 52.8254 53.2219 52.1207 52.5622C51.8575 52.3153 51.8647 52.1693 52.1351 51.9332C52.7822 51.3726 53.368 50.7471 53.8601 50.0478C54.1322 49.6603 54.2944 49.7594 54.563 50.0334C55.2227 50.7075 55.9167 51.3492 56.5782 52.0215C56.8179 52.2648 56.9765 52.3351 57.2955 52.0972C57.8489 51.6826 58.4329 51.7349 58.9466 52.2288C61.47 54.6603 63.9791 57.1062 66.4917 59.5486C66.7585 59.8081 66.9207 60.1217 66.9189 60.5057L66.9171 60.5039Z" fill="white"/>
<path d="M45.7219 60.9707C45.7219 62.519 45.7255 64.0692 45.7219 65.6175C45.7183 66.7855 45.2479 67.2775 44.1069 67.2866C42.7605 67.2974 41.4122 67.301 40.0658 67.2848C39.0258 67.2721 38.5499 66.7927 38.5463 65.7418C38.5355 62.6885 38.5499 59.6351 38.5337 56.5835C38.5319 56.1347 38.6527 56.0104 39.1087 56.0734C41.1311 56.3582 43.1426 56.2717 45.1145 55.7364C45.7039 55.576 45.7363 55.7796 45.7291 56.2573C45.7093 57.829 45.7219 59.4008 45.7219 60.9707Z" fill="white"/>
<path d="M16.0376 15.5703C17.7734 15.5703 19.4316 15.5703 21.0881 15.5703C23.2673 15.5703 25.4464 15.5703 27.6256 15.5703C27.9537 15.5703 28.2204 15.5216 28.1501 16.0479C27.6256 20.0836 25.7619 23.3353 22.5373 25.8155C22.2507 26.0354 22.0794 26.1525 21.8343 25.7217C19.9561 22.4268 18.0509 19.1482 16.1548 15.8641C16.1223 15.8082 16.1061 15.7433 16.0376 15.5739V15.5703Z" fill="white"/>
<path d="M56.4613 13.3011C53.1556 13.3011 49.8516 13.3011 46.5459 13.3011C46.3206 13.3011 46.0935 13.3119 45.8736 13.2777C45.3365 13.1948 45.0283 12.8451 44.976 12.3278C44.9237 11.8051 45.1761 11.4049 45.6862 11.2355C45.9133 11.1598 46.171 11.1472 46.4144 11.1472C53.1141 11.1436 59.8156 11.1436 66.5154 11.1436C66.6956 11.1436 66.8777 11.1346 67.0525 11.1652C67.6383 11.2643 68.0493 11.7492 67.988 12.2971C67.9231 12.8829 67.5861 13.2344 66.9822 13.2885C66.7587 13.3083 66.5334 13.3011 66.3081 13.3011C63.0258 13.3011 59.7435 13.3011 56.4595 13.3011H56.4613Z" fill="white"/>
<path d="M56.5261 22.3062C59.922 22.3062 63.316 22.3116 66.7118 22.3008C67.3211 22.3008 67.7717 22.5009 67.9573 23.1083C68.134 23.6833 67.7446 24.2979 67.121 24.4295C66.9047 24.4764 66.674 24.4637 66.4487 24.4637C59.7922 24.4637 53.1375 24.4637 46.481 24.4637C46.3909 24.4637 46.3008 24.4655 46.2106 24.4637C45.4446 24.4385 44.9363 23.9861 44.9561 23.348C44.976 22.7226 45.4518 22.3098 46.2034 22.3098C49.6443 22.3044 53.0834 22.308 56.5243 22.308L56.5261 22.3062Z" fill="white"/>
<path d="M56.5279 0.00976239C59.8102 0.00976239 63.0925 0.00976239 66.3747 0.00976239C66.6217 0.00976239 66.8722 0.00255255 67.1138 0.0440091C67.6491 0.135935 67.9465 0.489217 67.9825 1.01373C68.0186 1.54185 67.7536 1.92758 67.2417 2.08439C67.011 2.15649 66.7551 2.1637 66.5099 2.1637C59.8102 2.16731 53.1104 2.16731 46.4107 2.1637C46.1656 2.1637 45.9096 2.14928 45.6807 2.07538C45.194 1.92037 44.9471 1.53825 44.9669 1.04798C44.9868 0.530673 45.2679 0.152157 45.8051 0.0494165C46.0664 -0.00105237 46.3422 0.00976239 46.6108 0.00976239C49.9147 0.00795993 53.2204 0.00976239 56.5243 0.00976239H56.5279Z" fill="white"/>
<path d="M41.5764 14.4978C41.5764 15.0818 41.589 15.6658 41.5728 16.2498C41.5476 17.178 40.9996 17.7909 40.0768 17.8233C38.8655 17.8666 37.6506 17.8648 36.4394 17.8251C35.5147 17.7963 34.9434 17.1852 34.9289 16.266C34.9091 15.0764 34.9091 13.8849 34.9289 12.6953C34.9452 11.7815 35.5292 11.1795 36.4538 11.1542C37.6434 11.1218 38.8349 11.1218 40.0245 11.1542C40.9798 11.1795 41.5458 11.7869 41.571 12.7476C41.5854 13.3316 41.5746 13.9156 41.5728 14.4996L41.5764 14.4978Z" fill="white"/>
<path d="M41.5728 3.35326C41.5728 3.95888 41.5909 4.56631 41.5692 5.17194C41.535 6.05695 40.96 6.64635 40.0732 6.66438C38.8619 6.68961 37.6489 6.68961 36.4358 6.66438C35.522 6.64455 34.9452 6.04613 34.929 5.11426C34.9091 3.94627 34.9109 2.78007 34.9272 1.61208C34.9416 0.624332 35.4859 0.0457425 36.4593 0.0223106C37.6489 -0.00833126 38.8385 -0.0065288 40.0281 0.0223106C41.0069 0.0457425 41.5476 0.620727 41.5728 1.60307C41.5873 2.18707 41.5764 2.77106 41.5764 3.35506C41.5764 3.35506 41.5746 3.35506 41.5728 3.35506V3.35326Z" fill="white"/>
<path d="M51.2001 15.6801C52.8836 15.6801 54.5671 15.6765 56.2506 15.6819C57.0617 15.6855 57.5393 16.0767 57.5537 16.7238C57.57 17.3889 57.0617 17.8341 56.2325 17.8341C52.9106 17.8413 49.5869 17.8413 46.2649 17.8341C45.4773 17.8341 44.9762 17.4051 44.9599 16.7724C44.9419 16.1055 45.4394 15.6855 46.283 15.6819C47.9214 15.6765 49.5598 15.6801 51.2001 15.6819V15.6801Z" fill="white"/>
<path d="M51.2411 6.67516C49.6027 6.67516 47.9624 6.67877 46.324 6.67516C45.4696 6.67336 44.9704 6.28042 44.9577 5.61892C44.9451 4.94119 45.4714 4.51942 46.3565 4.51942C49.6117 4.51762 52.8669 4.51762 56.1222 4.51942C57.0288 4.51942 57.5389 4.90514 57.5515 5.58467C57.5641 6.27321 57.0559 6.67516 56.1582 6.67696C54.5198 6.68057 52.8796 6.67696 51.2411 6.67696V6.67516Z" fill="white"/>
<path d="M34.9382 25.3668C34.9382 24.7377 34.9039 24.179 34.9472 23.6238C35.0048 22.8974 35.5888 22.3387 36.3387 22.3207C37.6166 22.2918 38.8964 22.29 40.1743 22.3207C40.9385 22.3405 41.5478 22.9912 41.5676 23.7031C41.5748 23.9176 41.5856 24.1051 41.281 24.1141C40.2049 24.1447 39.1343 24.224 38.0726 24.4331C37.0182 24.6404 36.007 24.9919 34.9382 25.365V25.3668Z" fill="white"/>
<path d="M50.3618 26.8033C51.5172 26.8033 52.6744 26.8033 53.8297 26.8033C54.6607 26.8033 55.4934 26.7871 56.3226 26.8105C57.0994 26.8322 57.5825 27.299 57.5518 27.9443C57.5212 28.5751 57.0652 28.9519 56.2937 28.9591C55.2375 28.9681 54.1812 28.9627 53.1268 28.9591C52.952 28.9591 52.7609 28.9987 52.6149 28.8563C51.8993 28.1588 51.1315 27.5207 50.3636 26.8033H50.3618Z" fill="white"/>
<path d="M34.4426 46.0841C31.2198 42.7243 31.5082 36.942 35.005 33.6183C38.6261 30.1756 44.3417 30.3288 47.7862 33.9698C51.4272 37.818 50.6377 43.3642 48.0061 46.0499C46.6633 42.8559 44.3507 41.021 40.8035 41.2012C37.6456 41.3617 35.6142 43.1623 34.4426 46.0841ZM37.6474 36.9835C37.6185 38.9662 39.2299 40.6136 41.2072 40.6244C43.1521 40.6335 44.7761 39.0257 44.7905 37.0736C44.8049 35.1071 43.2314 33.5065 41.2649 33.4885C39.2894 33.4705 37.6762 35.0296 37.6474 36.9835Z" fill="white"/>
</svg>
