<svg width="68" height="70" viewBox="0 0 68 70" fill="none" xmlns="http://www.w3.org/2000/svg">
<path d="M3.38282 69.2891C2.92536 69.0558 2.41186 68.9618 1.97429 68.6743C0.661594 67.81 0.0160941 66.5932 0.0142859 65.0346C0.00705344 61.0892 0.0106697 57.1421 0.0106697 53.1968C0.0106697 52.6785 0.237288 52.5368 0.690524 52.7719C4.69913 54.8548 9.45992 51.8751 9.31888 47.3638C9.30623 46.9823 9.25741 46.5971 9.16519 46.2283C9.08383 45.901 9.19774 45.8269 9.48342 45.8432C9.64073 45.8522 9.79984 45.8432 9.95715 45.8432C25.9663 45.8432 41.9772 45.8432 57.9863 45.8432C58.8307 45.8432 58.8054 45.8395 58.6879 46.6984C58.366 49.0345 59.1941 50.9294 61.0692 52.3054C62.9496 53.685 65.0054 53.8531 67.13 52.8424C67.2312 52.7936 67.3307 52.7393 67.4247 52.6779C67.8333 52.4048 67.9364 52.5368 67.9346 52.9961C67.9219 57.0553 67.9418 61.1146 67.9201 65.172C67.9093 67.0687 66.734 68.5803 64.9187 69.1408C64.7921 69.1806 64.6456 69.1661 64.557 69.2927H54.6774C54.6214 69.2583 54.569 69.2077 54.5075 69.1896C52.363 68.555 51.2926 67.1446 51.2872 64.9297C51.2836 63.4868 51.2728 62.0421 51.2945 60.5992C51.3017 60.1599 51.2203 59.9664 50.714 59.9682C39.5507 59.9827 28.3873 59.9827 17.224 59.9682C16.7177 59.9682 16.6382 60.1599 16.6436 60.5992C16.6635 62.1542 16.6653 63.711 16.6436 65.2678C16.6255 66.5642 16.0668 67.6039 15.0687 68.4248C14.5335 68.8642 13.8808 69.0414 13.2606 69.2927H3.38282V69.2891ZM34.5042 56.3013C39.4621 56.3013 44.4218 56.3013 49.3797 56.3013C50.5115 56.3013 50.8117 55.8529 50.3163 54.8223C49.3308 52.7737 48.3002 50.7486 47.3184 48.6982C47.0363 48.1087 46.644 47.8936 45.9948 47.8954C38.3537 47.9116 30.7144 47.9135 23.0733 47.8954C22.3826 47.8954 22.0101 48.1557 21.7208 48.7597C20.7715 50.7504 19.7771 52.7194 18.8025 54.6975C18.2329 55.8529 18.5222 56.3031 19.8313 56.3031C24.7223 56.3031 29.6133 56.3031 34.5042 56.3031V56.3013Z" fill="white"/>
<path d="M58.0532 32.331C58.5921 30.8683 59.6064 30.6206 60.8341 30.6459C64.1321 30.711 66.9601 33.0868 67.3018 36.1444C67.441 37.3884 67.1282 37.7427 65.8896 37.7427C65.3508 37.7427 64.812 37.7427 64.1068 37.7427C64.3871 37.9905 64.5571 38.1442 64.7306 38.2942C66.3399 39.6865 67.3307 41.4349 67.7737 43.5107C67.8912 44.0585 67.7827 44.2466 67.1662 44.2466C45.0384 44.2303 22.9088 44.2303 0.780954 44.2502C0.0739785 44.2502 0.0685541 43.9663 0.180658 43.451C0.636305 41.3518 1.65609 39.5943 3.31413 38.2165C3.44974 38.1044 3.57993 37.9832 3.85295 37.7446C3.06461 37.7446 2.42815 37.75 1.78989 37.7446C0.92018 37.7355 0.654386 37.4625 0.676083 36.6091C0.750216 33.66 3.26351 30.9731 6.1999 30.711C6.60311 30.6748 7.01174 30.682 7.41676 30.6585C8.55046 30.5916 9.39123 31.0165 9.8505 32.1557C10.0639 31.9857 10.0856 31.7615 10.1579 31.5698C11.0167 29.2717 11.7092 26.9103 12.7471 24.6809C13.4649 23.1385 14.3545 21.7119 15.6184 20.5403C17.0233 19.2366 18.6886 18.5803 20.5889 18.5712C24.5813 18.5495 28.5736 18.5712 32.5659 18.555C33.0379 18.5531 33.1825 18.6815 33.1717 19.1589C33.1427 20.6017 33.1337 22.0464 33.1753 23.4893C33.1915 24.0354 32.9927 24.1294 32.5171 24.0932C32.047 24.0571 31.5679 24.0679 31.0996 24.1204C30.6312 24.1728 30.2714 24.4133 30.3257 24.9575C30.3763 25.4656 30.7162 25.7043 31.2062 25.7061C33.0559 25.7115 34.9057 25.7133 36.7554 25.7061C37.2924 25.7043 37.6196 25.415 37.6034 24.8707C37.5889 24.3644 37.2707 24.1059 36.7608 24.0987C36.6704 24.0987 36.58 24.1041 36.4896 24.0968C35.9363 24.0498 35.2004 24.3464 34.8767 23.9685C34.6037 23.6484 34.7809 22.9396 34.7773 22.4026C34.77 21.3196 34.7899 20.2365 34.7682 19.1552C34.7592 18.7466 34.8333 18.5568 35.3125 18.5604C39.35 18.5803 43.3876 18.5441 47.4251 18.5821C50.2042 18.6092 52.2365 20.0231 53.7879 22.2345C54.9776 23.9305 55.7352 25.8326 56.4241 27.7691C56.9431 29.2283 57.462 30.6893 58.0496 32.3419L58.0532 32.331ZM22.5761 30.3005C21.2453 30.3005 19.9145 30.2861 18.5855 30.3041C17.3886 30.3222 16.3398 31.1811 16.2458 32.3274C16.1518 33.4702 16.206 34.6237 16.1862 35.7737C16.1789 36.1624 16.4411 36.1263 16.6906 36.1245C18.0124 36.1118 17.7556 36.2474 17.7791 35.1445C17.7936 34.423 17.7701 33.7016 17.7863 32.9802C17.8026 32.1828 18.0648 31.9152 18.8459 31.9134C21.3267 31.9061 23.8056 31.9061 26.2863 31.9134C27.0548 31.9152 27.3242 32.2027 27.3332 32.9892C27.3423 33.6889 27.335 34.3869 27.335 35.0866C27.335 36.157 27.335 36.1371 28.4217 36.1353C28.834 36.1353 28.9714 36.0214 28.9587 35.6019C28.9298 34.6563 28.9696 33.707 28.9425 32.7614C28.9009 31.3167 27.8721 30.3168 26.431 30.3041C25.1454 30.2915 23.8598 30.3023 22.5761 30.3041V30.3005ZM45.1215 30.3005C41.9881 30.3005 39.2325 32.5372 38.6286 35.5784C38.5942 35.7538 38.4369 36.0485 38.7136 36.0937C39.1294 36.1624 39.5742 36.1588 39.9937 36.0992C40.3318 36.0503 40.2432 35.6652 40.3192 35.4338C40.9755 33.387 42.8415 31.964 44.966 31.9188C47.181 31.8718 49.1537 33.1338 49.8028 35.215C50.0668 36.0594 50.4772 36.1841 51.2222 36.1444C51.7122 36.1191 51.6995 35.9509 51.6199 35.5748C50.9799 32.5118 48.2641 30.3005 45.1215 30.3023V30.3005Z" fill="white"/>
<path d="M33.913 2.93822C30.7126 2.98704 27.91 4.08818 25.5468 6.29048C25.1273 6.68103 24.7096 7.0734 24.0768 6.96672C23.4457 6.86004 23.0226 6.48033 22.8165 5.87461C22.6176 5.28697 22.84 4.81505 23.2505 4.41003C25.3732 2.31261 27.8847 0.909506 30.812 0.336331C36.0393 -0.688875 40.6247 0.632863 44.5321 4.25815C45.3313 4.99948 45.3963 5.84206 44.7653 6.51107C44.1542 7.15838 43.2754 7.12041 42.4961 6.38269C40.0931 4.10988 37.2399 2.97257 33.9112 2.93822H33.913Z" fill="white"/>
<path d="M41.608 9.04977C41.59 9.66634 41.3115 10.1346 40.7528 10.3968C40.1579 10.6753 39.5974 10.5505 39.1291 10.1129C38.2088 9.25409 37.1781 8.57966 35.954 8.25962C33.3341 7.57434 31.0142 8.15475 28.9946 9.95745C28.2225 10.6463 27.5933 10.7277 26.9442 10.2359C26.1775 9.6573 26.0799 8.69899 26.7796 8.0101C28.991 5.83312 31.6652 4.84227 34.7534 5.06286C37.1492 5.23282 39.2285 6.18028 40.9879 7.82386C41.3477 8.16017 41.6135 8.53265 41.6062 9.04977H41.608Z" fill="white"/>
<path d="M3.69373 45.8413C4.75328 45.8413 5.81284 45.8576 6.8724 45.8322C7.25573 45.8232 7.43292 45.957 7.54503 46.3186C8.03322 47.9043 7.48174 49.7342 6.16181 50.8371C4.82923 51.9491 3.03014 52.1715 1.54568 51.4085C0.522278 50.8841 0.0105794 50.047 0.0105794 48.897C0.0105794 48.0635 0.0358931 47.2281 0.00153877 46.3946C-0.0183506 45.9335 0.153421 45.8214 0.583754 45.8322C1.61981 45.8576 2.65767 45.8413 3.69373 45.8413Z" fill="white"/>
<path d="M67.9307 48.2588C67.9307 48.5517 67.8783 48.8555 67.9398 49.1357C68.2074 50.3472 67.5257 50.8679 66.5529 51.3507C63.5497 52.8424 60.1034 50.6835 60.2336 47.3457C60.2354 47.2788 60.239 47.2101 60.2462 47.1432C60.3619 45.9137 60.4415 45.8395 61.6529 45.8395C63.546 45.8395 65.4391 45.854 67.3304 45.8305C67.7969 45.8251 67.9705 45.9534 67.9398 46.4344C67.9018 47.0401 67.9307 47.6513 67.9307 48.2588Z" fill="white"/>
<path d="M36.5689 14.0779C36.1603 14.0924 35.8402 13.9025 35.5329 13.6566C34.4552 12.7887 33.4861 12.7869 32.4283 13.6349C31.6707 14.2424 30.8227 14.228 30.264 13.5988C29.6836 12.946 29.783 12.06 30.5099 11.3947C32.2403 9.80893 35.0971 9.64439 37.0029 11.0186C37.3536 11.2717 37.6628 11.5646 37.869 11.9479C38.406 12.9424 37.7044 14.0906 36.5689 14.0779Z" fill="white"/>
<path d="M48.4612 54.683H47.662C38.9107 54.683 30.1612 54.683 21.4098 54.683C20.8734 54.683 20.7216 54.4461 20.9542 53.9724C21.6105 52.6398 22.2777 51.3108 22.9178 49.9692C23.0751 49.642 23.2614 49.5154 23.6356 49.5154C30.8971 49.5262 38.1603 49.5244 45.4217 49.5262C45.6604 49.5262 45.8991 49.4774 46.0473 49.7848C46.8212 51.3832 47.615 52.9707 48.4612 54.683Z" fill="white"/>
</svg>
