<svg width="130" height="130" viewBox="0 0 130 130" fill="none" xmlns="http://www.w3.org/2000/svg">
<circle cx="65" cy="65" r="65" fill="white"/>
<path d="M31.0177 64.9618C31.0177 63.6641 31.0404 62.3663 31.0063 61.0685C30.9931 60.5747 31.1312 60.3288 31.6193 60.1547C33.127 59.6175 34.6083 59.0045 36.1123 58.454C36.5134 58.3064 36.7064 58.0738 36.8066 57.6708C37.4498 55.0677 38.4714 52.6159 39.8411 50.3154C40.0851 49.9049 40.1249 49.5776 39.9205 49.1425C39.2433 47.6915 38.619 46.214 37.9493 44.7592C37.7828 44.396 37.762 44.1519 38.0817 43.8379C40.017 41.9366 41.9353 40.0164 43.8385 38.0811C44.1487 37.7652 44.3928 37.7727 44.7598 37.943C46.2373 38.6222 47.7337 39.2578 49.2093 39.9389C49.5953 40.1167 49.8942 40.0959 50.2555 39.8783C52.5957 38.4784 55.0891 37.4398 57.7395 36.7871C58.0971 36.7001 58.2938 36.526 58.4243 36.1742C58.9976 34.6286 59.6086 33.0962 60.1856 31.5506C60.3237 31.1798 60.4826 30.9963 60.9291 31.0001C63.6419 31.0247 66.3567 31.0247 69.0695 31.0001C69.5103 30.9963 69.6768 31.1722 69.8168 31.5468C70.3825 33.0716 70.9878 34.5794 71.5459 36.1061C71.6935 36.5071 71.9243 36.7001 72.3272 36.8003C74.9512 37.453 77.4257 38.4822 79.7431 39.8726C80.1366 40.1091 80.4545 40.1016 80.8574 39.9181C82.3349 39.2389 83.8313 38.6051 85.3051 37.9222C85.6664 37.7538 85.884 37.7992 86.1602 38.0792C88.0671 40.0089 89.9835 41.9328 91.9207 43.8322C92.2442 44.15 92.2215 44.3922 92.0569 44.7535C91.3816 46.2329 90.744 47.7274 90.063 49.2031C89.8832 49.5909 89.9116 49.8879 90.1273 50.2492C91.5121 52.5705 92.545 55.0412 93.1977 57.667C93.298 58.0681 93.4815 58.3027 93.8901 58.4502C95.4168 59.0045 96.9246 59.6118 98.4475 60.1793C98.8164 60.3174 99.0056 60.4763 98.9999 60.9228C98.9753 63.6357 98.9772 66.3504 98.9999 69.0633C99.0037 69.4984 98.8372 69.6743 98.4588 69.8143C96.9132 70.3875 95.3827 71.0024 93.8371 71.5737C93.4871 71.7024 93.3074 71.8934 93.2185 72.2491C92.5564 74.9203 91.5083 77.4364 90.0951 79.7974C89.887 80.1455 89.8984 80.4274 90.0611 80.7811C90.7459 82.2814 91.391 83.7986 92.0815 85.2969C92.248 85.6582 92.2045 85.8758 91.9245 86.1539C89.9949 88.0608 88.0728 89.9772 86.1715 91.9145C85.8575 92.2342 85.6172 92.2228 85.2502 92.0563C83.7727 91.3791 82.2763 90.7415 80.8007 90.0624C80.4147 89.8845 80.1177 89.9053 79.7545 90.121C77.4351 91.5077 74.9625 92.5425 72.3367 93.1895C71.8902 93.2993 71.6784 93.5338 71.5251 93.9481C70.9727 95.4521 70.3692 96.9353 69.8225 98.4412C69.6674 98.8669 69.4574 98.9993 69.009 98.9955C66.3434 98.9728 63.676 98.969 61.0085 98.9974C60.5129 99.0031 60.3218 98.829 60.1629 98.3882C59.6181 96.8823 59.0108 95.3992 58.4584 93.8952C58.3127 93.4998 58.0914 93.2879 57.6827 93.1895C57.066 93.042 56.4644 92.8282 55.8496 92.6674C55.5166 92.5804 55.4485 92.4252 55.5639 92.1074C56.3869 89.8675 56.576 87.5652 56.209 85.2137C56.1598 84.9015 56.226 84.6613 56.4777 84.4683C56.5514 84.4115 56.6101 84.334 56.6763 84.2678C57.2949 83.651 57.8152 82.8281 58.5587 82.4762C59.3305 82.1092 60.1837 82.8035 61.0161 82.9775C71.2281 85.1191 80.9501 78.755 83.0519 68.5298C85.1159 58.4843 78.1616 48.4577 68.0177 46.8553C57.7111 45.2265 48.3429 52.0843 46.7821 62.423C46.3565 65.2437 46.6213 68.0247 47.5313 70.73C47.6789 71.1689 47.6524 71.4488 47.2948 71.7686C46.6308 72.3683 46.0973 73.1496 45.3595 73.6225C44.599 74.1087 43.6777 73.5752 42.8188 73.5904C41.1748 73.6206 39.5724 73.8174 38.0287 74.383C37.5898 74.5438 37.3742 74.4909 37.2796 74.0236C37.2285 73.7701 37.0866 73.5317 37.0639 73.2782C36.9542 72.0675 36.2675 71.4734 35.121 71.148C33.9027 70.8018 32.7468 70.24 31.5493 69.8124C31.1236 69.6611 30.9893 69.4435 31.0007 68.9952C31.0328 67.6501 31.012 66.305 31.012 64.9599L31.0177 64.9618Z" fill="black"/>
<path d="M74.5159 59.3885C74.5159 60.4971 74.5367 61.6057 74.5102 62.7124C74.4894 63.6243 73.2711 64.6799 72.3611 64.6288C71.4417 64.5777 70.5242 64.5323 69.6047 64.4964C68.9142 64.4699 68.6607 64.714 68.6796 65.4177C68.7005 66.2198 68.7629 67.0201 68.795 67.8203C68.8272 68.613 68.5964 68.857 67.8189 68.8343C67.0167 68.8097 66.2165 68.753 65.4163 68.7208C64.6955 68.6924 64.4212 68.9478 64.442 69.6724C64.4666 70.4972 64.4931 71.3239 64.5782 72.145C64.6501 72.8355 64.4363 73.3293 63.9331 73.8249C60.7076 77.0069 57.5255 80.2306 54.3019 83.4145C53.8195 83.8912 53.7079 84.3377 53.8535 84.9847C55.2837 91.3506 51.048 97.6466 44.578 98.8082C38.1534 99.9603 32.0012 95.4596 31.1367 88.9764C30.0735 80.9968 37.2188 74.3981 45.0453 76.1537C45.7074 76.3032 46.1425 76.1405 46.6079 75.6732C53.1195 69.137 59.65 62.6197 66.1616 56.0854C66.5741 55.6711 66.9865 55.4725 67.5786 55.4592C69.6066 55.4138 71.6328 55.3079 73.6608 55.2379C74.5802 55.2057 74.7732 55.4214 74.7675 56.3465C74.7599 57.3605 74.7675 58.3745 74.7675 59.3885C74.6842 59.3885 74.6029 59.3885 74.5197 59.3885H74.5159ZM40.59 85.9609C38.7153 85.9647 37.1678 87.5122 37.1602 89.3888C37.1545 91.2636 38.6907 92.8168 40.5711 92.8376C42.4667 92.8584 44.0502 91.2731 44.035 89.3718C44.0199 87.4951 42.4667 85.9571 40.59 85.9609Z" fill="black"/>
</svg>
