<svg width="130" height="130" viewBox="0 0 130 130" fill="none" xmlns="http://www.w3.org/2000/svg">
<circle cx="65" cy="65" r="65" fill="white"/>
<path d="M63.8401 76.3847C63.8401 73.5255 63.8269 70.664 63.8512 67.8048C63.8556 67.2713 63.7321 66.9979 63.1964 66.7775C61.0603 65.9001 59.9382 63.7177 60.3989 61.4757C60.8354 59.3527 62.7599 57.7986 64.9666 57.7853C67.2064 57.7743 69.164 59.3461 69.5939 61.5043C70.0392 63.7463 68.9061 65.9177 66.7633 66.7885C66.2541 66.9957 66.1394 67.2493 66.1416 67.7541C66.1593 73.5299 66.1637 79.3035 66.1372 85.0792C66.135 85.734 66.3114 85.8244 66.9242 85.7626C73.8574 85.0616 79.9087 78.9618 80.5216 72.0154C80.6259 70.825 81.266 70.2297 82.4417 70.2297C84.2295 70.2297 86.0174 70.1923 87.803 70.2474C88.5217 70.2694 88.6518 70.0247 88.6473 69.3656C88.6187 64.6634 88.6473 59.9612 88.6165 55.259C88.6121 54.5712 88.751 54.3243 89.4718 54.4676C89.9127 54.5558 90.5873 54.2846 90.8033 54.5117C91.1627 54.8886 90.9334 55.5566 90.9334 56.0989C90.9444 60.5255 90.9555 64.9544 90.9246 69.381C90.9202 70.071 91.112 70.2584 91.7932 70.2452C93.9095 70.2033 96.028 70.2606 98.1443 70.2121C98.8564 70.1945 99.0526 70.4281 98.9886 71.0939C98.9335 71.6671 98.9776 72.2469 98.9776 72.8244C98.9776 73.934 98.45 74.6924 97.3948 75.0995C95.4747 75.8402 93.5568 76.5897 91.6278 77.3106C91.2046 77.4693 90.9643 77.6876 90.8342 78.1417C90.3536 79.8083 89.6945 81.4088 88.8502 82.9232C88.6209 83.3333 88.6473 83.6595 88.8303 84.0652C89.8113 86.2432 90.7548 88.4367 91.7447 90.6103C91.9563 91.0777 91.9409 91.3731 91.5529 91.7501C89.8378 93.4189 88.1491 95.1119 86.4781 96.8248C86.1254 97.1863 85.8565 97.2018 85.4178 97.0034C83.2441 96.0158 81.0462 95.0766 78.8704 94.0912C78.4339 93.8928 78.0944 93.8598 77.6535 94.1067C76.139 94.951 74.5386 95.6101 72.872 96.0951C72.4531 96.2164 72.2349 96.4258 72.085 96.8248C71.2384 99.058 70.3522 101.276 69.5145 103.511C69.3271 104.009 69.1177 104.234 68.5313 104.225C66.1681 104.183 63.8027 104.197 61.4372 104.216C60.9324 104.221 60.6767 104.095 60.4871 103.577C59.6736 101.362 58.7852 99.1748 57.9497 96.9659C57.7711 96.4963 57.5485 96.2076 57.026 96.0554C55.3881 95.5837 53.8141 94.9289 52.3216 94.1C51.9204 93.8774 51.5986 93.884 51.1797 94.0736C49.0039 95.059 46.8038 95.9915 44.6345 96.9857C44.1187 97.2216 43.8255 97.1467 43.4397 96.7499C41.8106 95.0722 40.1594 93.4189 38.4818 91.7919C38.0806 91.4017 38.0122 91.1019 38.2481 90.5905C39.2445 88.4191 40.1815 86.2212 41.1669 84.0475C41.3565 83.6287 41.3454 83.3068 41.125 82.9056C40.3005 81.411 39.6392 79.8414 39.1696 78.199C39.0329 77.7228 38.786 77.4715 38.3341 77.2996C36.1009 76.4552 33.8854 75.5624 31.6456 74.7357C31.1364 74.5484 30.9821 74.2992 31.0019 73.7856C31.0394 72.8244 31.0438 71.8589 31.0019 70.8999C30.9777 70.3422 31.1805 70.2099 31.7052 70.2165C33.8501 70.243 35.9951 70.1856 38.1401 70.2496C38.9513 70.2738 39.066 69.974 39.0616 69.2686C39.0351 64.6215 39.055 59.9744 39.0373 55.3273C39.0351 54.6946 39.0461 54.2582 39.8949 54.4676C40.3292 54.5756 40.9949 54.3 41.2264 54.5315C41.5681 54.871 41.3454 55.5213 41.3476 56.0394C41.3565 60.4396 41.3719 64.8397 41.3344 69.2377C41.3278 70.0005 41.4733 70.2782 42.3066 70.2496C44.3943 70.1812 46.4863 70.2496 48.5762 70.2121C49.1868 70.2011 49.3367 70.373 49.3786 70.9837C49.8835 78.4944 54.934 84.2107 62.2882 85.6392C63.3257 85.8405 63.8445 85.4231 63.8445 84.387C63.8445 81.7196 63.8445 79.0521 63.8445 76.3847H63.8401Z" fill="black"/>
<path d="M68.4604 83.0599V81.1376C68.4604 77.1783 68.4692 73.2169 68.4493 69.2576C68.4471 68.766 68.5948 68.4772 69.0049 68.1862C71.6128 66.3454 72.6357 63.1247 71.5996 60.1552C70.5546 57.1571 67.7395 55.3141 64.4856 55.4971C61.439 55.6691 58.8598 57.8978 58.1521 60.9731C57.5349 63.6582 58.6195 66.513 60.9342 68.1553C61.3619 68.4573 61.5448 68.7439 61.5426 69.2818C61.5184 73.6269 61.5074 77.972 61.5471 82.317C61.5537 83.1084 61.2715 83.0467 60.7182 82.8637C55.5662 81.1685 51.9509 76.3384 51.6753 70.7412C51.6378 70.0005 51.6334 69.2554 51.6599 68.5147C51.6775 68.0473 51.5188 67.8974 51.0492 67.9062C49.6472 67.9327 48.2429 67.893 46.8408 67.9261C46.3007 67.9393 46.142 67.7762 46.1486 67.2361C46.1773 64.4319 46.1156 61.6234 46.1861 58.8215C46.3448 52.5629 51.3843 46.7695 57.5459 45.6717C57.903 45.6077 58.172 45.7091 58.4718 45.8789C62.8301 48.3633 67.1928 48.3655 71.54 45.859C71.8773 45.665 72.1749 45.6232 72.5497 45.7025C79.0397 47.0627 83.7375 52.7305 83.8191 59.3484C83.8522 61.9607 83.8103 64.573 83.8389 67.1853C83.8456 67.7497 83.7089 67.9591 83.1137 67.9283C82.126 67.8798 81.134 67.915 80.1442 67.915C78.9361 67.915 78.3314 68.5088 78.3299 69.6963C78.3321 71.6671 78.0565 73.5894 77.2585 75.4059C75.5941 79.1977 72.7878 81.7284 68.8395 82.985C68.7403 83.0158 68.6323 83.0269 68.4582 83.0599H68.4604Z" fill="black"/>
<path d="M64.9997 25C70.5991 25 75.1933 29.5765 75.2087 35.1716C75.2263 40.7886 70.5947 45.4357 64.9865 45.4291C59.3738 45.4247 54.7554 40.7776 54.7774 35.1583C54.7995 29.5699 59.4003 25 64.9997 25Z" fill="black"/>
<path d="M40.1518 42.7969C42.7531 42.7859 44.8474 44.8295 44.8716 47.3999C44.8959 50.0255 42.8259 52.1528 40.2201 52.1793C37.6475 52.2057 35.4761 50.0497 35.4805 47.4682C35.4849 44.9 37.577 42.8057 40.1518 42.7969Z" fill="black"/>
<path d="M89.8148 42.7969C92.3963 42.7991 94.4862 44.8713 94.506 47.4462C94.5236 50.0254 92.3698 52.188 89.7906 52.1792C87.1915 52.1704 85.1016 50.0409 85.1193 47.4219C85.1369 44.8426 87.2179 42.7947 89.8148 42.7969Z" fill="black"/>
</svg>
