<svg width="130" height="130" viewBox="0 0 130 130" fill="none" xmlns="http://www.w3.org/2000/svg">
<circle cx="65" cy="65" r="65" fill="white"/>
<path d="M64.9995 44.1113C71.1469 44.1209 76.7963 45.912 82.1018 48.9093C88.3745 52.4533 93.612 57.2375 98.3771 62.578C99.1596 63.455 99.1882 64.522 98.4164 65.3842C92.6724 71.8034 86.3296 77.4698 78.3592 81.0288C68.8132 85.2905 59.3659 84.9115 50.0514 80.2877C43.6958 77.1322 38.3798 72.6156 33.5255 67.5119C32.88 66.8334 32.2387 66.1486 31.6272 65.4404C30.8574 64.5465 30.8096 63.4996 31.5794 62.6353C36.9602 56.5952 42.9176 51.2642 50.2605 47.6777C55.1562 45.2856 60.0996 44.1092 64.9995 44.1124V44.1113ZM76.98 63.9731C76.9609 57.3426 71.613 52.0159 64.9835 52.0265C58.353 52.0361 53.021 57.3745 53.0189 64.005C53.0168 70.6599 58.3997 76.0206 65.0494 75.9887C71.6799 75.9569 76.9981 70.6004 76.979 63.9731H76.98Z" fill="black"/>
<path d="M98.9973 88.0236C98.9973 90.5303 98.9994 93.036 98.9973 95.5428C98.9952 97.2362 98.2392 98.0049 96.5638 98.006C91.4813 98.0092 86.3978 98.0113 81.3153 98.0049C79.8904 98.0028 78.9816 97.1662 79.0166 95.9271C79.0421 95.0183 79.6473 94.2613 80.5434 94.0712C80.8831 93.999 81.2399 93.9873 81.5892 93.9873C85.782 93.982 89.9747 93.9725 94.1675 93.9969C94.7833 94.0001 94.9988 93.8727 94.9935 93.2027C94.9606 88.9165 94.9723 84.6303 94.9787 80.3441C94.9808 78.9554 95.7229 78.0741 96.893 78.0274C98.1203 77.9775 98.9856 78.8619 98.9931 80.2252C99.0069 82.8254 98.9973 85.4255 98.9973 88.0247V88.0236Z" fill="black"/>
<path d="M31.0025 40.0311C31.0025 37.501 30.9993 34.972 31.0025 32.4419C31.0057 30.7941 31.7702 30.0105 33.3957 30.0095C38.4782 30.0041 43.5607 30.0052 48.6432 30.0095C50.0585 30.0105 50.962 30.7792 50.9843 31.9747C51.0034 32.9451 50.3823 33.7521 49.4289 33.9495C49.1114 34.0154 48.778 34.0281 48.4521 34.0281C44.2593 34.0334 40.0665 34.0536 35.8748 34.0111C35.1316 34.0037 35.0042 34.2341 35.0084 34.9115C35.0382 39.1743 35.0286 43.4372 35.0201 47.7C35.0169 49.1004 34.2143 49.9955 33.0081 49.9933C31.8264 49.9912 31.011 49.0994 31.0057 47.7605C30.9951 45.1837 31.0025 42.6079 31.0025 40.0311Z" fill="black"/>
<path d="M98.9966 40.0396C98.9966 42.6165 99.0051 45.1922 98.9934 47.769C98.987 49.1047 98.1652 49.9944 96.9835 49.9934C96.0492 49.9923 95.2561 49.3744 95.0629 48.456C94.9917 48.1162 94.98 47.7595 94.98 47.4102C94.9747 43.194 94.9652 38.9779 94.9896 34.7618C94.9928 34.1853 94.8516 34.0133 94.2581 34.0175C89.9485 34.043 85.6389 34.0356 81.3283 34.0281C79.9183 34.026 79.0233 33.2403 79.0137 32.0363C79.0052 30.9024 79.8525 30.053 81.0841 30.0158C82.0673 29.9861 83.0515 30.0073 84.0347 30.0073C88.1807 30.0073 92.3268 30.0063 96.4718 30.0073C98.2555 30.0073 98.9944 30.7453 98.9966 32.5205C98.9987 35.0272 98.9966 37.5329 98.9966 40.0396Z" fill="black"/>
<path d="M31.0025 87.9799C31.0025 85.403 30.9951 82.8273 31.0057 80.2505C31.0121 78.8819 31.8604 77.9879 33.0793 78.024C33.9945 78.0505 34.7441 78.6504 34.9341 79.5508C35.0063 79.8905 35.0191 80.2473 35.0191 80.5966C35.0244 84.7893 35.035 88.9821 35.0095 93.1749C35.0063 93.7907 35.1337 94.0062 35.8037 94.0009C40.0899 93.968 44.3761 93.9797 48.6623 93.9871C50.1062 93.9892 51.0077 94.8025 50.9822 96.0416C50.9599 97.1224 50.153 97.9368 48.9904 97.9962C48.2429 98.0344 47.4912 98.0079 46.7427 98.009C42.3397 98.009 37.9356 98.01 33.5326 98.009C31.7457 98.009 31.0036 97.2711 31.0015 95.5011C30.9993 92.9944 31.0015 90.4887 31.0015 87.982L31.0025 87.9799Z" fill="black"/>
<path d="M73.0024 64.0263C72.9929 68.4187 69.3777 72.0169 64.9821 72.0094C60.5908 72.002 56.9883 68.3815 57 63.9891C57.0117 59.5914 60.6248 55.9964 65.0193 56.0081C69.418 56.0198 73.0109 59.6296 73.0024 64.0273V64.0263ZM65.0809 60.0246C62.8788 59.9811 61.0813 61.6915 61.0176 63.8904C60.9528 66.1179 62.6909 67.9451 64.9174 67.9897C67.1449 68.0354 68.9572 66.2803 68.9827 64.0539C69.0082 61.854 67.2786 60.0681 65.0798 60.0257L65.0809 60.0246Z" fill="black"/>
</svg>
