<svg width="130" height="130" viewBox="0 0 130 130" fill="none" xmlns="http://www.w3.org/2000/svg">
<circle cx="65" cy="65" r="65" fill="#B22234"/>
<path d="M64.9849 105.11C55.6061 105.11 46.2273 105.114 36.8485 105.107C34.0555 105.105 31.8241 103.458 31.1784 100.932C31.07 100.51 31.0214 100.061 31.0214 99.6251C31.0103 96.288 30.9749 92.9487 31.0302 89.6117C31.1076 85.045 33.1001 81.2501 36.1165 77.986C41.1432 72.5437 47.3861 69.7506 54.8365 69.7572C61.7053 69.7616 68.5763 69.6621 75.4406 69.7815C84.8349 69.9452 92.0265 74.1027 96.874 82.1679C98.3469 84.6182 99.0258 87.3361 98.997 90.222C98.9661 93.2274 98.997 96.235 98.9882 99.2425C98.9749 102.75 96.6308 105.103 93.119 105.107C83.7402 105.116 74.3614 105.11 64.9827 105.11H64.9849ZM79.178 76.626C78.132 76.4535 77.3469 76.8914 76.7388 77.6963C76.4778 78.0435 76.1859 78.2713 75.7458 78.362C74.66 78.5831 74.0253 79.2996 73.7732 80.3523C73.6693 80.7835 73.4547 81.0931 73.0965 81.3408C72.2119 81.9534 71.8979 82.8247 72.0571 83.8641C72.1234 84.2953 72.0836 84.6646 71.836 85.0384C71.2234 85.9628 71.2853 86.9093 71.8161 87.8491C71.9797 88.1366 72.1854 88.4108 72.0991 88.7691C71.7895 90.065 72.2959 91.0004 73.3287 91.7656C73.9678 92.2389 74.0386 93.3004 73.5609 93.9549C72.5193 95.3791 71.4799 96.8033 70.4295 98.2208C70.1906 98.5437 69.954 98.8732 70.1862 99.2713C70.4427 99.7114 70.8651 99.6273 71.2919 99.5543C72.4043 99.3664 73.5277 99.2248 74.6401 99.0324C75.1421 98.9462 75.403 99.0391 75.4738 99.6096C75.6153 100.757 75.8188 101.896 76.009 103.037C76.0709 103.409 76.0753 103.838 76.5552 103.966C77.0616 104.101 77.3027 103.749 77.5526 103.407C78.7733 101.739 79.9962 100.072 81.2214 98.4066C81.8472 97.5574 81.8892 97.5552 82.4974 98.3801C83.7557 100.09 85.014 101.799 86.2635 103.513C86.4891 103.822 86.7301 104.068 87.1481 103.971C87.5793 103.871 87.6523 103.524 87.7054 103.152C87.8646 102.062 88.068 100.979 88.1985 99.8839C88.2848 99.1696 88.517 98.8821 89.3087 99.0634C90.3525 99.3045 91.4317 99.3863 92.4909 99.561C92.8912 99.6273 93.2782 99.6892 93.5325 99.2978C93.7913 98.902 93.5657 98.5747 93.3269 98.2496C92.2941 96.8542 91.2724 95.4499 90.2441 94.05C89.6227 93.2008 89.7156 92.2433 90.5648 91.6241C91.467 90.9673 91.8098 90.1159 91.6749 89.0411C91.6218 88.6187 91.6329 88.2317 91.8872 87.858C92.5153 86.938 92.46 85.9804 91.916 85.0538C91.6926 84.6757 91.582 84.3086 91.6639 83.8818C91.8717 82.7849 91.4626 81.9357 90.5935 81.2877C90.2706 81.0467 90.0451 80.7835 89.9655 80.3656C89.7509 79.2399 89.0035 78.5986 87.9309 78.3288C87.5616 78.2359 87.2653 78.0944 87.0552 77.776C86.4271 76.8162 85.5204 76.4756 84.4125 76.6304C83.9503 76.6946 83.5545 76.6039 83.163 76.3496C82.3138 75.7989 81.427 75.8476 80.58 76.3385C80.1267 76.6017 79.6844 76.7454 79.1714 76.6216L79.178 76.626Z" fill="white"/>
<path d="M76.7487 49.8298C76.6491 51.8112 76.9632 54.2483 76.585 56.6587C76.0941 59.7902 74.5018 62.2427 71.8481 63.9986C71.324 64.3458 71.0453 64.3568 70.7512 63.6823C70.0612 62.0989 68.7963 61.2652 67.0536 61.232C65.8418 61.2099 64.6255 61.1966 63.4136 61.2387C61.9209 61.2917 60.7974 62.0193 60.0433 63.2975C59.4352 64.3281 58.8491 64.4762 57.823 63.7641C55.6226 62.236 54.2383 60.1418 53.5837 57.5588C53.3802 56.7561 53.2586 55.9378 53.2586 55.1063C53.2564 51.3004 53.2166 47.4945 53.2696 43.6908C53.3404 38.3966 56.8876 33.6021 61.7395 32.1315C67.9316 30.254 74.4222 34.0046 76.2555 40.5041C76.7487 42.2555 76.7708 44.0402 76.7509 45.8337C76.7376 47.019 76.7487 48.2044 76.7487 49.832V49.8298Z" fill="white"/>
<path d="M50.7752 46.3512C50.7752 48.5848 50.7619 50.8205 50.7818 53.0541C50.7884 53.994 50.5784 54.7547 49.5412 55.0179C49.1719 55.1108 49.1011 55.3673 49.1431 55.7145C49.2891 56.891 49.4527 58.063 49.8375 59.1931C51.0339 62.7226 53.7429 64.2927 57.2061 64.8765C58.3207 65.0645 59.4485 65.1662 60.5786 65.206C60.9103 65.2171 61.1005 65.1884 61.1933 64.7682C61.4676 63.5475 62.277 62.8619 63.5242 62.8088C64.7361 62.7558 65.9546 62.7447 67.1643 62.811C68.584 62.8884 69.4929 63.9477 69.5084 65.4051C69.5239 66.9288 68.6437 68.0234 67.1974 68.1097C65.9325 68.1871 64.6609 68.1384 63.3915 68.1185C63.0355 68.1119 62.6286 68.0544 62.3809 67.8045C61.7617 67.1742 60.9921 67.2339 60.2247 67.2163C58.648 67.1787 57.0889 66.9907 55.5608 66.5993C50.7376 65.3608 47.9556 62.3201 47.3275 57.3996C47.1418 55.9511 46.8919 55.009 45.2134 54.5159C43.1169 53.8989 42.0753 52.0169 41.5291 49.9514C41.0381 48.0982 41.089 46.2362 41.6198 44.3963C42.4866 41.3887 44.3487 39.9623 47.4624 39.9004C48.7053 39.8761 48.6699 39.8716 48.7871 38.673C49.55 30.9285 54.7602 25.1522 62.6816 24.1504C66.3416 23.6882 69.8202 24.2964 73.1197 25.9284C77.7571 28.2239 80.2384 32.0962 81.2181 37.0542C81.3574 37.7553 81.4679 38.4696 81.5033 39.1839C81.5321 39.7743 81.782 39.938 82.3282 39.9026C83.0735 39.8539 83.8209 39.9402 84.5463 40.1171C86.8219 40.6678 88.3588 42.4612 88.6751 44.8496C88.9316 46.7802 88.7901 48.713 88.6286 50.6326C88.4982 52.185 87.6158 53.3482 86.2513 54.109C84.7896 54.9228 83.1973 55.2147 81.5453 55.1284C80.0703 55.051 79.3848 54.2571 79.4157 52.7489C79.4688 50.2942 79.5506 47.8395 79.5993 45.3848C79.6523 42.6536 79.701 39.9159 79.1791 37.2179C78.049 31.3907 73.8628 27.3216 67.9582 26.3287C62.9691 25.4905 58.4357 26.4503 54.7469 30.0948C52.091 32.7198 50.9211 36.0458 50.7862 39.7279C50.7044 41.9327 50.7708 44.1419 50.7708 46.349C50.7708 46.349 50.773 46.349 50.7752 46.349V46.3512Z" fill="white"/>
<path d="M90.3077 83.8176C89.9826 84.4722 90.3077 85.1578 90.792 85.85C91.1879 86.4139 90.9136 86.969 90.5576 87.4511C90.2392 87.8801 90.1308 88.2958 90.2878 88.8332C90.5244 89.6426 90.2568 90.3083 89.4939 90.7129C89.0052 90.9717 88.7685 91.3764 88.7155 91.8961C88.6292 92.7408 88.1339 93.1964 87.3355 93.2937C86.7583 93.3645 86.3691 93.6299 86.0971 94.123C85.7123 94.8196 85.1196 95.0629 84.3545 94.8661C83.7861 94.7179 83.2819 94.7842 82.8087 95.1712C82.1895 95.6799 81.5282 95.6401 80.9179 95.158C80.4645 94.7997 79.9979 94.7201 79.4517 94.8594C78.6666 95.0607 78.0341 94.8462 77.6361 94.1031C77.384 93.6343 77.0213 93.3578 76.4684 93.3026C75.6104 93.2207 75.1239 92.7187 75.0221 91.8673C74.958 91.3322 74.717 90.9474 74.2349 90.693C73.494 90.3038 73.2441 89.6603 73.4631 88.8841C73.6311 88.287 73.4962 87.8137 73.1313 87.3515C72.6559 86.75 72.6824 86.122 73.1358 85.5293C73.4962 85.0583 73.6267 84.5939 73.4586 83.9968C73.2508 83.2626 73.4586 82.619 74.1752 82.2409C74.7125 81.9578 74.9868 81.5266 75.0509 80.9383C75.1393 80.1334 75.617 79.7065 76.3932 79.6114C76.9549 79.5429 77.3685 79.3018 77.6405 78.791C78.0297 78.0568 78.6622 77.7936 79.4473 78.0325C80.009 78.2028 80.4689 78.0966 80.909 77.7428C81.5282 77.2452 82.1762 77.2341 82.802 77.714C83.2731 78.0767 83.7397 78.2005 84.3368 78.0192C85.0422 77.8025 85.6659 78.0192 86.0352 78.6871C86.3581 79.2709 86.8158 79.5606 87.4726 79.638C88.1493 79.7176 88.5916 80.1311 88.669 80.8145C88.7508 81.542 89.118 82.0131 89.7372 82.3647C90.2082 82.6323 90.4139 83.0746 90.3077 83.8176ZM87.3952 86.4294C87.3842 83.3599 84.9383 80.9206 81.8754 80.9251C78.7816 80.9295 76.307 83.4262 76.3402 86.5112C76.3733 89.5497 78.8988 92.0354 81.9152 91.9956C84.9737 91.958 87.4063 89.4878 87.3952 86.4272V86.4294Z" fill="white"/>
<path d="M87.0162 98.7892C86.9167 99.3885 86.8216 100.067 86.6867 100.74C86.6004 101.171 86.3218 101.235 86.063 100.894C85.1055 99.6251 84.1523 98.3491 83.2412 97.0443C82.8808 96.5291 83.4314 96.2814 83.7388 96.2637C84.3757 96.2261 85.1718 96.0691 85.634 96.4738C86.2289 96.9913 86.7464 97.6768 87.025 98.4663C87.0516 98.5393 87.0206 98.63 87.014 98.7914L87.0162 98.7892Z" fill="white"/>
<path d="M76.7266 98.7007C76.7288 97.7741 78.0822 96.3587 78.9048 96.3211C79.4621 96.2968 80.1632 95.9474 80.4927 96.5843C80.8178 97.2146 80.0769 97.575 79.7828 98.0239C79.1791 98.9439 78.4935 99.813 77.8367 100.698C77.7084 100.87 77.6045 101.12 77.3458 101.082C77.0207 101.036 77.0494 100.72 77.0074 100.492C76.8946 99.8683 76.8084 99.2402 76.7266 98.7029V98.7007Z" fill="white"/>
<path d="M73.1954 97.8405C72.7199 97.8869 72.5717 97.6614 72.846 97.2699C73.4762 96.3677 74.0799 95.4366 74.8119 94.6228C75.3294 94.0456 75.9575 94.5675 76.4174 94.855C76.8155 95.1027 76.9725 95.4897 76.6474 96.1045C75.8801 97.5552 74.6284 97.8162 73.1931 97.8427L73.1954 97.8405Z" fill="white"/>
<path d="M90.4188 97.8537C89.7907 97.7586 89.1914 97.679 88.5987 97.5706C88.2051 97.4998 86.8362 95.9806 86.8738 95.6068C86.9158 95.1844 87.1635 94.7775 87.577 94.6913C88.0282 94.5962 88.5191 94.0323 88.988 94.6515C89.616 95.4852 90.2264 96.3322 90.8412 97.1748C90.9562 97.3296 91.0822 97.4976 90.9805 97.6989C90.8456 97.9642 90.5935 97.8116 90.421 97.8537H90.4188Z" fill="white"/>
<path d="M77.7267 86.3851C77.7466 84.0962 79.6242 82.2651 81.9329 82.2806C84.2019 82.2961 86.0484 84.2002 86.0241 86.5023C86.002 88.7668 84.1532 90.5957 81.8975 90.5868C79.5268 90.578 77.7068 88.7447 77.7267 86.3829V86.3851Z" fill="white"/>
</svg>
