<svg width="130" height="130" viewBox="0 0 130 130" fill="none" xmlns="http://www.w3.org/2000/svg">
<circle cx="65" cy="65" r="65" fill="#B22234"/>
<path d="M39.7903 65.3484C42.1139 65.3484 44.4374 65.3691 46.761 65.3354C47.4126 65.325 47.6774 65.4263 47.719 66.1869C48.0201 71.6389 50.271 76.1951 54.3729 79.7649C61.1567 85.6659 70.1109 85.3284 76.4896 78.9782C80.0594 75.4241 82.0428 71.1222 82.2869 66.0675C82.3128 65.5119 82.4608 65.3354 83.0294 65.338C87.7855 65.3588 92.5417 65.3458 97.2953 65.3536C98.5492 65.3536 98.9828 65.8079 98.9932 67.0852C99.0009 68.4638 99.0035 69.8423 98.9932 71.2183C98.9776 73.3368 97.7937 74.4972 95.6493 74.5076C94.4057 74.5128 93.1622 74.531 91.9212 74.4998C91.4124 74.4869 91.1346 74.6374 90.9788 75.1463C90.5686 76.4911 89.9975 77.7762 89.3225 79.0068C89.0862 79.4377 89.1355 79.7285 89.4886 80.066C90.444 80.9825 91.376 81.9249 92.3028 82.8673C93.7281 84.3185 93.7204 85.9801 92.2795 87.4261C90.1065 89.6095 87.9309 91.7877 85.7449 93.9607C84.3197 95.3782 82.6633 95.3808 81.2458 93.9788C80.2073 92.9534 79.1715 91.9279 78.159 90.8764C77.8241 90.5285 77.5385 90.474 77.0971 90.6843C75.9289 91.2451 74.7191 91.715 73.4651 92.0473C72.9433 92.1849 72.8005 92.4783 72.8109 92.9845C72.8394 94.4435 72.8135 95.9026 72.8342 97.3616C72.8628 99.3217 71.6037 100.633 69.6358 100.638C66.5282 100.648 63.4206 100.646 60.313 100.638C58.3658 100.633 57.1924 99.4593 57.1794 97.507C57.1664 95.8039 57.1612 94.1034 57.1846 92.4004C57.1924 91.8889 57.021 91.6111 56.5304 91.445C55.4815 91.0893 54.4716 90.635 53.5058 90.0898C53.0749 89.8457 52.7841 89.921 52.4466 90.2689C51.242 91.5099 50.0166 92.7301 48.7886 93.9477C47.3322 95.3911 45.6888 95.3885 44.2323 93.9373C42.049 91.7643 39.8708 89.5861 37.6978 87.4028C36.2647 85.9671 36.2725 84.3055 37.7186 82.8491C39.0141 81.5458 40.3095 80.2425 41.6258 78.9626C41.9893 78.6096 42.0671 78.3058 41.8465 77.8281C41.4389 76.948 41.0728 76.0446 40.7665 75.1255C40.5951 74.6115 40.3147 74.4869 39.8163 74.4946C38.0067 74.518 36.1946 74.5076 34.3851 74.5024C32.1498 74.4946 31.0101 73.3445 31.0023 71.0911C30.9971 69.8216 31.0023 68.552 31.0023 67.2825C31.0023 65.7326 31.3788 65.3484 32.9027 65.3484C35.2003 65.3458 37.4953 65.3484 39.7929 65.3484H39.7903Z" fill="white"/>
<path d="M64.9553 62.6276C59.8487 62.6276 54.742 62.6276 49.6328 62.6276C48.018 62.6276 47.6026 62.194 47.7116 60.587C48.1296 54.4056 50.962 49.6754 56.2322 46.399C56.7099 46.103 57.0189 46.0953 57.4888 46.4821C61.8529 50.0674 68.1304 50.0674 72.505 46.4821C72.9723 46.1005 73.276 46.0953 73.7615 46.3964C79.1693 49.7688 81.9939 54.6444 82.2977 60.992C82.3548 62.1603 81.833 62.625 80.5219 62.625C75.3348 62.6302 70.145 62.625 64.9579 62.625L64.9553 62.6276Z" fill="white"/>
<path d="M65.0254 65.3484C69.6699 65.3484 74.3171 65.3484 78.9616 65.3458C79.3977 65.3458 79.743 65.3224 79.7171 65.9585C79.4393 72.7033 74.8752 78.6096 69.4363 80.5463C64.096 82.4467 59.4411 81.0578 55.4404 77.2596C52.299 74.2766 50.6141 70.5589 50.2844 66.2259C50.2351 65.5717 50.3727 65.3302 51.0866 65.3354C55.7311 65.3666 60.3783 65.351 65.0228 65.351L65.0254 65.3484Z" fill="white"/>
<path d="M74.2794 37.4241C74.2794 42.4632 70.0165 46.5885 64.793 46.6041C59.8993 46.6197 55.7428 42.4243 55.7402 37.4734C55.7376 32.1305 59.811 27.987 65.0579 28C70.1775 28.013 74.2794 32.2032 74.2794 37.4241Z" fill="white"/>
<path d="M37.0054 52.5727C37.0054 52.2559 37.0054 51.9418 37.0054 51.6251C37.0054 46.1679 37.0054 40.7108 37.0054 35.2537C37.0054 33.696 37.3585 33.3455 38.9084 33.3455C42.1769 33.3455 45.4455 33.3403 48.7141 33.3455C49.7292 33.3455 50.3393 33.9426 50.2328 34.7968C50.1446 35.5055 49.5994 35.9313 48.7089 35.9339C45.9544 35.9417 43.1972 35.9572 40.4427 35.9235C39.7833 35.9157 39.5756 36.0741 39.5808 36.7647C39.6119 41.8427 39.5964 46.9234 39.599 52.0015C39.599 52.2092 39.6197 52.4169 39.6405 52.8375C40.6556 51.812 41.5409 50.9215 42.421 50.0284C42.6676 49.7766 42.9117 49.5066 43.2673 49.4261C43.88 49.2885 44.407 49.4521 44.729 50.0155C45.0665 50.6074 44.9418 51.1707 44.4797 51.6432C43.4958 52.6454 42.4963 53.6319 41.5019 54.6262C40.7958 55.3324 40.0974 56.0489 39.3783 56.7447C38.6591 57.4405 37.9556 57.4483 37.2546 56.7551C35.5645 55.0832 33.8848 53.4008 32.2129 51.7107C31.5846 51.0747 31.5431 50.314 32.0675 49.7714C32.6179 49.2029 33.3889 49.2366 34.0639 49.9038C34.9804 50.8151 35.8683 51.7523 36.7691 52.6765C36.847 52.6402 36.9249 52.6064 37.0028 52.5701L37.0054 52.5727Z" fill="white"/>
<path d="M93.2059 52.6714C94.0704 51.7887 94.9323 50.8982 95.8046 50.0207C96.5627 49.26 97.3416 49.1769 97.9179 49.7714C98.4735 50.3426 98.3878 51.1059 97.6661 51.8302C96.0642 53.4398 94.4598 55.0442 92.8502 56.6435C92.0065 57.482 91.3444 57.4768 90.4929 56.6305C88.8833 55.0313 87.2788 53.4242 85.677 51.8172C84.9579 51.0955 84.88 50.3322 85.4486 49.7611C86.0171 49.1899 86.7882 49.26 87.5047 49.9739C88.4134 50.8774 89.3064 51.7939 90.2307 52.7259C90.4617 52.3962 90.3838 52.1469 90.3864 51.9133C90.3916 46.8871 90.3709 41.8635 90.4098 36.8374C90.415 36.0611 90.1658 35.9131 89.4544 35.9235C86.8894 35.9625 84.3218 35.9391 81.7542 35.9391C81.5647 35.9391 81.3752 35.9443 81.1857 35.9391C80.2874 35.9028 79.7422 35.4095 79.7422 34.6358C79.7422 33.857 80.2848 33.3533 81.1857 33.3507C84.6178 33.3429 88.0473 33.3481 91.4794 33.3481C91.5054 33.3481 91.5339 33.3481 91.5599 33.3481C92.4374 33.3819 92.8969 33.8128 92.9722 34.6877C92.993 34.9292 92.9826 35.1732 92.9826 35.4173C92.9826 40.8199 92.9826 46.2251 92.9826 51.6277V52.5779L93.2033 52.674L93.2059 52.6714Z" fill="white"/>
</svg>
