<svg width="130" height="130" viewBox="0 0 130 130" fill="none" xmlns="http://www.w3.org/2000/svg">
<circle cx="65" cy="65" r="65" fill="#B22234"/>
<path d="M83.2929 59.5135C82.6657 58.516 82.1162 57.6021 81.5288 56.7121C80.2147 54.7191 78.3492 53.6798 75.9639 53.6758C68.6628 53.6599 61.3618 53.6618 54.0607 53.6758C51.6436 53.6798 49.7641 54.729 48.442 56.7519C47.8726 57.624 47.333 58.516 46.7815 59.394C46.7218 59.39 46.6561 59.4039 46.6382 59.3801C44.914 57.1521 42.4789 57.1322 40.0041 57.2556C39.3829 57.2875 39.3471 57.7415 39.3749 58.2253C39.5024 60.505 41.2943 62.5717 43.568 63.0535C43.8069 63.1033 44.0638 63.0893 44.2987 63.2705C44.0777 63.6508 43.6835 63.832 43.359 64.0828C42.0807 65.0664 40.5317 65.8369 39.584 67.0714C38.6383 68.3038 38.3794 70.04 37.6567 71.4735C36.924 72.929 36.9638 74.4381 36.9797 75.9712C36.9837 76.2918 36.9977 76.5805 36.691 76.8333C34.8374 78.3684 33.0037 79.9254 31.162 81.4784C30.9171 81.2813 31.0226 81.0424 31.0226 80.8413C31.0166 71.2545 31.0146 61.6697 31.0186 52.083C31.0186 49.4986 32.7926 47.7127 35.361 47.7107C55.1299 47.7067 74.8987 47.7067 94.6656 47.7107C97.1583 47.7107 98.9682 49.4946 98.9702 51.9695C98.9821 61.6797 98.9741 71.3899 98.9741 81.1001C98.9741 81.1997 98.9642 81.2972 98.9582 81.3948C98.7292 81.5063 98.6377 81.3012 98.5222 81.2056C96.8079 79.7741 95.1016 78.3286 93.3834 76.899C93.1106 76.6721 92.9692 76.4331 93.013 76.0748C93.2599 74.036 92.5571 72.2162 91.906 70.3207C91.0857 67.9355 89.8194 66.0599 87.6194 64.8036C86.9364 64.4134 86.3451 63.8638 85.6821 63.3641C85.8394 63.0734 86.1082 63.1152 86.3252 63.0714C88.6407 62.6035 90.4028 60.6583 90.6138 58.3308C90.6915 57.4647 90.5083 57.2556 89.6522 57.2477C89.3296 57.2437 89.0051 57.2656 88.6845 57.2437C86.5522 57.1063 84.7025 57.6638 83.2949 59.5154L83.2929 59.5135ZM36.3745 51.8998C36.3864 51.2547 35.8548 50.7052 35.2097 50.6932C34.5646 50.6813 34.0151 51.2109 34.0032 51.858C33.9912 52.5031 34.5228 53.0526 35.1679 53.0645C35.811 53.0765 36.3625 52.5429 36.3745 51.8978V51.8998ZM39.9782 53.0665C40.6233 53.0546 41.1549 52.5031 41.143 51.86C41.131 51.2149 40.5815 50.6833 39.9364 50.6952C39.2893 50.7072 38.7597 51.2547 38.7717 51.9018C38.7836 52.5469 39.3331 53.0805 39.9782 53.0685V53.0665Z" fill="white"/>
<path d="M65.0789 90.6291C76.1032 90.6291 87.1274 90.6371 98.1517 90.6132C98.8466 90.6132 99.0337 90.8044 98.9919 91.4713C98.9342 92.3872 98.978 93.3071 98.978 94.2269C98.978 97.319 97.3314 98.9755 94.2633 98.9755C81.1783 98.9755 68.0933 98.9755 55.0083 98.9755C48.5534 98.9755 42.0965 98.9755 35.6416 98.9755C32.7129 98.9755 31.0205 97.2831 31.0185 94.3583C31.0185 93.3409 31.0543 92.3215 31.0046 91.3041C30.9767 90.7267 31.1698 90.6152 31.7114 90.6152C38.6142 90.6331 45.5171 90.6272 52.418 90.6272H65.0809L65.0789 90.6291ZM80.573 94.205C78.6636 94.205 76.7562 94.209 74.8468 94.203C74.3869 94.203 73.9409 94.2667 73.9628 94.8362C73.9827 95.3558 74.4148 95.4016 74.8409 95.3996C78.6079 95.3957 82.3769 95.3957 86.1439 95.3996C86.6038 95.3996 87.0498 95.3419 87.0259 94.7685C87.004 94.2528 86.5779 94.201 86.1479 94.203C84.2882 94.211 82.4306 94.207 80.571 94.207L80.573 94.205ZM37.567 94.7904C37.561 94.1433 37.0154 93.6097 36.3684 93.6157C35.7213 93.6216 35.1877 94.1652 35.1937 94.8123C35.1996 95.4594 35.7452 95.9949 36.3903 95.987C37.0354 95.981 37.5729 95.4335 37.565 94.7884L37.567 94.7904ZM42.3355 94.7944C42.3315 94.1473 41.7879 93.6117 41.1428 93.6157C40.4958 93.6197 39.9602 94.1612 39.9641 94.8083C39.9681 95.4554 40.5117 95.993 41.1568 95.989C41.8019 95.985 42.3414 95.4395 42.3355 94.7964V94.7944ZM45.9392 93.6157C45.2941 93.6037 44.7446 94.1333 44.7326 94.7824C44.7207 95.4275 45.2523 95.977 45.8974 95.989C46.5405 96.0009 47.092 95.4673 47.1039 94.8222C47.1159 94.1771 46.5843 93.6276 45.9372 93.6157H45.9392ZM93.6042 94.8322C93.6222 94.1871 93.0945 93.6316 92.4494 93.6157C91.8043 93.5978 91.2508 94.1234 91.2329 94.7705C91.215 95.4156 91.7426 95.9711 92.3877 95.989C93.0308 96.0069 93.5883 95.4773 93.6042 94.8322Z" fill="white"/>
<path d="M36.9336 78.1753C37.1586 79.5591 37.7897 80.5108 39.052 80.9309C39.3367 81.0264 39.3646 81.1977 39.3626 81.4366C39.3586 81.9323 39.3507 82.4301 39.3666 82.9259C39.4164 84.5426 40.6468 85.7969 42.2576 85.8507C43.1018 85.8785 43.9479 85.8766 44.7901 85.8507C46.4049 85.8029 47.6393 84.5605 47.705 82.9478C47.705 82.9239 47.705 82.898 47.705 82.8741C47.7249 82.3087 47.5318 81.556 47.8205 81.2235C48.1649 80.8253 48.9394 81.0961 49.5268 81.0961C60.1827 81.0862 70.8387 81.0961 81.4926 81.0722C82.1596 81.0722 82.3826 81.2415 82.293 81.8905C82.2452 82.231 82.2771 82.5854 82.289 82.9318C82.3448 84.5466 83.5752 85.7989 85.1879 85.8507C86.0321 85.8785 86.8783 85.8766 87.7205 85.8507C89.3352 85.8009 90.5657 84.5565 90.6274 82.9418C90.6334 82.7925 90.6433 82.6431 90.6274 82.4958C90.5398 81.6237 90.6055 80.9488 91.6488 80.5526C92.5487 80.2121 92.8753 79.2425 93.0385 78.2868C93.4029 78.3386 93.5861 78.6253 93.821 78.8204C95.3839 80.1245 96.933 81.4485 98.5019 82.7447C98.8364 83.0194 98.9937 83.2982 98.9877 83.7462C98.9598 85.3848 98.932 87.0254 98.9977 88.664C99.0255 89.3768 98.7607 89.4504 98.1574 89.4484C92.4691 89.4285 86.7808 89.4365 81.0944 89.4365C77.2935 89.4365 73.4947 89.4226 69.6938 89.4524C69.1523 89.4564 68.9751 89.2693 68.8656 88.7854C68.6127 87.6486 68.2901 86.5276 68.0293 85.3907C67.9079 84.8611 67.6311 84.6541 67.0916 84.662C65.7018 84.6839 64.3101 84.6879 62.9184 84.662C62.333 84.6501 62.0722 84.901 61.9487 85.4485C61.6919 86.5854 61.3793 87.7083 61.1145 88.8432C61.0189 89.2493 60.8875 89.4544 60.3938 89.4524C50.807 89.4345 41.2182 89.4345 31.6315 89.4484C31.1516 89.4484 30.9963 89.329 31.0063 88.8332C31.0362 87.0951 31.0183 85.3569 31.0163 83.6167C31.0163 83.3659 31.0262 83.1469 31.2552 82.9557C33.1208 81.3988 34.9764 79.8278 36.9356 78.1773L36.9336 78.1753Z" fill="white"/>
<path d="M76.5926 79.8218C76.8515 79.0274 77.0864 78.2211 77.3811 77.4406C77.614 76.8194 77.4627 76.4829 76.8316 76.246C74.8206 75.4894 72.7958 75.0414 70.6036 75.0971C66.1099 75.2106 61.6122 75.0972 57.1165 75.1509C55.5874 75.1688 54.2175 75.9453 52.792 76.4252C52.4416 76.5426 52.4336 76.913 52.555 77.2594C52.7999 77.9622 53.007 78.677 53.2638 79.3759C53.3952 79.7342 53.4112 79.9094 52.9353 79.9075C48.6128 79.8955 44.2923 79.9094 39.9698 79.8895C38.9205 79.8856 38.2038 79.1389 38.1779 78.0877C38.15 76.9946 38.2097 75.8995 38.154 74.8104C38.1221 74.1753 38.2954 74.0001 38.9325 74.0897C41.0469 74.3883 43.1694 74.6173 45.2838 74.912C47.2749 75.1907 47.2729 75.2126 48.6945 73.7891C49.011 73.4725 49.3296 73.1599 49.6422 72.8393C50.2932 72.1743 50.2494 71.8617 49.4291 71.4476C47.5018 70.478 45.5685 69.5183 43.6393 68.5527C42.8229 68.1445 42.0106 67.7324 41.0987 67.2704C42.2893 66.3785 43.4163 65.5343 44.5412 64.6861C44.8637 64.4432 45.0489 64.7399 45.252 64.8733C47.2191 66.1734 49.1882 67.4715 51.1374 68.7976C53.889 70.6691 56.9114 71.593 60.2444 71.5591C63.424 71.5273 66.6037 71.5292 69.7833 71.5591C73.0884 71.589 76.0909 70.6771 78.8226 68.8234C80.7937 67.4855 82.7927 66.1873 84.7618 64.8454C85.1341 64.5925 85.377 64.6045 85.7254 64.8792C86.7349 65.6756 87.7762 66.4342 88.8932 67.2764C88.1545 67.6487 87.5034 67.9773 86.8524 68.3038C84.7658 69.3471 82.6792 70.3864 80.5946 71.4317C79.7285 71.8657 79.6847 72.1664 80.3736 72.8632C80.7061 73.1997 81.0983 73.4904 81.3631 73.8727C82.1854 75.0573 83.2586 75.1867 84.5985 74.9558C86.7727 74.5795 88.9788 74.3883 91.1689 74.0897C91.7005 74.018 91.8538 74.1614 91.8359 74.695C91.7961 75.8119 91.8399 76.9309 91.818 78.0478C91.7961 79.117 91.1032 79.8816 90.0659 79.8875C85.6438 79.9094 81.2237 79.8955 76.8017 79.8915C76.7559 79.8915 76.7101 79.8617 76.5966 79.8238L76.5926 79.8218Z" fill="white"/>
<path d="M45.7832 63.2068C47.1869 60.9968 48.4273 58.9062 49.811 56.9132C50.7528 55.5573 52.1943 54.8804 53.8508 54.8764C61.2773 54.8545 68.7038 54.8525 76.1303 54.8764C77.8147 54.8823 79.2662 55.5732 80.2199 56.965C81.5798 58.946 82.8142 61.0127 84.0904 63.0236C83.9272 63.3044 83.7042 63.2028 83.529 63.2028C76.1761 63.2088 68.8253 63.2028 61.4724 63.2187C60.9807 63.2187 60.8055 63.1411 60.8035 62.5836C60.7935 60.2481 58.9219 58.4284 56.6183 58.4423C54.3545 58.4562 52.5109 60.274 52.4949 62.5717C52.491 63.1033 52.3536 63.2287 51.8379 63.2207C49.8827 63.1909 47.9275 63.2088 45.7832 63.2088V63.2068Z" fill="white"/>
<path d="M64.9933 31.014C68.5433 31.014 72.0952 31.0279 75.6452 31.0001C76.2167 30.9961 76.36 31.1613 76.3341 31.7069C76.2923 32.6228 76.3481 33.5426 76.1091 34.4425C75.3486 37.3116 72.82 39.3225 69.8394 39.3504C66.612 39.3803 63.3825 39.3843 60.1551 39.3504C56.5513 39.3106 53.7261 36.4415 53.6703 32.8278C53.6518 31.6186 54.2477 31.014 55.4583 31.014C58.6359 31.014 61.8156 31.014 64.9933 31.014Z" fill="white"/>
<path d="M83.2472 64.4432C80.9217 65.9325 78.8828 67.4795 76.6549 68.7299C74.7156 69.817 72.6052 70.3386 70.3832 70.3526C66.8093 70.3725 63.2354 70.3765 59.6615 70.3526C57.127 70.3367 54.7557 69.6717 52.6133 68.3058C50.7 67.0853 48.8224 65.8071 46.7617 64.4452H83.2472V64.4432Z" fill="white"/>
<path d="M67.9769 43.5216C67.9769 44.3658 67.963 45.208 67.9829 46.0522C67.9908 46.4066 67.8753 46.5241 67.519 46.5201C65.8326 46.5061 64.1462 46.5081 62.4598 46.5181C62.1611 46.5181 62.0078 46.4564 62.0118 46.1119C62.0257 44.3996 62.0237 42.6894 62.0118 40.9771C62.0098 40.6565 62.1133 40.545 62.4379 40.547C64.1502 40.559 65.8604 40.559 67.5727 40.547C67.9132 40.545 67.9868 40.6904 67.9829 40.993C67.9689 41.8352 67.9789 42.6794 67.9789 43.5236L67.9769 43.5216Z" fill="white"/>
<path d="M46.557 73.8568C43.9766 73.5342 41.3963 73.2097 38.8159 72.8971C38.5013 72.8593 38.4476 72.7597 38.5651 72.473C39.0967 71.1669 39.6123 69.8548 40.13 68.5427C40.2395 68.264 40.3868 68.2521 40.6417 68.3815C43.1384 69.6398 45.6431 70.8862 48.1439 72.1385C48.2912 72.2122 48.5122 72.2839 48.3011 72.5009C47.8691 72.9429 47.4251 73.375 46.9811 73.807C46.8596 73.9265 46.7043 73.8847 46.559 73.8568H46.557Z" fill="white"/>
<path d="M83.2481 73.8926C82.8639 73.9085 82.6747 73.4626 82.388 73.1858C81.494 72.3257 81.506 72.3157 82.5811 71.7781C84.7713 70.6831 86.9693 69.604 89.1455 68.481C89.6333 68.2282 89.8026 68.3297 89.9798 68.8115C90.4257 70.0181 90.9195 71.2047 91.3974 72.3993C91.4949 72.6442 91.6164 72.8493 91.1843 72.9011C88.5781 73.2157 85.9758 73.5502 83.2461 73.8926H83.2481Z" fill="white"/>
<path d="M43.5706 81.0901C44.3889 81.0901 45.2052 81.1101 46.0215 81.0822C46.4177 81.0682 46.5093 81.2076 46.5252 81.5899C46.6208 83.7959 46.2903 84.8412 43.6104 84.668C43.5606 84.664 43.5108 84.664 43.4611 84.668C40.7811 84.8392 40.4427 83.8019 40.5422 81.5939C40.5582 81.2176 40.6398 81.0702 41.042 81.0822C41.8842 81.1101 42.7264 81.0901 43.5686 81.0901H43.5706Z" fill="white"/>
<path d="M86.5276 81.0901C87.3459 81.0901 88.1622 81.1041 88.9785 81.0842C89.3349 81.0742 89.4842 81.1977 89.4365 81.5521C89.4325 81.576 89.4365 81.6018 89.4365 81.6257C89.5599 83.8616 89.1517 84.8412 86.4957 84.668C86.4718 84.668 86.4459 84.668 86.4221 84.668C83.772 84.8392 83.3599 83.8756 83.4634 81.6337C83.4813 81.2275 83.5649 81.0663 83.999 81.0822C84.8392 81.114 85.6834 81.0921 86.5256 81.0921L86.5276 81.0901Z" fill="white"/>
<path d="M56.6059 63.2068C55.8115 63.2068 55.0171 63.1869 54.2247 63.2148C53.7906 63.2307 53.6791 63.0515 53.6672 62.6493C53.6194 61.0227 55.0251 59.609 56.6975 59.6309C58.3322 59.6528 59.694 61.0744 59.6383 62.6652C59.6243 63.0814 59.481 63.2267 59.0649 63.2148C58.2465 63.1889 57.4282 63.2068 56.6079 63.2068H56.6059Z" fill="white"/>
<path d="M64.9524 89.4365C64.1858 89.4365 63.4193 89.4186 62.6528 89.4445C62.2645 89.4564 62.2008 89.333 62.2984 88.9766C62.5433 88.0707 62.7623 87.1588 62.9793 86.2469C63.047 85.9642 63.1784 85.8487 63.485 85.8547C64.4984 85.8746 65.5119 85.8746 66.5253 85.8547C66.8439 85.8487 66.9554 85.988 67.0211 86.2608C67.2401 87.1727 67.4531 88.0866 67.702 88.9905C67.8095 89.3788 67.6881 89.4544 67.3277 89.4445C66.5372 89.4245 65.7448 89.4385 64.9544 89.4385L64.9524 89.4365Z" fill="white"/>
<path d="M41.923 58.4363C43.3725 58.3646 44.6468 58.8445 45.6005 60.051C45.8055 60.3098 46.1161 60.5806 45.7956 60.9589C45.4432 61.375 45.4053 62.0799 44.5611 62.0261C42.8588 61.9166 41.2939 60.7658 40.7583 59.1431C40.5891 58.6294 40.6149 58.3328 41.268 58.4303C41.4631 58.4602 41.6642 58.4343 41.923 58.4343V58.4363Z" fill="white"/>
<path d="M85.2584 62.0401C84.5934 62.1874 84.5556 61.389 84.2052 60.9709C83.8607 60.5608 84.2112 60.28 84.4322 60.0053C85.4177 58.7808 86.7378 58.3806 88.2649 58.4284C89.5352 58.4682 89.5909 58.514 89.0016 59.6748C88.2649 61.1262 87.0464 61.8669 85.2584 62.0381V62.0401Z" fill="white"/>
<path d="M58.4395 78.1076C58.4395 76.917 59.0427 76.3217 60.2493 76.3217C61.428 76.3217 62.0173 76.9064 62.0173 78.0757C62.0173 79.2916 61.4021 79.8995 60.1716 79.8995C59.0182 79.8995 58.4414 79.3029 58.4414 78.1096L58.4395 78.1076Z" fill="white"/>
<path d="M66.785 78.0857C66.785 79.2936 66.1903 79.8975 65.001 79.8975C63.8117 79.8975 63.2137 79.2969 63.2071 78.0956C63.2005 76.8944 63.7825 76.3031 64.9532 76.3217H65.0269C66.1976 76.3217 66.783 76.9097 66.783 78.0857H66.785Z" fill="white"/>
<path d="M71.5544 78.1136C71.5544 79.3029 70.9505 79.8976 69.7426 79.8976C68.5652 79.8976 67.9766 79.3122 67.9766 78.1415C67.9766 76.927 68.5931 76.3197 69.8262 76.3197C70.9784 76.3197 71.5544 76.9177 71.5544 78.1136Z" fill="white"/>
<path d="M57.2458 78.0818C57.2458 79.9015 57.2458 79.8717 55.4698 79.9155C54.8646 79.9314 54.5579 79.7622 54.4385 79.1708C54.313 78.5457 53.7257 77.8488 53.9786 77.371C54.1916 76.9688 55.0537 76.8991 55.6351 76.702C56.7076 76.337 57.2438 76.7219 57.2438 77.8568V78.0798L57.2458 78.0818Z" fill="white"/>
<path d="M72.7461 78.1175C72.7461 76.8101 73.3653 76.3615 74.6037 76.7716C76.1647 77.2893 76.103 77.2714 75.6669 78.8562C75.432 79.7104 75.0497 79.9672 74.1856 79.9194C72.7501 79.8398 72.7461 79.8975 72.7461 78.4879V78.1155V78.1175Z" fill="white"/>
</svg>
