<svg width="36" height="27" viewBox="0 0 36 27" fill="none" xmlns="http://www.w3.org/2000/svg">
<path d="M0.1125 3.49875C0.339341 2.5048 0.896975 1.61733 1.69407 0.981694C2.49117 0.346058 3.48049 -6.86125e-05 4.5 1.02018e-08H31.5C32.5195 -6.86125e-05 33.5088 0.346058 34.3059 0.981694C35.103 1.61733 35.6607 2.5048 35.8875 3.49875L18 14.4315L0.1125 3.49875ZM0 6.06825V22.0523L13.0568 14.0468L0 6.06825ZM15.2123 15.3675L0.42975 24.4283C0.794985 25.1984 1.37143 25.849 2.09201 26.3043C2.81258 26.7595 3.64764 27.0008 4.5 27H31.5C32.3522 27.0002 33.187 26.7584 33.9071 26.3027C34.6273 25.847 35.2033 25.1962 35.568 24.426L20.7855 15.3653L18 17.0685L15.2123 15.3653V15.3675ZM22.9432 14.049L36 22.0523V6.06825L22.9432 14.0468V14.049Z" fill="#B22234"/>
</svg>
