<svg width="36" height="41" viewBox="0 0 36 41" fill="none" xmlns="http://www.w3.org/2000/svg">
<path d="M18.8039 -0.00280762C19.7771 0.137518 20.7534 0.249778 21.7016 0.534437C24.3447 1.32727 26.5378 2.79167 28.2758 4.92862C29.5658 6.51429 30.4458 8.31346 30.8768 10.3111C31.6296 13.8012 31.1284 17.1139 29.216 20.1379C25.9123 25.363 22.5475 30.549 19.2088 35.752C19.1587 35.8302 19.1096 35.9104 19.0564 35.9866C18.4821 36.8195 17.5089 36.8245 16.9496 35.9796C16.3251 35.0354 15.7237 34.0752 15.1123 33.1219C12.3589 28.826 9.59151 24.5381 6.85617 20.2311C5.06101 17.4035 4.43055 14.3124 4.99787 11.0087C5.93404 5.5681 9.9343 1.43051 15.3509 0.268822C15.9593 0.13852 16.5857 0.0853968 17.2031 -0.00280762C17.7374 -0.00280762 18.2706 -0.00280762 18.8039 -0.00280762ZM24.0049 13.2028C24.0049 9.90014 21.2966 7.19587 17.994 7.20189C14.7064 7.2079 12.0151 9.89412 12.0031 13.1827C11.9911 16.4844 14.6903 19.1977 17.994 19.2037C21.2956 19.2097 24.0049 16.5054 24.0049 13.2028Z" fill="#B22234"/>
<path d="M17.6222 40.972C14.3787 40.9439 10.7934 40.5951 7.2913 39.6108C5.31974 39.0565 3.41733 38.3399 1.79858 37.0319C1.23527 36.5768 0.742128 36.0536 0.405348 35.4021C-0.305299 34.0229 -0.0737622 32.5024 1.03882 31.2595C2.16342 30.0036 3.61278 29.2538 5.14934 28.6494C6.16569 28.2495 7.21412 27.9458 8.27057 27.6672C8.55122 27.593 8.66649 27.6651 8.80882 27.8887C10.7213 30.8886 12.6457 33.8805 14.5601 36.8785C15.2948 38.0292 16.3062 38.7338 17.6864 38.832C19.1227 38.9353 20.3275 38.4341 21.1604 37.2564C21.9984 36.0716 22.7491 34.8257 23.5329 33.6029C24.7488 31.7075 25.9666 29.8141 27.1674 27.9087C27.3337 27.6451 27.4801 27.599 27.7738 27.6772C29.5679 28.1523 31.331 28.7005 32.9437 29.6457C33.8599 30.183 34.6908 30.8195 35.3112 31.6995C36.3416 33.1639 36.2013 34.9661 34.9885 36.2871C33.9531 37.4147 32.6651 38.1464 31.2799 38.7258C28.752 39.7832 26.0929 40.3125 23.3886 40.6462C21.6015 40.8687 19.8053 40.968 17.6222 40.972Z" fill="#B22234"/>
</svg>
