<svg width="36" height="36" viewBox="0 0 36 36" fill="none" xmlns="http://www.w3.org/2000/svg">
<path fill-rule="evenodd" clip-rule="evenodd" d="M4.24218 1.14785C4.63586 0.754759 5.10858 0.449825 5.62903 0.253253C6.14947 0.0566802 6.70575 -0.0270419 7.26099 0.00763449C7.81624 0.0423109 8.35778 0.194594 8.84972 0.454392C9.34167 0.71419 9.77278 1.07557 10.1145 1.51459L14.1531 6.70292C14.8933 7.65464 15.1543 8.89435 14.8618 10.0643L13.6311 14.9917C13.5675 15.2469 13.5709 15.5142 13.6411 15.7677C13.7113 16.0212 13.8458 16.2522 14.0316 16.4384L19.5597 21.9664C19.7461 22.1526 19.9775 22.2874 20.2314 22.3576C20.4853 22.4277 20.7531 22.431 21.0087 22.3669L25.9337 21.1362C26.5111 20.9919 27.1137 20.9806 27.6961 21.1034C28.2784 21.2262 28.8252 21.4798 29.2951 21.8449L34.4835 25.8813C36.3487 27.3325 36.5197 30.0887 34.8502 31.7559L32.5238 34.0823C30.8588 35.7473 28.3704 36.4785 26.0507 35.6618C20.1136 33.5728 14.723 30.1738 10.2787 25.7171C5.82228 21.2735 2.42335 15.8837 0.334049 9.94732C-0.480425 7.62989 0.250802 5.13922 1.91575 3.47427L4.24218 1.14785Z" fill="#B22234"/>
</svg>
