<svg width="52" height="52" viewBox="0 0 52 52" fill="none" xmlns="http://www.w3.org/2000/svg">
<g clip-path="url(#clip0_536_1304)">
<path d="M14.2288 0C21.0653 0 27.9018 0 34.7396 0C35.172 0.0662015 35.6044 0.13113 36.0355 0.198604C39.8937 0.80333 43.1009 2.60859 45.5221 5.65513C48.8844 9.88694 49.753 14.6573 48.2257 19.8503C48.1278 20.1838 48.1647 20.4066 48.391 20.6689C49.7695 22.2653 50.7767 24.0795 51.3426 26.1088C51.6402 27.177 51.7864 28.2859 52 29.3769C52 30.1229 52 30.8677 52 31.6138C51.9721 31.7449 51.9288 31.8735 51.9161 32.0059C51.6987 34.2109 51.0539 36.2822 49.931 38.1893C47.9142 41.6115 45.0249 43.9654 41.2252 45.1507C39.7933 45.5975 38.3359 45.9553 36.7705 45.8407C36.7705 46.0813 36.7705 46.2634 36.7705 46.4467C36.7705 47.7682 36.7781 49.0897 36.7667 50.4099C36.759 51.2871 36.2377 51.9822 35.4518 52.0013C35.0156 52.0114 34.5133 51.8396 34.1407 51.5964C31.3977 49.795 28.6852 47.9477 25.9485 46.1373C25.6891 45.9655 25.3331 45.8624 25.019 45.8585C22.819 45.8356 20.6202 45.8585 18.4202 45.8433C14.1385 45.8127 10.4049 44.3499 7.45969 41.2372C3.31785 36.8589 2.12629 31.6889 3.78709 25.8822C3.88374 25.5461 3.84559 25.3233 3.62051 25.0636C2.43658 23.6925 1.53369 22.1482 0.936002 20.4384C-0.532781 16.2423 -0.292434 12.1289 1.76768 8.19625C3.78328 4.35147 6.92304 1.80144 11.1043 0.607271C12.1204 0.317003 13.186 0.197331 14.2288 0ZM18.2893 32.2159C18.522 32.0733 18.6797 31.983 18.831 31.8824C20.8351 30.5596 22.8431 29.2432 24.8396 27.9077C25.3242 27.5844 25.8252 27.4341 26.4089 27.4392C28.7602 27.4558 31.1115 27.4418 33.4629 27.4469C35.9058 27.452 38.1604 26.8282 40.2485 25.5385C44.8469 22.6995 47.0507 16.642 45.3149 11.5178C43.565 6.34898 39.0442 3.06818 33.5964 3.05291C27.5229 3.03636 21.4494 3.04781 15.3759 3.05036C14.0304 3.05036 12.7015 3.21077 11.4375 3.67291C6.86454 5.34704 4.08212 8.56927 3.22247 13.3867C2.25473 18.8089 5.55345 24.5658 10.691 26.5595C12.5934 27.2979 14.5531 27.4876 16.5636 27.4507C17.6852 27.4303 18.2842 28.0503 18.2893 29.1732C18.2931 30.1548 18.2893 31.1363 18.2893 32.2159ZM46.645 23.3449C46.5293 23.5028 46.4594 23.5945 46.392 23.6899C43.2497 28.1675 38.9501 30.4514 33.4794 30.4921C31.2972 30.5087 29.1137 30.4858 26.9303 30.5062C26.648 30.5087 26.3262 30.6004 26.091 30.7544C23.3709 32.5278 20.6635 34.3229 17.9523 36.1104C17.7971 36.2122 17.642 36.3179 17.4767 36.4006C16.4555 36.9061 15.3479 36.2861 15.2563 35.1466C15.2245 34.7596 15.2449 34.3675 15.2449 33.9779C15.2436 32.8308 15.2449 31.685 15.2449 30.4845C13.6133 30.6093 12.086 30.277 10.6312 29.7512C9.18408 29.228 7.81067 28.501 6.41183 27.867C5.92096 29.9855 5.99599 32.1841 6.72975 34.3293C8.53044 39.5974 13.0385 42.7916 18.6021 42.7954C20.9369 42.7967 23.2729 42.8056 25.6077 42.7891C26.1914 42.7853 26.6925 42.9342 27.1757 43.2614C29.1773 44.6198 31.1904 45.9617 33.1996 47.3073C33.3484 47.4079 33.5036 47.4983 33.7261 47.6371C33.7261 46.5002 33.7147 45.4384 33.7299 44.3779C33.7426 43.4434 34.3645 42.8234 35.2928 42.798C35.7328 42.7865 36.1728 42.7967 36.6128 42.7942C38.3931 42.7878 40.1175 42.481 41.73 41.7108C45.7523 39.7896 48.1405 36.6081 48.8158 32.2057C49.3054 29.0026 48.5335 26.0617 46.645 23.3449Z" fill="white"/>
<path d="M18.2855 15.2331C18.2957 16.8869 16.9299 18.2746 15.2716 18.2937C13.6019 18.3128 12.1942 16.9123 12.2018 15.2382C12.2094 13.5806 13.5867 12.2044 15.2411 12.2031C16.8956 12.2006 18.2753 13.5743 18.2855 15.2331Z" fill="white"/>
<path d="M24.4773 18.293C22.8215 18.2879 21.4456 16.9104 21.4418 15.2541C21.438 13.5787 22.847 12.1795 24.5154 12.2024C26.1749 12.2253 27.5395 13.6143 27.5255 15.2668C27.5115 16.9256 26.1304 18.2981 24.4773 18.293Z" fill="white"/>
<path d="M36.7654 15.2552C36.7603 16.9127 35.3831 18.289 33.7286 18.2928C32.0551 18.2966 30.6588 16.8847 30.6817 15.2144C30.7046 13.553 32.0932 12.1883 33.7439 12.2023C35.4009 12.2163 36.7704 13.6001 36.7654 15.2552Z" fill="white"/>
</g>
<defs>
<clipPath id="clip0_536_1304">
<rect width="52" height="52" fill="white"/>
</clipPath>
</defs>
</svg>
